SplineFontDB: 3.0
FontName: LindenHill
FullName: Linden Hill
FamilyName: Linden Hill
Weight: Regular
Copyright: Copyright (c) 2009 Barry Schwartz\n\nPermission is hereby granted, free of charge, to any person\nobtaining a copy of this software and associated documentation\nfiles (the "Software"), to deal in the Software without\nrestriction, including without limitation the rights to use,\ncopy, modify, merge, publish, distribute, sublicense, and/or sell\ncopies of the Software, and to permit persons to whom the\nSoftware is furnished to do so, subject to the following\nconditions:\n\nThe above copyright notice and this permission notice shall be\nincluded in all copies or substantial portions of the Software.\n\nTHE SOFTWARE IS PROVIDED "AS IS", WITHOUT WARRANTY OF ANY KIND,\nEXPRESS OR IMPLIED, INCLUDING BUT NOT LIMITED TO THE WARRANTIES\nOF MERCHANTABILITY, FITNESS FOR A PARTICULAR PURPOSE AND\nNONINFRINGEMENT. IN NO EVENT SHALL THE AUTHORS OR COPYRIGHT\nHOLDERS BE LIABLE FOR ANY CLAIM, DAMAGES OR OTHER LIABILITY,\nWHETHER IN AN ACTION OF CONTRACT, TORT OR OTHERWISE, ARISING\nFROM, OUT OF OR IN CONNECTION WITH THE SOFTWARE OR THE USE OR\nOTHER DEALINGS IN THE SOFTWARE.
UComments: "Scaling: Cut the 12-point to 640 pixels high and scale it to 120%." 
Version: 001.000
ItalicAngle: 0
UnderlinePosition: -99
UnderlineWidth: 49
Ascent: 735
Descent: 265
LayerCount: 3
Layer: 0 0 "Back"  1
Layer: 1 0 "Fore"  0
Layer: 2 0 "backup"  1
NeedsXUIDChange: 1
XUID: [1021 658 797806517 427014]
FSType: 0
OS2Version: 0
OS2_WeightWidthSlopeOnly: 0
OS2_UseTypoMetrics: 1
CreationTime: 1249677682
ModificationTime: 1292717057
OS2TypoAscent: 0
OS2TypoAOffset: 1
OS2TypoDescent: 0
OS2TypoDOffset: 1
OS2TypoLinegap: 90
OS2WinAscent: 0
OS2WinAOffset: 1
OS2WinDescent: 0
OS2WinDOffset: 1
HheadAscent: 0
HheadAOffset: 1
HheadDescent: 0
HheadDOffset: 1
OS2Vendor: 'PfEd'

StartChar: i
Encoding: 105 105 0
Width: 265
VWidth: 0
Flags: HWO
AnchorPoint: "l;x" 0 376 basechar 0
AnchorPoint: "l;k;hi" 47 684 basechar 0
AnchorPoint: "r;bl" 265 15 basechar 0
AnchorPoint: "r;o" 265 195 basechar 0
AnchorPoint: "r;k;hi" 240 684 basechar 0
AnchorPoint: "l;o" 0 195 basechar 0
AnchorPoint: "l;bl" 0 15 basechar 0
AnchorPoint: "r;x" 250 376 basechar 0
LayerCount: 3
Fore
Refer: 749 -1 N 1 0 0 1 321 0 2
Refer: 177 305 N 1 0 0 1 0 0 2
Layer: 2
SplineSet
26.85546875 375.9765625 m 1xf0
 70.80078125 382.8125 113.28125 391.6015625 168.45703125 406.25 c 1
 168.45703125 58.59375 l 2
 168.45703125 26.3671875 178.22265625 34.66796875 247.55859375 31.73828125 c 1
 247.55859375 0 l 1
 30.76171875 0 l 1
 30.76171875 31.73828125 l 1
 76.171875 34.1796875 98.14453125 28.3203125 98.14453125 55.17578125 c 2
 98.14453125 321.77734375 l 2
 98.14453125 348.14453125 94.23828125 353.515625 83.0078125 353.515625 c 0
 78.125 353.515625 59.5703125 351.5625 28.3203125 345.703125 c 1
 26.85546875 375.9765625 l 1xf0
109.86328125 593.75 m 0xe8
 109.86328125 607.421875 143.06640625 636.23046875 153.3203125 636.23046875 c 0
 171.38671875 636.23046875 194.82421875 602.05078125 194.82421875 590.8203125 c 0
 194.82421875 575.1953125 164.0625 549.31640625 150.87890625 549.31640625 c 0
 139.6484375 549.31640625 109.86328125 577.1484375 109.86328125 593.75 c 0xe8
EndSplineSet
Refer: 267 775 N 1 0 0 1 321.777 0 2
Refer: 177 305 N 1 0 0 1 0 0 2
AlternateSubs2: "'aalt' Access All Alternates lookup 0 subtable" i.sc
AlternateSubs2: "'aalt' Access All Alternates in Latin lookup 0 subtable" i.sc i.TRK
Substitution2: "'smcp' Lowercase to Small Capitals in Latin lookup 8 subtable" i.sc
Substitution2: "turkish subtable" i.TRK
EndChar

StartChar: l
Encoding: 108 108 2
Width: 262
VWidth: 0
Flags: HMW
HStem: 0 32<27 92.7556 165.174 245> 706 20G<139.5 164>
VStem: 94 70<34.3659 678.994>
AnchorPoint: "commaright" 248 654 basechar 0
AnchorPoint: "top" 91 732 basechar 0
AnchorPoint: "l;bl" 0 15 basechar 0
AnchorPoint: "l;x" 10 376 basechar 0
AnchorPoint: "l;hi" 0 684 basechar 0
AnchorPoint: "l;o" 10 195 basechar 0
AnchorPoint: "r;bl" 262 15 basechar 0
AnchorPoint: "r;x" 248 376 basechar 0
AnchorPoint: "r;hi" 248 684 basechar 0
AnchorPoint: "r;o" 252 195 basechar 0
LayerCount: 3
Fore
SplineSet
76 679 m 0
 73 679 38 673 19 669 c 1
 17 703 l 1
 68 710 115 717 164 726 c 1
 164 59 l 2
 164 34 175 32 228 32 c 2
 245 32 l 1
 245 0 l 1
 27 0 l 1
 27 32 l 1
 49 32 l 2
 82 32 94 34 94 59 c 2
 94 629 l 2
 94 671 92 679 76 679 c 0
EndSplineSet
Layer: 2
SplineSet
76 679 m 4
 73 679 38 673 19 669 c 5
 17 703 l 5
 68 710 115 717 164 726 c 5
 164 59 l 6
 164 30 178 34 245 32 c 5
 245 0 l 5
 27 0 l 5
 27 32 l 5
 78 33 94 29 94 59 c 6
 94 629 l 6
 94 671 92 679 76 679 c 4
EndSplineSet
AlternateSubs2: "'aalt' Access All Alternates lookup 0 subtable" l.sc
AlternateSubs2: "'aalt' Access All Alternates in Latin lookup 0 subtable" l.sc
Substitution2: "'smcp' Lowercase to Small Capitals in Latin lookup 8 subtable" l.sc
EndChar

StartChar: .notdef
Encoding: 65536 -1 4
Width: 500
VWidth: 0
Flags: W
HStem: 0 34<211.477 267.957> 129 31<213.238 264.221> 653 56<166.207 272.136>
VStem: 52 268<452.688 542.016> 52 140<48.5222 114.704> 52 110<206.51 343.002> 52 84<575.006 623.693> 224 224<203.728 297.122> 288 160<48.7331 116.736> 377 71<406.541 545.147>
LayerCount: 3
Fore
SplineSet
52 0 m 17xe240
 52 709 l 9
 448 709 l 25
 448 0 l 25
 52 0 l 17xe240
136 591 m 0
 136 583 139 575 153 575 c 0
 182 575 194 576 208 576 c 0
 265 576 320 537 320 507 c 0xf0
 320 420 162 384 162 279 c 0
 162 205 222 160 248 160 c 0
 258 160 265 165 265 176 c 0
 265 196 224 207 224 253 c 0xe5
 224 299 290 329 351 401 c 0
 371 425 377 444 377 474 c 0
 377 567 262 653 221 653 c 0
 180 653 136 609 136 591 c 0
192 82 m 0xe880
 192 68 221 35 239 34 c 1
 263 35 288 75 288 82 c 0
 288 98 260 129 241 129 c 0
 227 129 192 102 192 82 c 0xe880
EndSplineSet
Validated: 1
EndChar

StartChar: k
Encoding: 107 107 5
Width: 472
VWidth: 0
Flags: HMW
HStem: 0 32<20 76.9291 145.523 224 389.81 454> 365 27<286 336.991 387.762 446> 705 20G<119 147>
VStem: 77 70<32.9671 165 200 675.99>
AnchorPoint: "cedilla" 241 -93 basechar 0
AnchorPoint: "l;bl" 2 15 basechar 0
AnchorPoint: "l;x" 0 376 basechar 0
AnchorPoint: "l;hi" 0 684 basechar 0
AnchorPoint: "l;o" 0 195 basechar 0
AnchorPoint: "r;bl" 472 15 basechar 0
AnchorPoint: "r;x" 472 376 basechar 0
AnchorPoint: "r;hi" 184 684 basechar 0
AnchorPoint: "r;o" 462 195 basechar 0
LayerCount: 3
Fore
SplineSet
17 699 m 1
 53 706 91 713 147 725 c 1
 147 200 l 1
 330 349 l 2
 335 353 337 356 337 358 c 0
 337 364 324 365 316 365 c 2
 286 365 l 1
 286 392 l 1
 447 392 l 1
 446 365 l 1
 431 365 l 2
 412 365 401 363 376 343 c 2
 234 230 l 1
 383 56 l 2
 402 34 398 32 428 32 c 2
 455 32 l 1
 454 0 l 1
 336 0 l 1
 180 192 l 1
 145 165 l 1
 145 57 l 2
 145 34 151 32 197 32 c 2
 224 32 l 1
 225 0 l 1
 20 0 l 1
 20 32 l 1
 31 32 l 2
 77 32 77 33 77 54 c 2
 77 629 l 2
 77 663 76 676 62 676 c 0
 58 676 38 672 19 667 c 1
 17 699 l 1
EndSplineSet
Layer: 2
SplineSet
17 699 m 5
 53 706 91 713 147 725 c 5
 147 200 l 5
 330 349 l 6
 335 353 337 356 337 358 c 4
 337 364 324 365 316 365 c 6
 286 365 l 5
 286 392 l 5
 447 392 l 5
 446 365 l 5
 431 365 l 6
 412 365 401 363 376 343 c 6
 234 230 l 5
 383 56 l 6
 402 34 398 32 428 32 c 6
 455 32 l 5
 454 0 l 5
 336 0 l 5
 180 192 l 5
 145 165 l 5
 145 57 l 6
 145 29 154 33 224 32 c 5
 225 0 l 5
 20 0 l 5
 20 32 l 5
 76 33 77 30 77 54 c 6
 77 629 l 6
 77 663 76 676 62 676 c 4
 58 676 38 672 19 667 c 5
 17 699 l 5
EndSplineSet
AlternateSubs2: "'aalt' Access All Alternates lookup 0 subtable" k.sc
AlternateSubs2: "'aalt' Access All Alternates in Latin lookup 0 subtable" k.sc
Substitution2: "'smcp' Lowercase to Small Capitals in Latin lookup 8 subtable" k.sc
EndChar

StartChar: n
Encoding: 110 110 6
Width: 463
VWidth: 0
Flags: HMW
HStem: 0 32<18 71.2969 142.938 213 259 314.123 386.892 445> 339 56<205.889 302.856> 382 20G<43.6 141>
VStem: 72 70<33.4473 317.125 331 353.993> 315 70<33.582 326.068>
AnchorPoint: "cedilla" 234 -93 basechar 0
AnchorPoint: "top" 233 488 basechar 0
AnchorPoint: "l;bl" 0 15 basechar 0
AnchorPoint: "l;x" 0 376 basechar 0
AnchorPoint: "l;o" 0 195 basechar 0
AnchorPoint: "r;bl" 463 15 basechar 0
AnchorPoint: "r;x" 419 376 basechar 0
AnchorPoint: "r;o" 453 195 basechar 0
LayerCount: 3
Fore
SplineSet
17 32 m 1xd8
 27 32 l 2
 72 32 72 34 72 66 c 2
 72 304 l 2
 72 345 71 354 57 354 c 0
 49 354 46 352 19 346 c 1
 19 377 l 1
 142 402 l 1xb8
 140 378 139 368 139 331 c 1
 155 338 210 395 290 395 c 0
 384 395 385 313 385 234 c 2
 385 62 l 2
 385 32 399 32 446 32 c 1
 445 0 l 1
 259 0 l 1
 258 32 l 1
 281 32 l 2
 309 32 315 34 315 62 c 2
 315 263 l 2
 315 320 295 339 250 339 c 0
 202 339 142 307 142 307 c 1
 142 66 l 2
 142 35 142 32 202 32 c 2
 215 32 l 1
 213 0 l 1
 18 0 l 1
 17 32 l 1xd8
EndSplineSet
AlternateSubs2: "'aalt' Access All Alternates lookup 0 subtable" n.sc
AlternateSubs2: "'aalt' Access All Alternates in Latin lookup 0 subtable" n.sc
Substitution2: "'smcp' Lowercase to Small Capitals in Latin lookup 8 subtable" n.sc
EndChar

StartChar: a
Encoding: 97 97 7
Width: 390
VWidth: 0
Flags: HW
HStem: -11 54<116.032 198.702> 191 27<173.672 238> 349 47<115.883 227.432>
VStem: 37 70<52.4712 133.749> 45 55<250.669 317.158> 238 70<60.2211 191 218 337.662>
AnchorPoint: "top" 186 488 basechar 0
AnchorPoint: "l;bl" 0 15 basechar 0
AnchorPoint: "l;x" 10 376 basechar 0
AnchorPoint: "l;o" 0 195 basechar 0
AnchorPoint: "r;bl" 390 15 basechar 0
AnchorPoint: "r;x" 370 376 basechar 0
AnchorPoint: "r;o" 390 195 basechar 0
LayerCount: 3
Fore
SplineSet
37 65 m 0xf4
 37 147 125 218 238 218 c 1
 238 278 l 2
 238 317 232 349 171 349 c 0
 101 349 90 318 90 318 c 1
 94 300 100 285 100 274 c 0
 100 258 76 248 68 248 c 0
 48 248 45 272 45 284 c 0xec
 45 306 76 396 220 396 c 0
 243 396 308 389 308 316 c 2
 308 129 l 2
 308 86 315 54 373 38 c 0
 380 36 382 33 382 30 c 0
 382 27 380 23 373 19 c 0
 350 4 316 -16 313 -17 c 1
 278 8 267 27 246 53 c 1
 220 18 173 -11 129 -11 c 0
 87 -11 37 11 37 65 c 0xf4
107 94 m 0xf4
 107 67 123 43 167 43 c 0
 226 43 238 76 238 98 c 2
 238 191 l 1
 155 191 107 138 107 94 c 0xf4
EndSplineSet
AlternateSubs2: "'aalt' Access All Alternates lookup 0 subtable" a.sc
AlternateSubs2: "'aalt' Access All Alternates in Latin lookup 0 subtable" a.sc
Substitution2: "'smcp' Lowercase to Small Capitals in Latin lookup 8 subtable" a.sc
EndChar

StartChar: h
Encoding: 104 104 8
Width: 464
VWidth: 0
Flags: HMW
HStem: 0 32<19 74.414 145.666 213 255 316.721 388.667 447> 339 56<216.618 300.855> 706 20G<116 145>
VStem: 75 70<33.4526 307.251 321 678.996> 318 70<33.3887 319.658>
AnchorPoint: "top" 251 732 basechar 0
AnchorPoint: "r;o" 454 195 basechar 0
AnchorPoint: "r;x" 410 376 basechar 0
AnchorPoint: "r;bl" 464 15 basechar 0
AnchorPoint: "l;o" 0 195 basechar 0
AnchorPoint: "l;x" 0 376 basechar 0
AnchorPoint: "l;bl" 0 15 basechar 0
AnchorPoint: "l;hi" 0 684 basechar 0
AnchorPoint: "r;hi" 173 684 basechar 0
LayerCount: 3
Fore
SplineSet
59 679 m 0
 53 679 30 675 18 673 c 1
 18 708 l 1
 49 711 87 717 145 726 c 1
 145 321 l 1
 171 342 228 395 292 395 c 0
 386 395 388 313 388 234 c 2
 388 61 l 2
 388 34 390 32 431 32 c 2
 447 32 l 1
 447 0 l 1
 255 0 l 1
 254 32 l 1
 270 32 l 2
 308 32 318 34 318 60 c 2
 318 263 l 2
 318 322 280 339 250 339 c 0
 199 339 145 291 145 291 c 1
 145 55 l 2
 145 34 155 32 196 32 c 2
 214 32 l 1
 213 0 l 1
 19 0 l 1
 18 32 l 1
 29 32 l 2
 63 32 75 33 75 55 c 2
 75 649 l 2
 75 673 70 679 59 679 c 0
EndSplineSet
Layer: 2
SplineSet
59 679 m 4
 53 679 30 675 18 673 c 5
 18 708 l 5
 49 711 87 717 145 726 c 5
 145 321 l 5
 171 342 228 395 292 395 c 4
 386 395 388 313 388 234 c 6
 388 61 l 6
 388 28 393 33 447 32 c 5
 447 0 l 5
 255 0 l 5
 254 32 l 5
 305 33 318 30 318 60 c 6
 318 263 l 6
 318 322 280 339 250 339 c 4
 199 339 145 291 145 291 c 5
 145 55 l 6
 145 27 163 35 214 32 c 5
 213 0 l 5
 19 0 l 5
 18 32 l 5
 59 33 75 30 75 55 c 6
 75 649 l 6
 75 673 70 679 59 679 c 4
EndSplineSet
AlternateSubs2: "'aalt' Access All Alternates lookup 0 subtable" h.sc
AlternateSubs2: "'aalt' Access All Alternates in Latin lookup 0 subtable" h.sc
Substitution2: "'smcp' Lowercase to Small Capitals in Latin lookup 8 subtable" h.sc
EndChar

StartChar: f
Encoding: 102 102 9
Width: 285
VWidth: 0
Flags: HW
HStem: 0 32<28 89.209 160.884 236> 344 48<29 90 160 261> 683 41<194.528 292>
VStem: 90 70<33.6049 344 392 620.531>
AnchorPoint: "l;bl" 10 15 basechar 0
AnchorPoint: "l;x" 0 376 basechar 0
AnchorPoint: "l;hi" 58 684 basechar 0
AnchorPoint: "l;o" 10 195 basechar 0
AnchorPoint: "r;bl" 250 15 basechar 0
AnchorPoint: "r;x" 285 376 basechar 0
AnchorPoint: "r;k;hi" 355 684 basechar 0
AnchorPoint: "r;o" 260 195 basechar 0
LayerCount: 3
Fore
SplineSet
17 344 m 1
 29 392 l 1
 90 392 l 1
 90 500 l 2
 90 555 93 644 188 703 c 0
 212 718 243 724 271 724 c 0
 313 724 348 711 348 688 c 0
 348 672 316 623 296 623 c 0
 279 623 272 683 235 683 c 0
 164 683 160 552 160 524 c 2
 160 392 l 1
 272 392 l 1
 261 344 l 1
 160 344 l 1
 160 62 l 2
 160 35 162 32 223 32 c 2
 237 32 l 1
 236 0 l 1
 28 0 l 1
 27 32 l 1
 48 32 l 2
 84 32 90 35 90 59 c 2
 90 344 l 1
 17 344 l 1
EndSplineSet
Layer: 2
SplineSet
17 344 m 5
 29 392 l 5
 90 392 l 5
 90 500 l 6
 90 555 93 644 188 703 c 4
 212 718 243 724 271 724 c 4
 313 724 348 711 348 688 c 4
 348 672 316 623 296 623 c 4
 279 623 272 683 235 683 c 4
 164 683 160 552 160 524 c 6
 160 392 l 5
 272 392 l 5
 261 344 l 5
 160 344 l 5
 160 62 l 6
 160 27 170 34 237 32 c 5
 236 0 l 5
 28 0 l 5
 27 32 l 5
 77 34 90 27 90 59 c 6
 90 344 l 5
 17 344 l 5
EndSplineSet
AlternateSubs2: "'aalt' Access All Alternates lookup 0 subtable" f.sc
AlternateSubs2: "'aalt' Access All Alternates in Latin lookup 0 subtable" f.sc
Substitution2: "'smcp' Lowercase to Small Capitals in Latin lookup 8 subtable" f.sc
EndChar

StartChar: e
Encoding: 101 101 10
Width: 413
VWidth: 0
Flags: HMW
HStem: -13 68<168.068 299.818> 365 34<147.217 230.629>
VStem: 24 75<124.243 226 261 290.703> 274 93<271 283>
AnchorPoint: "top" 201 488 basechar 0
AnchorPoint: "l;bl" 39 15 basechar 0
AnchorPoint: "l;x" 39 376 basechar 0
AnchorPoint: "l;o" 0 195 basechar 0
AnchorPoint: "r;bl" 384 15 basechar 0
AnchorPoint: "r;x" 374 376 basechar 0
AnchorPoint: "r;o" 413 195 basechar 0
LayerCount: 3
Fore
SplineSet
24 183 m 0
 24 313 102 399 201 399 c 0
 310 399 367 306 367 271 c 0
 367 260 355 256 351 256 c 2
 100 226 l 1
 100 223 99 217 99 212 c 0
 99 111 163 55 247 55 c 0
 326 55 363 102 380 102 c 0
 385 102 389 99 389 90 c 0
 389 71 315 -13 207 -13 c 0
 66 -13 24 106 24 183 c 0
102 261 m 1
 274 283 l 1
 274 283 246 365 191 365 c 0
 151 365 113 327 102 261 c 1
EndSplineSet
AlternateSubs2: "'aalt' Access All Alternates lookup 0 subtable" e.sc
AlternateSubs2: "'aalt' Access All Alternates in Latin lookup 0 subtable" e.sc
Substitution2: "'smcp' Lowercase to Small Capitals in Latin lookup 8 subtable" e.sc
EndChar

StartChar: d
Encoding: 100 100 11
Width: 512
VWidth: 0
Flags: HMW
HStem: -12 57<176.374 287.313> 18 27<452.439 495> 364 31<165.119 286.289> 711 20G<373.5 419>
VStem: 24 73<130.437 277.867> 349 70<27.0081 62.8579 67.8043 321.667 351 676.995>
AnchorPoint: "commaright" 497 654 basechar 0
AnchorPoint: "l;bl" 20 15 basechar 0
AnchorPoint: "l;x" 20 376 basechar 0
AnchorPoint: "l;hi" 166 684 basechar 0
AnchorPoint: "l;o" 0 195 basechar 0
AnchorPoint: "r;bl" 512 15 basechar 0
AnchorPoint: "r;x" 497 376 basechar 0
AnchorPoint: "r;hi" 497 684 basechar 0
AnchorPoint: "r;o" 497 195 basechar 0
LayerCount: 3
Fore
SplineSet
24 185 m 0xbc
 24 305 124 395 220 395 c 0
 296 395 349 351 349 351 c 1
 349 649 l 2
 349 670 345 677 335 677 c 0
 328 677 309 673 269 664 c 1
 267 695 l 1
 316 704 328 707 419 731 c 1
 419 70 l 2
 419 38 420 27 432 27 c 0
 442 27 461 36 495 45 c 1
 495 18 l 1x7c
 463 9 436 0 351 -26 c 1
 351 9 352 32 352 47 c 0
 352 55 352 60 351 63 c 1
 350 62 296 -12 202 -12 c 0
 105 -12 24 67 24 185 c 0xbc
97 220 m 0
 97 129 156 45 254 45 c 0xbc
 314 45 349 85 349 85 c 1
 349 300 l 1
 349 300 302 364 220 364 c 0
 152 364 97 304 97 220 c 0
EndSplineSet
AlternateSubs2: "'aalt' Access All Alternates lookup 0 subtable" d.sc
AlternateSubs2: "'aalt' Access All Alternates in Latin lookup 0 subtable" d.sc
Substitution2: "'smcp' Lowercase to Small Capitals in Latin lookup 8 subtable" d.sc
EndChar

StartChar: c
Encoding: 99 99 12
Width: 403
VWidth: 0
Flags: HW
HStem: -13 60<164.393 307.907> 361 40<141.139 237.509>
VStem: 24 71<115.809 287.002>
AnchorPoint: "cedilla" 212 -93 basechar 0
AnchorPoint: "top" 208 488 basechar 0
AnchorPoint: "l;bl" 0 15 basechar 0
AnchorPoint: "l;x" 20 376 basechar 0
AnchorPoint: "l;o" 0 195 basechar 0
AnchorPoint: "r;bl" 403 15 basechar 0
AnchorPoint: "r;x" 388 376 basechar 0
AnchorPoint: "r;o" 396 195 basechar 0
LayerCount: 3
Fore
SplineSet
24 182 m 0
 24 290 87 401 208 401 c 0
 302 401 361 350 361 335 c 0
 361 314 308 305 300 305 c 0
 268 305 234 361 190 361 c 0
 114 361 95 261 95 206 c 0
 95 84 180 47 241 47 c 0
 332 47 355 71 370 71 c 0
 376 71 378 66 378 62 c 0
 378 41 295 -13 212 -13 c 0
 62 -13 24 89 24 182 c 0
EndSplineSet
AlternateSubs2: "'aalt' Access All Alternates lookup 0 subtable" c.sc
AlternateSubs2: "'aalt' Access All Alternates in Latin lookup 0 subtable" c.sc
Substitution2: "'smcp' Lowercase to Small Capitals in Latin lookup 8 subtable" c.sc
EndChar

StartChar: b
Encoding: 98 98 13
Width: 505
VWidth: 0
Flags: HMW
HStem: -9 36<191.133 339.553> -2 21G<91.5 101.5> 345 54<214.911 342.079> 703 20G<131 156>
VStem: 86 70<54.4414 322.199 336 674.994> 408 72<111.898 275.2>
AnchorPoint: "l;bl" 24 15 basechar 0
AnchorPoint: "l;x" 24 376 basechar 0
AnchorPoint: "l;hi" 0 684 basechar 0
AnchorPoint: "l;o" 24 195 basechar 0
AnchorPoint: "r;bl" 485 15 basechar 0
AnchorPoint: "r;x" 485 376 basechar 0
AnchorPoint: "r;hi" 212 684 basechar 0
AnchorPoint: "r;o" 505 195 basechar 0
LayerCount: 3
Fore
SplineSet
12 695 m 1x7c
 59 703 106 713 156 723 c 1
 156 336 l 1
 171 347 222 399 297 399 c 0
 422 399 480 308 480 212 c 0
 480 104 407 -9 274 -9 c 0xbc
 205 -9 155 21 140 21 c 0
 125 21 109 -2 94 -2 c 0
 89 -2 83 3 83 21 c 0
 83 35 86 75 86 155 c 2
 86 645 l 2
 86 667 81 675 72 675 c 0
 66 675 60 674 15 664 c 1
 12 695 l 1x7c
156 98 m 2
 156 50 214 27 263 27 c 0
 318 27 408 49 408 176 c 0
 408 333 297 345 271 345 c 0
 197 345 156 308 156 308 c 1
 156 98 l 2
EndSplineSet
Layer: 2
SplineSet
12 695 m 5x7c
 59 703 106 713 156 723 c 5
 156 336 l 5
 171 347 222 399 297 399 c 4
 422 399 480 308 480 212 c 4
 480 104 407 -9 274 -9 c 4xbc
 205 -9 155 21 140 21 c 4
 125 21 109 -2 94 -2 c 4
 89 -2 83 3 83 21 c 4
 83 35 86 75 86 155 c 6
 86 646 l 6
 86 668 81 675 72 675 c 4
 66 675 60 674 15 664 c 5
 12 695 l 5x7c
156 98 m 6
 156 50 214 27 263 27 c 4
 318 27 408 49 408 176 c 4
 408 333 297 345 271 345 c 4
 197 345 156 308 156 308 c 5
 156 98 l 6
EndSplineSet
AlternateSubs2: "'aalt' Access All Alternates lookup 0 subtable" b.sc
AlternateSubs2: "'aalt' Access All Alternates in Latin lookup 0 subtable" b.sc
Substitution2: "'smcp' Lowercase to Small Capitals in Latin lookup 8 subtable" b.sc
EndChar

StartChar: g
Encoding: 103 103 14
Width: 446
VWidth: 0
Flags: HMW
HStem: -263 46<97.9643 276.818> -20 62<106.523 131 142.199 325.167> 103 31<159.226 234.464> 363 37<146.039 230.81>
VStem: -8 77<-188.722 -90.5777> 33 83<172.672 321.74> 34 71<17 81.2912> 270 85<173.521 306.961> 354 70<-143.235 -46.8187>
AnchorPoint: "top" 191 488 basechar 0
AnchorPoint: "l;bl" 0 15 basechar 0
AnchorPoint: "l;x" 20 376 basechar 0
AnchorPoint: "l;o" 0 195 basechar 0
AnchorPoint: "l;k;lo" -15 -246 basechar 0
AnchorPoint: "r;bl" 436 15 basechar 0
AnchorPoint: "r;x" 446 376 basechar 0
AnchorPoint: "r;o" 436 195 basechar 0
AnchorPoint: "r;lo" 380 -244 basechar 0
LayerCount: 3
Fore
SplineSet
-8 -153 m 0xf880
 -8 -52 131 -20 131 -20 c 1
 131 -20 34 -8 34 42 c 0xf2
 34 94 127 113 127 113 c 1
 127 113 33 141 33 249 c 0xf4
 33 331 109 400 191 400 c 0
 275 400 272 359 337 359 c 0
 386 359 385 378 394 393 c 1
 415 393 l 1
 415 368 l 2
 415 321 413 314 375 314 c 2
 359 314 l 2
 338 314 332 314 332 311 c 0
 332 303 355 289 355 242 c 0
 355 169 289 103 191 103 c 0
 138 103 105 89 105 67 c 0xf3
 105 42 138 42 170 42 c 2
 174 42 l 2
 195 42 218 43 242 43 c 0
 373 43 424 0 424 -69 c 0
 424 -163 316 -263 155 -263 c 0
 80 -263 -8 -229 -8 -153 c 0xf880
354 -96 m 0xf880
 354 -33 291 -22 229 -22 c 0
 132 -22 69 -86 69 -141 c 0
 69 -182 103 -217 185 -217 c 0
 264 -217 354 -177 354 -96 c 0xf880
270 239 m 0xf5
 270 321 228 363 188 363 c 0
 151 363 116 327 116 256 c 0
 116 175 159 134 199 134 c 0
 235 134 270 168 270 239 c 0xf5
EndSplineSet
Layer: 2
SplineSet
-8 -153 m 4xf880
 -8 -52 131 -20 131 -20 c 5
 131 -20 34 -8 34 42 c 4xf2
 34 94 127 113 127 113 c 5
 127 113 33 141 33 249 c 4xf4
 33 331 109 400 191 400 c 4
 275 400 272 359 337 359 c 4
 386 359 385 378 394 393 c 5
 415 393 l 5
 415 368 l 6
 415 321 413 314 375 314 c 6
 359 314 l 6
 338 314 332 314 332 311 c 4
 332 303 355 289 355 242 c 4
 355 169 289 103 191 103 c 4
 138 103 105 89 105 67 c 4xf3
 105 42 138 42 170 42 c 6
 174 42 l 6
 195 42 218 43 242 43 c 4
 373 43 424 0 424 -69 c 4
 424 -163 316 -263 155 -263 c 4
 80 -263 -8 -229 -8 -153 c 4xf880
67 -135 m 4xf880
 67 -161 76 -216 192 -216 c 4
 289 -216 354 -149 354 -96 c 4
 354 -37 291 -23 229 -23 c 4
 147 -23 67 -79 67 -135 c 4xf880
115 252 m 4xf5
 115 194 151 134 197 134 c 4
 248 134 271 193 271 245 c 4
 271 298 237 359 191 359 c 4
 140 359 115 306 115 252 c 4xf5
EndSplineSet
AlternateSubs2: "'aalt' Access All Alternates lookup 0 subtable" g.sc
AlternateSubs2: "'aalt' Access All Alternates in Latin lookup 0 subtable" g.sc
Substitution2: "'smcp' Lowercase to Small Capitals in Latin lookup 8 subtable" g.sc
EndChar

StartChar: r
Encoding: 114 114 15
Width: 342
VWidth: 0
Flags: HMW
HStem: 0 32<32 93.3529 167.753 271> 313 82<222.368 290.845> 386 20G<100 163>
VStem: 95 70<34.2967 285.745 293 352.993>
AnchorPoint: "top" 195 488 basechar 0
AnchorPoint: "l;bl" 0 15 basechar 0
AnchorPoint: "l;x" 0 376 basechar 0
AnchorPoint: "l;o" 0 195 basechar 0
AnchorPoint: "r;bl" 342 15 basechar 0
AnchorPoint: "r;x" 342 376 basechar 0
AnchorPoint: "r;o" 342 195 basechar 0
LayerCount: 3
Fore
SplineSet
17 373 m 1xd0
 59 381 37 375 163 406 c 1xb0
 163 293 l 1
 166 297 212 395 270 395 c 0
 312 395 325 370 325 370 c 1
 287 271 l 1
 271 277 l 1
 271 290 l 2
 271 306 261 313 247 313 c 0
 215 313 165 281 165 242 c 2
 165 73 l 2
 165 36 170 32 228 32 c 2
 271 32 l 1
 271 0 l 1
 32 0 l 1
 32 32 l 1
 51 32 l 2
 92 32 95 34 95 73 c 2
 95 317 l 2
 95 344 93 353 81 353 c 0
 72 353 41 346 20 342 c 1
 17 373 l 1xd0
EndSplineSet
Layer: 2
SplineSet
17 373 m 5xd0
 59 381 37 375 163 406 c 5xb0
 163 293 l 5
 166 297 212 395 270 395 c 4
 312 395 325 370 325 370 c 5
 287 271 l 5
 271 277 l 5
 271 280 271 285 271 290 c 4
 271 306 261 313 247 313 c 4
 215 313 165 281 165 242 c 6
 165 73 l 6
 165 25 176 34 271 32 c 5
 271 0 l 5
 32 0 l 5
 32 32 l 5
 92 33 95 29 95 73 c 6
 95 317 l 6
 95 344 93 353 81 353 c 4
 72 353 41 346 20 342 c 5
 17 373 l 5xd0
EndSplineSet
AlternateSubs2: "'aalt' Access All Alternates lookup 0 subtable" r.sc
AlternateSubs2: "'aalt' Access All Alternates in Latin lookup 0 subtable" r.sc
Substitution2: "'smcp' Lowercase to Small Capitals in Latin lookup 8 subtable" r.sc
EndChar

StartChar: s
Encoding: 115 115 16
Width: 347
VWidth: 0
Flags: HMW
HStem: -13 34<102.955 213.861> 360 36<130.772 246.073> 388 20G<269 301>
VStem: 22 31<84.9 141> 40 28<-23 -0.00437546> 51 66<270.632 347.884> 231 74<33.4498 125.509> 269 32<256 338.172 378.007 407>
AnchorPoint: "cedilla" 175 -93 basechar 0
AnchorPoint: "top" 173 488 basechar 0
AnchorPoint: "l;bl" 5 15 basechar 0
AnchorPoint: "l;x" 24 376 basechar 0
AnchorPoint: "l;o" 0 195 basechar 0
AnchorPoint: "r;bl" 322 15 basechar 0
AnchorPoint: "r;x" 347 376 basechar 0
AnchorPoint: "r;o" 347 195 basechar 0
LayerCount: 3
Fore
SplineSet
22 141 m 1xd0
 53 143 l 1xd0
 63 60 l 1
 63 60 116 21 173 21 c 0
 213 21 231 52 231 78 c 0
 231 115 199 137 162 161 c 2
 126 185 l 2
 85 212 51 245 51 296 c 0
 51 350 104 396 173 396 c 0xc6
 223 396 250 378 260 378 c 0
 268 378 269 387 269 408 c 1xa5
 301 407 l 1
 301 256 l 1
 269 256 l 1
 268 327 l 1
 268 327 236 360 174 360 c 0
 146 360 117 339 117 312 c 0xc5
 117 281 142 266 172 245 c 2
 217 215 l 2
 264 183 305 153 305 100 c 0
 305 41 262 -13 175 -13 c 0
 129 -13 84 0 77 0 c 0
 70 0 68 -6 68 -13 c 0
 68 -16 69 -19 69 -23 c 1
 40 -25 l 1xca
 22 141 l 1xd0
EndSplineSet
Layer: 2
SplineSet
21.97265625 140.625 m 5xf8
 53.22265625 143.06640625 l 5
 63.4765625 59.5703125 l 5
 63.4765625 59.5703125 116.2109375 20.99609375 173.33984375 20.99609375 c 4
 212.890625 20.99609375 231.4453125 51.7578125 231.4453125 78.125 c 4xf8
 231.4453125 165.52734375 52.734375 182.12890625 52.734375 295.8984375 c 4
 52.734375 345.703125 103.515625 396.484375 172.8515625 396.484375 c 4
 222.65625 396.484375 249.51171875 378.41796875 259.765625 378.41796875 c 4
 268.06640625 378.41796875 268.06640625 387.20703125 268.5546875 407.71484375 c 5
 301.26953125 407.2265625 l 5
 300.78125 256.34765625 l 5
 269.04296875 255.859375 l 5xf4
 267.578125 326.66015625 l 5
 267.578125 326.66015625 235.83984375 360.3515625 174.31640625 360.3515625 c 4
 145.99609375 360.3515625 116.69921875 339.35546875 116.69921875 312.5 c 4
 116.69921875 274.4140625 155.76171875 258.7890625 194.3359375 229.4921875 c 4
 250.48828125 187.5 305.17578125 163.57421875 305.17578125 100.09765625 c 4
 305.17578125 41.50390625 262.20703125 -12.6953125 174.8046875 -12.6953125 c 4
 128.41796875 -12.6953125 84.47265625 -0.48828125 77.1484375 -0.48828125 c 4
 70.3125 -0.48828125 68.359375 -5.859375 68.359375 -12.6953125 c 4
 68.359375 -16.11328125 68.84765625 -19.53125 69.3359375 -23.4375 c 5
 39.55078125 -24.90234375 l 5
 21.97265625 140.625 l 5xf8
300.29296875 100.09765625 m 0
 300.29296875 41.50390625 257.32421875 -12.6953125 169.921875 -12.6953125 c 0
 127.9296875 -12.6953125 62.01171875 1.953125 62.01171875 1.953125 c 1
 64.453125 -23.4375 l 1
 34.66796875 -24.90234375 l 1
 17.08984375 140.625 l 1
 48.33984375 143.06640625 l 1
 58.59375 59.5703125 l 1
 58.59375 59.5703125 111.328125 20.99609375 168.45703125 20.99609375 c 0
 208.0078125 20.99609375 226.5625 51.7578125 226.5625 78.125 c 0
 226.5625 165.52734375 47.8515625 182.12890625 47.8515625 295.8984375 c 0
 47.8515625 345.703125 98.6328125 396.484375 167.96875 396.484375 c 0
 211.9140625 396.484375 264.16015625 373.046875 264.16015625 373.046875 c 1
 263.671875 407.71484375 l 1
 296.38671875 407.2265625 l 1
 295.8984375 256.34765625 l 1
 264.16015625 255.859375 l 1
 262.6953125 326.66015625 l 1
 262.6953125 326.66015625 230.95703125 360.3515625 169.43359375 360.3515625 c 0
 141.11328125 360.3515625 111.81640625 339.35546875 111.81640625 312.5 c 0
 111.81640625 274.4140625 150.87890625 258.7890625 189.453125 229.4921875 c 0
 245.60546875 187.5 300.29296875 163.57421875 300.29296875 100.09765625 c 0
EndSplineSet
AlternateSubs2: "'aalt' Access All Alternates lookup 0 subtable" longs s.sc
AlternateSubs2: "'aalt' Access All Alternates in Latin lookup 0 subtable" longs s.sc
Substitution2: "'hist' Historical Forms in Latin lookup 10 subtable" longs
Substitution2: "'smcp' Lowercase to Small Capitals in Latin lookup 8 subtable" s.sc
EndChar

StartChar: o
Encoding: 111 111 17
Width: 458
VWidth: 0
Flags: HW
HStem: -15 39<182.917 297.218> 367 34<162.506 274.023>
VStem: 25 80<115.943 294.974> 349 84<90.9094 288.397>
AnchorPoint: "top" 223 488 basechar 0
AnchorPoint: "l;bl" 40 15 basechar 0
AnchorPoint: "l;x" 40 376 basechar 0
AnchorPoint: "l;o" 0 195 basechar 0
AnchorPoint: "r;bl" 418 15 basechar 0
AnchorPoint: "r;x" 418 376 basechar 0
AnchorPoint: "r;o" 458 195 basechar 0
LayerCount: 3
Fore
SplineSet
25 195 m 0
 25 299 86 401 223 401 c 0
 391 401 433 272 433 184 c 0
 433 72 353 -15 225 -15 c 0
 90 -15 25 94 25 195 c 0
105 219 m 0
 105 127 156 24 238 24 c 0
 320 24 349 104 349 187 c 0
 349 308 286 367 214 367 c 0
 156 367 105 317 105 219 c 0
EndSplineSet
AlternateSubs2: "'aalt' Access All Alternates lookup 0 subtable" o.sc
AlternateSubs2: "'aalt' Access All Alternates in Latin lookup 0 subtable" o.sc
Substitution2: "'smcp' Lowercase to Small Capitals in Latin lookup 8 subtable" o.sc
EndChar

StartChar: w
Encoding: 119 119 18
Width: 789
VWidth: 0
Flags: HW
HStem: -18 22G<238 268 515 546.651> 360 32<17 81.0344 166.041 226 286 364.552 447.01 500 594 663.992 714.505 771>
AnchorPoint: "top" 393 488 basechar 0
AnchorPoint: "r;o" 745 195 basechar 0
AnchorPoint: "r;x" 789 376 basechar 0
AnchorPoint: "r;bl" 691 15 basechar 0
AnchorPoint: "l;o" 39 195 basechar 0
AnchorPoint: "l;x" 0 376 basechar 0
AnchorPoint: "l;bl" 93 15 basechar 0
LayerCount: 3
Fore
SplineSet
17 360 m 1
 17 392 l 1
 227 392 l 1
 226 360 l 1
 196 360 l 2
 180 360 166 358 166 343 c 0
 166 334 171 323 176 311 c 2
 269 94 l 1
 375 325 l 1
 362 356 350 360 323 360 c 2
 286 360 l 1
 284 392 l 1
 500 392 l 1
 500 360 l 1
 461 360 447 359 447 345 c 0
 447 339 451 329 456 316 c 2
 549 95 l 1
 656 321 l 2
 661 332 664 340 664 346 c 0
 664 357 653 360 620 360 c 2
 594 360 l 1
 594 392 l 1
 771 392 l 1
 772 360 l 1
 742 360 719 360 703 327 c 2
 537 -17 l 1
 515 -16 l 1
 394 282 l 1
 259 -18 l 1
 238 -17 l 1
 99 306 l 2
 76 360 80 360 17 360 c 1
EndSplineSet
Layer: 2
SplineSet
17 360 m 5
 17 392 l 5
 227 392 l 5
 226 360 l 5
 196 360 l 6
 180 360 166 358 166 343 c 4
 166 334 171 323 176 311 c 6
 269 94 l 5
 375 325 l 5
 362 356 350 360 323 360 c 6
 286 360 l 5
 284 392 l 5
 500 392 l 5
 500 360 l 5
 461 360 447 359 447 345 c 4
 447 339 451 329 456 316 c 6
 549 95 l 5
 656 321 l 6
 661 332 664 340 664 346 c 4
 664 357 653 360 620 360 c 6
 594 360 l 5
 594 392 l 5
 771 392 l 5
 772 360 l 5
 739 359 719 360 703 327 c 6
 537 -17 l 5
 515 -16 l 5
 394 282 l 5
 259 -18 l 5
 238 -17 l 5
 99 306 l 6
 77 358 82 360 17 360 c 5
EndSplineSet
AlternateSubs2: "'aalt' Access All Alternates lookup 0 subtable" w.sc
AlternateSubs2: "'aalt' Access All Alternates in Latin lookup 0 subtable" w.sc
Substitution2: "'smcp' Lowercase to Small Capitals in Latin lookup 8 subtable" w.sc
EndChar

StartChar: u
Encoding: 117 117 19
Width: 462
VWidth: 0
Flags: HMW
HStem: -15 62<160.398 258.627> 11 32<400.426 445> 382 20G<114 139 354.5 382>
VStem: 69 70<68.8374 359.997> 312 70<32.7257 50 65.1097 358.998>
AnchorPoint: "top" 221 488 basechar 0
AnchorPoint: "l;bl" 24 15 basechar 0
AnchorPoint: "l;x" 0 376 basechar 0
AnchorPoint: "l;o" 5 195 basechar 0
AnchorPoint: "r;bl" 462 15 basechar 0
AnchorPoint: "r;x" 462 376 basechar 0
AnchorPoint: "r;o" 462 195 basechar 0
LayerCount: 3
Fore
SplineSet
17 357 m 1xb8
 17 387 l 1
 49 390 89 393 139 402 c 1
 139 152 l 2
 139 93 147 47 222 47 c 0xb8
 289 47 312 85 312 85 c 1
 312 329 l 2
 312 356 305 359 292 359 c 0
 278 359 249 355 248 354 c 1
 245 385 l 1
 289 388 327 393 382 402 c 1
 382 111 l 2
 382 37 385 32 400 32 c 0
 409 32 424 37 445 43 c 1
 445 11 l 1x78
 401 2 366 -9 322 -21 c 1
 321 2 319 25 315 50 c 1
 315 50 255 -15 187 -15 c 0
 87 -15 69 62 69 138 c 2
 69 335 l 2
 69 356 64 360 50 360 c 0
 42 360 31 358 17 357 c 1xb8
EndSplineSet
Layer: 2
SplineSet
16 357 m 5xb8
 16 387 l 5
 48 390 89 393 139 402 c 5
 139 152 l 6
 139 93 147 47 222 47 c 4xb8
 289 47 311 85 311 85 c 5
 311 329 l 6
 311 356 304 359 291 359 c 4
 277 359 248 355 247 354 c 5
 244 385 l 5
 288 388 327 393 382 402 c 5
 382 111 l 6
 382 37 385 32 400 32 c 4
 409 32 424 37 445 43 c 5
 445 11 l 5x78
 401 2 365 -9 321 -21 c 5
 320 2 318 25 314 50 c 5
 314 50 255 -15 187 -15 c 4
 87 -15 68 62 68 138 c 6
 68 335 l 6
 68 356 63 360 49 360 c 4
 41 360 30 358 16 357 c 5xb8
EndSplineSet
AlternateSubs2: "'aalt' Access All Alternates lookup 0 subtable" u.sc
AlternateSubs2: "'aalt' Access All Alternates in Latin lookup 0 subtable" u.sc
Substitution2: "'smcp' Lowercase to Small Capitals in Latin lookup 8 subtable" u.sc
EndChar

StartChar: t
Encoding: 116 116 20
Width: 316
VWidth: 0
Flags: HW
HStem: -11 56<163.977 256.883> 337 48<152 281>
VStem: 82 70<59.2477 337>
AnchorPoint: "commaright" 238 654 basechar 0
AnchorPoint: "cedilla" 180 -93 basechar 0
AnchorPoint: "l;bl" 34 15 basechar 0
AnchorPoint: "l;x" 0 376 basechar 0
AnchorPoint: "l;o" 15 195 basechar 0
AnchorPoint: "r;bl" 316 15 basechar 0
AnchorPoint: "r;x" 316 376 basechar 0
AnchorPoint: "r;o" 316 195 basechar 0
LayerCount: 3
Fore
SplineSet
22 345 m 0
 22 352 56 386 79 412 c 0
 108 445 140 491 146 491 c 0
 150 491 152 488 152 484 c 2
 152 385 l 1
 287 385 l 1
 281 337 l 1
 152 337 l 1
 152 104 l 2
 152 58 187 45 219 45 c 0
 259 45 287 64 292 64 c 0
 298 64 299 57 299 54 c 0
 299 27 232 -11 180 -11 c 0
 109 -11 82 37 82 96 c 2
 82 337 l 1
 34 337 l 2
 25 337 22 339 22 345 c 0
EndSplineSet
AlternateSubs2: "'aalt' Access All Alternates lookup 0 subtable" t.sc
AlternateSubs2: "'aalt' Access All Alternates in Latin lookup 0 subtable" t.sc
Substitution2: "'smcp' Lowercase to Small Capitals in Latin lookup 8 subtable" t.sc
EndChar

StartChar: y
Encoding: 121 121 21
Width: 469
VWidth: 0
Flags: HW
HStem: -259 87<12.1143 99.4453> 360 32<19 70.6642 154.009 206 289 346.99 391.086 452>
AnchorPoint: "top" 239 488 basechar 0
AnchorPoint: "l;bl" 59 15 basechar 0
AnchorPoint: "l;x" 0 376 basechar 0
AnchorPoint: "l;o" 29 195 basechar 0
AnchorPoint: "l;lo" 0 -244 basechar 0
AnchorPoint: "r;bl" 352 15 basechar 0
AnchorPoint: "r;x" 469 376 basechar 0
AnchorPoint: "r;o" 416 195 basechar 0
AnchorPoint: "r;lo" 186 -244 basechar 0
LayerCount: 3
Fore
SplineSet
7 -214 m 0
 7 -184 24 -172 45 -172 c 0
 50 -172 66 -174 74 -174 c 0
 94 -174 123 -139 184 -21 c 2
 214 37 l 1
 89 306 l 2
 65 358 71 360 19 360 c 1
 17 392 l 1
 208 392 l 1
 206 360 l 1
 189 360 l 2
 166 360 154 359 154 346 c 0
 154 337 161 323 166 311 c 2
 251 120 l 1
 314 262 l 2
 333 304 347 336 347 346 c 0
 347 359 334 360 303 360 c 2
 289 360 l 1
 289 392 l 1
 452 392 l 1
 452 360 l 1
 428 360 l 2
 393 360 395 354 374 307 c 2
 222 -29 l 2
 119 -256 82 -259 47 -259 c 0
 22 -259 7 -239 7 -214 c 0
EndSplineSet
Layer: 2
SplineSet
7 -214 m 4
 7 -184 24 -172 45 -172 c 4
 50 -172 66 -174 74 -174 c 4
 94 -174 123 -139 184 -21 c 6
 214 37 l 5
 89 306 l 6
 65 358 71 360 19 360 c 5
 17 392 l 5
 208 392 l 5
 206 360 l 5
 170 359 154 362 154 346 c 4
 154 337 161 323 166 311 c 6
 251 120 l 5
 314 262 l 6
 333 304 347 336 347 346 c 4
 347 362 327 359 289 360 c 5
 289 392 l 5
 452 392 l 5
 452 360 l 5
 428 360 l 6
 393 360 395 354 374 307 c 6
 222 -29 l 6
 119 -256 82 -259 47 -259 c 4
 22 -259 7 -239 7 -214 c 4
EndSplineSet
AlternateSubs2: "'aalt' Access All Alternates lookup 0 subtable" y.sc
AlternateSubs2: "'aalt' Access All Alternates in Latin lookup 0 subtable" y.sc
Substitution2: "'smcp' Lowercase to Small Capitals in Latin lookup 8 subtable" y.sc
EndChar

StartChar: quoteright
Encoding: 8217 8217 22
Width: 243
VWidth: 0
Flags: HW
HStem: 468 212<81 124>
VStem: 131 59<530.73 606.23>
AnchorPoint: "l;x" 0 376 basechar 0
AnchorPoint: "l;hi" 0 684 basechar 0
AnchorPoint: "l;o" 0 195 basechar 0
AnchorPoint: "r;x" 243 376 basechar 0
AnchorPoint: "r;hi" 243 684 basechar 0
AnchorPoint: "r;o" 243 195 basechar 0
LayerCount: 3
Fore
SplineSet
69 477 m 0
 69 501 131 505 131 567 c 0
 131 617 80 608 80 624 c 0
 80 626 82 629 84 633 c 2
 108 668 l 2
 110 671 118 680 124 680 c 0
 129 680 137 675 152 666 c 0
 173 653 190 646 190 602 c 0
 190 519 110 468 81 468 c 0
 74 468 69 471 69 477 c 0
EndSplineSet
EndChar

StartChar: G
Encoding: 71 71 23
Width: 794
VWidth: 0
Flags: HMW
HStem: -23 49<327.689 552.071> 260 39<491 610 691 766> 630 48<308.341 558.046>
VStem: 54 90<222.332 418.927> 610 81<64.7957 260> 638 40<476 580.361 632 682>
AnchorPoint: "l;bl" 90 15 basechar 0
AnchorPoint: "l;x" 0 376 basechar 0
AnchorPoint: "l;hi" 90 684 basechar 0
AnchorPoint: "l;o" 10 195 basechar 0
AnchorPoint: "top" 411 732 basechar 0
AnchorPoint: "r;bl" 774 15 basechar 0
AnchorPoint: "r;x" 794 376 basechar 0
AnchorPoint: "r;hi" 784 684 basechar 0
AnchorPoint: "r;o" 794 195 basechar 0
LayerCount: 3
Fore
SplineSet
54 298 m 0xf8
 54 482 193 678 434 678 c 0
 516 678 576 657 638 632 c 1
 638 682 l 1
 678 682 l 1xf4
 685 464 l 1
 646 463 l 1
 639 567 l 1
 639 567 562 630 426 630 c 0
 233 630 144 491 144 346 c 0
 144 189 248 26 437 26 c 0
 554 26 610 81 610 81 c 1
 610 260 l 1
 491 260 l 1
 490 299 l 1
 766 299 l 1
 767 260 l 1
 691 260 l 1
 691 55 l 1
 612 22 543 -23 418 -23 c 0
 166 -23 54 133 54 298 c 0xf8
EndSplineSet
AlternateSubs2: "'aalt' Access All Alternates lookup 0 subtable" G.c2
AlternateSubs2: "'aalt' Access All Alternates in Latin lookup 0 subtable" G.c2
Position2: "'cpsp' Capital Spacing in Latin lookup 3 subtable" dx=6 dy=0 dh=12 dv=0
Substitution2: "'c2sc' Capitals to Small Capitals in Latin lookup 9 subtable" G.c2
EndChar

StartChar: A
Encoding: 65 65 24
Width: 726
VWidth: 0
Flags: HW
HStem: 0 39<28 82.4113 140.007 222 471 544.99 640.581 698> 264 44<248 444> 671 20G<350.774 399.5>
AnchorPoint: "top" 369 732 basechar 0
AnchorPoint: "l;bl" 0 15 basechar 0
AnchorPoint: "l;x" 40 376 basechar 0
AnchorPoint: "l;hi" 140 684 basechar 0
AnchorPoint: "l;o" 20 195 basechar 0
AnchorPoint: "r;bl" 726 15 basechar 0
AnchorPoint: "r;x" 686 376 basechar 0
AnchorPoint: "r;hi" 586 684 basechar 0
AnchorPoint: "r;o" 706 195 basechar 0
LayerCount: 3
Fore
SplineSet
27 39 m 1
 39 39 l 2
 77 39 78 44 109 113 c 0
 242 410 243 410 257 443 c 2
 359 691 l 1
 380 691 l 1
 419 589 515 353 597 155 c 0
 641 47 643 39 684 39 c 2
 699 39 l 1
 698 0 l 1
 470 0 l 1
 471 39 l 1
 501 39 l 2
 531 39 545 40 545 51 c 0
 545 57 541 66 535 82 c 2
 461 264 l 1
 229 264 l 1
 150 88 l 2
 145 76 140 63 140 56 c 0
 140 40 149 39 181 39 c 2
 222 39 l 1
 222 0 l 1
 28 0 l 1
 27 39 l 1
248 308 m 1
 444 308 l 1
 349 545 l 1
 248 308 l 1
EndSplineSet
AlternateSubs2: "'aalt' Access All Alternates lookup 0 subtable" A.c2
AlternateSubs2: "'aalt' Access All Alternates in Latin lookup 0 subtable" A.c2
Position2: "'cpsp' Capital Spacing in Latin lookup 3 subtable" dx=6 dy=0 dh=12 dv=0
Substitution2: "'c2sc' Capitals to Small Capitals in Latin lookup 9 subtable" A.c2
EndChar

StartChar: B
Encoding: 66 66 25
Width: 558
VWidth: 0
Flags: HW
HStem: 0 39<35 106.424 191.394 337.641> 344 29<188 290.784> 627 40<29 104.986 188.666 304.607>
VStem: 107 81<47.0231 344 373 622.528> 392 93<436.838 556.592> 414 95<99.4596 259.284>
AnchorPoint: "l;bl" 0 15 basechar 0
AnchorPoint: "l;x" 0 376 basechar 0
AnchorPoint: "l;hi" 0 684 basechar 0
AnchorPoint: "l;o" 0 195 basechar 0
AnchorPoint: "r;bl" 528 15 basechar 0
AnchorPoint: "r;x" 538 376 basechar 0
AnchorPoint: "r;hi" 538 684 basechar 0
AnchorPoint: "r;o" 558 195 basechar 0
LayerCount: 3
Fore
SplineSet
27 627 m 1xf4
 29 667 l 1
 250 667 l 2
 433 667 485 579 485 503 c 0xf8
 485 432 419 380 357 362 c 1
 469 337 509 248 509 172 c 0
 509 130 496 88 464 59 c 0
 402 3 288 0 177 0 c 2
 35 0 l 1
 35 39 l 1
 65 39 l 2
 98 39 107 42 107 68 c 2
 107 591 l 2
 107 625 91 627 55 627 c 2
 27 627 l 1xf4
186 344 m 1
 188 76 l 2
 188 48 202 44 253 44 c 0
 394 44 414 125 414 179 c 0xf4
 414 319 271 344 186 344 c 1
188 373 m 1
 286 373 l 2
 354 373 392 441 392 491 c 0xf8
 392 544 349 623 218 623 c 0
 195 623 188 615 188 600 c 2
 188 373 l 1
EndSplineSet
Layer: 2
SplineSet
31 627 m 5xf4
 33 667 l 5
 254 667 l 6
 437 667 489 579 489 503 c 4xf8
 489 432 423 380 361 362 c 5
 473 337 513 248 513 172 c 4
 513 130 500 88 468 59 c 4
 406 3 292 0 181 0 c 6
 39 0 l 5
 39 39 l 5
 98 41 111 34 111 68 c 6
 111 591 l 6
 111 625 95 627 59 627 c 4
 49.6669921875 627 40.3330078125 627 31 627 c 5xf4
190 344 m 5
 192 76 l 6
 192 48 206 44 257 44 c 4
 398 44 418 125 418 179 c 4xf4
 418 319 275 344 190 344 c 5
192 373 m 5
 290 373 l 6
 358 373 396 441 396 491 c 4xf8
 396 544 353 623 222 623 c 4
 199 623 192 615 192 600 c 6
 192 373 l 5
EndSplineSet
AlternateSubs2: "'aalt' Access All Alternates lookup 0 subtable" B.c2
AlternateSubs2: "'aalt' Access All Alternates in Latin lookup 0 subtable" B.c2
Position2: "'cpsp' Capital Spacing in Latin lookup 3 subtable" dx=6 dy=0 dh=12 dv=0
Substitution2: "'c2sc' Capitals to Small Capitals in Latin lookup 9 subtable" B.c2
EndChar

StartChar: C
Encoding: 67 67 26
Width: 737
VWidth: 0
Flags: HW
HStem: -16 44<334.515 544.005> 622 47<309.175 562.51>
VStem: 54 85<233.494 436.788> 632 38<639.464 675> 651 32<106.354 187 484 558.94>
AnchorPoint: "l;o" 10 195 basechar 0
AnchorPoint: "l;hi" 90 684 basechar 0
AnchorPoint: "l;x" 0 376 basechar 0
AnchorPoint: "l;bl" 90 15 basechar 0
AnchorPoint: "cedilla" 417 -93 basechar 0
AnchorPoint: "top" 407 732 basechar 0
AnchorPoint: "r;bl" 737 15 basechar 0
AnchorPoint: "r;x" 737 376 basechar 0
AnchorPoint: "r;hi" 737 684 basechar 0
AnchorPoint: "r;o" 737 195 basechar 0
LayerCount: 3
Fore
SplineSet
54 314 m 0xe8
 54 554 256 669 416 669 c 0
 563 669 600 638 616 638 c 0
 633 638 631 644 632 675 c 1
 670 675 l 1xf0
 672 612 676 548 682 484 c 1
 646 483 l 1
 634 582 647 560 585 591 c 0
 556 606 487 622 419 622 c 0
 251 622 139 494 139 343 c 0
 139 184 265 28 442 28 c 0
 544 28 650 101 651 131 c 2
 654 215 l 1
 689 215 l 1
 683 69 l 1
 683 69 564 -16 417 -16 c 0
 186 -16 54 112 54 314 c 0xe8
EndSplineSet
AlternateSubs2: "'aalt' Access All Alternates lookup 0 subtable" C.c2
AlternateSubs2: "'aalt' Access All Alternates in Latin lookup 0 subtable" C.c2
Position2: "'cpsp' Capital Spacing in Latin lookup 3 subtable" dx=6 dy=0 dh=12 dv=0
Substitution2: "'c2sc' Capitals to Small Capitals in Latin lookup 9 subtable" C.c2
EndChar

StartChar: D
Encoding: 68 68 27
Width: 744
VWidth: 0
Flags: HW
HStem: 0 39<45 121.715 206.232 422.801> 620 47<205.906 415.546> 627 40<30 122.375>
VStem: 123 81<42.7384 618.562> 610 90<235.088 440.725>
AnchorPoint: "l;bl" 0 15 basechar 0
AnchorPoint: "l;x" 0 376 basechar 0
AnchorPoint: "l;hi" 0 684 basechar 0
AnchorPoint: "l;o" 0 195 basechar 0
AnchorPoint: "r;bl" 624 15 basechar 0
AnchorPoint: "r;x" 744 376 basechar 0
AnchorPoint: "r;hi" 644 684 basechar 0
AnchorPoint: "r;o" 724 195 basechar 0
LayerCount: 3
Fore
SplineSet
27 667 m 1xb8
 297 667 l 2xd8
 403 667 488 665 561 623 c 0
 655 568 700 465 700 359 c 0
 700 222 620 0 303 0 c 2
 45 0 l 1
 44 39 l 1
 71 39 l 2
 121 39 123 43 123 83 c 2
 123 591 l 2
 123 625 121 627 72 627 c 2
 30 627 l 1
 27 667 l 1xb8
204 85 m 2
 204 43 206 39 289 39 c 0
 546 39 610 194 610 328 c 0
 610 469 515 620 282 620 c 2
 245 620 l 2
 213 620 204 615 204 573 c 2
 204 85 l 2
EndSplineSet
Layer: 2
SplineSet
27 667 m 5xb8
 297 667 l 6xd8
 403 667 488 665 561 623 c 4
 655 568 700 465 700 359 c 4
 700 222 620 0 303 0 c 6
 45 0 l 5
 44 39 l 5
 115 42 123 31 123 83 c 6
 123 591 l 6
 123 625 121 627 72 627 c 6
 30 627 l 5
 27 667 l 5xb8
204 85 m 6
 204 43 206 39 289 39 c 4
 546 39 610 194 610 328 c 4
 610 469 515 620 282 620 c 6
 245 620 l 6
 213 620 204 615 204 573 c 6
 204 85 l 6
EndSplineSet
AlternateSubs2: "'aalt' Access All Alternates lookup 0 subtable" D.c2
AlternateSubs2: "'aalt' Access All Alternates in Latin lookup 0 subtable" D.c2
Position2: "'cpsp' Capital Spacing in Latin lookup 3 subtable" dx=6 dy=0 dh=12 dv=0
Substitution2: "'c2sc' Capitals to Small Capitals in Latin lookup 9 subtable" D.c2
EndChar

StartChar: E
Encoding: 69 69 28
Width: 616
VWidth: 0
Flags: HW
HStem: 0 46<208.008 446.299> 0 39<47 125.221> 354 44<207.409 427.687> 624 43<28 125.024 208.328 499.75>
VStem: 126 81<47.009 353.476 398.264 622.326> 429 37<246 353.414 399.148 485> 508 39<510 621.709>
AnchorPoint: "top" 308 732 basechar 0
AnchorPoint: "l;bl" 0 15 basechar 0
AnchorPoint: "l;x" 0 376 basechar 0
AnchorPoint: "l;hi" 0 684 basechar 0
AnchorPoint: "l;o" 0 195 basechar 0
AnchorPoint: "r;bl" 596 15 basechar 0
AnchorPoint: "r;x" 596 376 basechar 0
AnchorPoint: "r;hi" 596 684 basechar 0
AnchorPoint: "r;o" 616 195 basechar 0
LayerCount: 3
Fore
SplineSet
27 667 m 25x7e
 542 667 l 17
 543 610 544 567 547 510 c 9
 508 508 l 17
 504 611 498 621 484 623 c 0
 474 624 456 624 435 624 c 2
 265 624 l 2
 210 624 207 622 207 577 c 2
 207 438 l 2
 207 401 208 398 240 398 c 2
 391 398 l 2
 426 398 429 402 429 448 c 2
 429 486 l 9
 466 485 l 25
 466 246 l 25
 429 246 l 17
 429 298 l 2
 429 354 426 354 393 354 c 2
 243 354 l 2
 209 354 207 349 207 323 c 2
 207 87 l 2
 207 52 213 46 239 46 c 0xbe
 531 49 522 50 529 76 c 0
 536 99 541 139 545 160 c 9
 579 155 l 25
 554 0 l 25
 47 0 l 25
 47 39 l 17
 73 39 l 2
 124 39 126 42 126 77 c 2
 126 584 l 2
 126 625 120 627 56 627 c 2
 28 627 l 9
 27 667 l 25x7e
EndSplineSet
AlternateSubs2: "'aalt' Access All Alternates lookup 0 subtable" E.c2
AlternateSubs2: "'aalt' Access All Alternates in Latin lookup 0 subtable" E.c2
Position2: "'cpsp' Capital Spacing in Latin lookup 3 subtable" dx=6 dy=0 dh=12 dv=0
Substitution2: "'c2sc' Capitals to Small Capitals in Latin lookup 9 subtable" E.c2
EndChar

StartChar: F
Encoding: 70 70 29
Width: 594
VWidth: 0
Flags: HW
HStem: 0 39<45 123.028 207.149 302> 354 44<205.409 425.643> 624 43<28 123.281 206.328 497.75>
VStem: 124 81<40.1978 353.476 398.264 622.221> 427 37<246 353.403 398.996 485> 506 39<510 621.709>
AnchorPoint: "r;o" 534 195 basechar 0
AnchorPoint: "r;hi" 594 684 basechar 0
AnchorPoint: "r;x" 534 376 basechar 0
AnchorPoint: "r;bl" 354 15 basechar 0
AnchorPoint: "l;bl" 0 15 basechar 0
AnchorPoint: "l;x" 0 376 basechar 0
AnchorPoint: "l;hi" 0 684 basechar 0
AnchorPoint: "l;o" 0 195 basechar 0
LayerCount: 3
Fore
SplineSet
27 667 m 25
 540 667 l 17
 541 610 542 567 545 510 c 9
 506 508 l 17
 502 611 496 621 482 623 c 0
 472 624 454 624 433 624 c 2
 263 624 l 2
 208 624 205 622 205 577 c 2
 205 438 l 2
 205 401 206 398 238 398 c 2
 389 398 l 2
 424 398 427 401 427 446 c 2
 427 485 l 9
 464 485 l 25
 464 246 l 25
 427 246 l 17
 427 297 l 2
 427 354 424 354 391 354 c 2
 241 354 l 2
 207 354 205 349 205 323 c 2
 205 87 l 2
 205 52 209 39 235 39 c 2
 302 39 l 9
 302 0 l 25
 45 0 l 25
 45 39 l 17
 74 39 l 2
 120 39 124 42 124 77 c 2
 124 584 l 2
 124 626 123 627 28 627 c 9
 27 667 l 25
EndSplineSet
AlternateSubs2: "'aalt' Access All Alternates lookup 0 subtable" F.c2
AlternateSubs2: "'aalt' Access All Alternates in Latin lookup 0 subtable" F.c2
Position2: "'cpsp' Capital Spacing in Latin lookup 3 subtable" dx=6 dy=0 dh=12 dv=0
Substitution2: "'c2sc' Capitals to Small Capitals in Latin lookup 9 subtable" F.c2
EndChar

StartChar: H
Encoding: 72 72 30
Width: 720
VWidth: 0
Flags: HW
HStem: 0 39<36 111.203 195.438 292 443 516.653 600.641 692> 345 48<193 518> 627 40<27 111.04 195.623 276 424 517.466 600.766 677>
VStem: 112 81<42.1113 345 393 624.475> 518 81<40.8949 345 393 625.294>
AnchorPoint: "top" 354 732 basechar 0
AnchorPoint: "l;bl" 0 15 basechar 0
AnchorPoint: "l;x" 0 376 basechar 0
AnchorPoint: "l;hi" 0 684 basechar 0
AnchorPoint: "l;o" 0 195 basechar 0
AnchorPoint: "r;bl" 720 15 basechar 0
AnchorPoint: "r;x" 720 376 basechar 0
AnchorPoint: "r;hi" 720 684 basechar 0
AnchorPoint: "r;o" 720 195 basechar 0
LayerCount: 3
Fore
SplineSet
27 627 m 1
 27 667 l 1
 276 667 l 1
 276 627 l 1
 250 627 l 2
 203 627 193 623 193 583 c 2
 193 393 l 1
 518 393 l 1
 518 591 l 2
 518 625 517 627 466 627 c 2
 424 627 l 1
 423 667 l 1
 677 667 l 1
 677 627 l 1
 649 627 l 2
 606 627 599 623 599 585 c 2
 599 80 l 2
 599 42 604 39 659 39 c 2
 693 39 l 1
 692 0 l 1
 443 0 l 1
 442 39 l 1
 471 39 l 2
 515 39 518 43 518 83 c 2
 518 345 l 1
 193 345 l 1
 193 83 l 2
 193 42 200 39 265 39 c 2
 294 39 l 1
 292 0 l 1
 36 0 l 1
 35 39 l 1
 61 39 l 2
 112 39 112 40 112 83 c 2
 112 594 l 2
 112 625 103 627 53 627 c 2
 27 627 l 1
EndSplineSet
AlternateSubs2: "'aalt' Access All Alternates lookup 0 subtable" H.c2
AlternateSubs2: "'aalt' Access All Alternates in Latin lookup 0 subtable" H.c2
Position2: "'cpsp' Capital Spacing in Latin lookup 3 subtable" dx=6 dy=0 dh=12 dv=0
Substitution2: "'c2sc' Capitals to Small Capitals in Latin lookup 9 subtable" H.c2
EndChar

StartChar: I
Encoding: 73 73 31
Width: 322
VWidth: 0
Flags: HW
HStem: 0 39<39 118.484 202.884 294> 627 40<28 119.375 203.078 279>
VStem: 120 81<40.8949 624.899>
AnchorPoint: "top" 157 732 basechar 0
AnchorPoint: "l;bl" 0 15 basechar 0
AnchorPoint: "l;x" 0 376 basechar 0
AnchorPoint: "l;hi" 0 684 basechar 0
AnchorPoint: "l;o" 0 195 basechar 0
AnchorPoint: "r;bl" 322 15 basechar 0
AnchorPoint: "r;x" 322 376 basechar 0
AnchorPoint: "r;hi" 322 684 basechar 0
AnchorPoint: "r;o" 322 195 basechar 0
LayerCount: 3
Fore
SplineSet
279 627 m 1
 262 627 l 2
 209 627 201 626 201 581 c 2
 201 85 l 2
 201 43 205 39 255 39 c 2
 294 39 l 1
 295 0 l 1
 39 0 l 1
 38 39 l 1
 64 39 l 2
 117 39 120 43 120 83 c 2
 120 591 l 2
 120 625 118 627 69 627 c 2
 27 627 l 1
 28 667 l 1
 279 667 l 1
 279 627 l 1
EndSplineSet
Layer: 2
SplineSet
30 627 m 5
 31 667 l 5
 282 667 l 5
 282 627 l 5
 271 626 261 626 253 626 c 6
 250 626 l 6
 214 626 204 626 204 581 c 6
 204 85 l 6
 204 33 210 40 297 39 c 5
 298 0 l 5
 42 0 l 5
 41 39 l 5
 112 42 123 31 123 83 c 6
 123 591 l 6
 123 625 121 627 72 627 c 6
 30 627 l 5
EndSplineSet
AlternateSubs2: "'aalt' Access All Alternates lookup 0 subtable" I.c2
AlternateSubs2: "'aalt' Access All Alternates in Latin lookup 0 subtable" I.c2
Position2: "'cpsp' Capital Spacing in Latin lookup 3 subtable" dx=6 dy=0 dh=12 dv=0
Substitution2: "'c2sc' Capitals to Small Capitals in Latin lookup 9 subtable" I.c2
EndChar

StartChar: J
Encoding: 74 74 32
Width: 305
VWidth: 0
Flags: HW
HStem: -258 55<-18.5 78.0372> 627 40<38 119.228 202.797 276>
VStem: 120 81<-131.69 626.141>
AnchorPoint: "top" 152 732 basechar 0
AnchorPoint: "l;bl" 0 15 basechar 0
AnchorPoint: "l;x" 0 376 basechar 0
AnchorPoint: "l;hi" 0 684 basechar 0
AnchorPoint: "l;o" 0 195 basechar 0
AnchorPoint: "l;k;lo" -90 -244 basechar 0
AnchorPoint: "r;bl" 305 15 basechar 0
AnchorPoint: "r;x" 305 376 basechar 0
AnchorPoint: "r;hi" 305 684 basechar 0
AnchorPoint: "r;o" 305 195 basechar 0
AnchorPoint: "r;lo" 210 -244 basechar 0
LayerCount: 3
Fore
SplineSet
-76 -210 m 0
 -76 -182 -36 -148 -14 -148 c 0
 16 -148 25 -203 55 -203 c 0
 111 -203 120 -108 120 -24 c 2
 120 591 l 2
 120 624 116 627 75 627 c 2
 38 627 l 1
 38 667 l 1
 278 667 l 1
 276 627 l 1
 244 627 l 2
 209 627 201 626 201 581 c 2
 201 -2 l 2
 201 -70 195 -108 175 -141 c 0
 158 -170 107 -222 69 -242 c 0
 49 -252 28 -258 2 -258 c 0
 -39 -258 -76 -232 -76 -210 c 0
EndSplineSet
AlternateSubs2: "'aalt' Access All Alternates lookup 0 subtable" J.c2
AlternateSubs2: "'aalt' Access All Alternates in Latin lookup 0 subtable" J.c2
Position2: "'cpsp' Capital Spacing in Latin lookup 3 subtable" dx=6 dy=0 dh=12 dv=0
Substitution2: "'c2sc' Capitals to Small Capitals in Latin lookup 9 subtable" J.c2
EndChar

StartChar: K
Encoding: 75 75 33
Width: 728
VWidth: 0
Flags: HW
HStem: 0 39<46 119.1 203.413 302 607.631 699> 627 40<27 119.375 202.953 277 433 517.989 581.719 671>
VStem: 120 81<42.035 304 351 625.982>
AnchorPoint: "cedilla" 380 -93 basechar 0
AnchorPoint: "l;bl" 0 15 basechar 0
AnchorPoint: "l;x" 0 376 basechar 0
AnchorPoint: "l;hi" 0 684 basechar 0
AnchorPoint: "l;o" 0 195 basechar 0
AnchorPoint: "r;bl" 728 15 basechar 0
AnchorPoint: "r;x" 648 376 basechar 0
AnchorPoint: "r;hi" 708 684 basechar 0
AnchorPoint: "r;o" 688 195 basechar 0
LayerCount: 3
Fore
SplineSet
27 627 m 1
 27 667 l 1
 277 667 l 1
 277 627 l 1
 245 627 l 2
 210 627 201 626 201 581 c 2
 201 351 l 1
 493 588 l 2
 510 602 518 611 518 617 c 0
 518 625 503 627 472 627 c 2
 433 627 l 1
 431 667 l 1
 671 667 l 1
 671 627 l 1
 645 627 l 2
 602 627 598 621 524 562 c 2
 298 381 l 1
 600 66 l 2
 622 43 630 39 643 39 c 2
 701 39 l 1
 699 0 l 1
 542 0 l 1
 238 334 l 1
 201 304 l 1
 201 85 l 2
 201 41 207 39 280 39 c 2
 302 39 l 1
 302 0 l 1
 46 0 l 1
 45 39 l 1
 72 39 l 2
 120 39 120 43 120 83 c 2
 120 591 l 2
 120 625 118 627 69 627 c 2
 27 627 l 1
EndSplineSet
Layer: 2
SplineSet
20 627 m 1
 20 667 l 1
 270 667 l 1
 270 627 l 1
 238 627 l 2
 203 627 194 626 194 581 c 2
 194 351 l 1
 486 588 l 2
 503 602 511 611 511 617 c 0
 511 625 496 627 465 627 c 2
 426 627 l 1
 424 667 l 1
 664 667 l 1
 664 627 l 1
 638 627 l 2
 595 627 591 621 517 562 c 2
 291 381 l 1
 593 66 l 2
 615 43 623 39 636 39 c 2
 694 39 l 1
 692 0 l 1
 535 0 l 1
 231 334 l 1
 194 304 l 1
 194 85 l 2
 194 33 208 40 295 39 c 1
 295 0 l 1
 39 0 l 1
 38 39 l 1
 109 42 113 31 113 83 c 2
 113 591 l 2
 113 625 111 627 62 627 c 2
 20 627 l 1
EndSplineSet
AlternateSubs2: "'aalt' Access All Alternates lookup 0 subtable" K.c2
AlternateSubs2: "'aalt' Access All Alternates in Latin lookup 0 subtable" K.c2
Position2: "'cpsp' Capital Spacing in Latin lookup 3 subtable" dx=6 dy=0 dh=12 dv=0
Substitution2: "'c2sc' Capitals to Small Capitals in Latin lookup 9 subtable" K.c2
EndChar

StartChar: L
Encoding: 76 76 34
Width: 584
VWidth: 0
Flags: HMW
HStem: 0 46<196.967 441.365> 0 39<41 114.334> 627 40<28 113.583 197.347 284>
VStem: 115 81<46.6074 624.655>
AnchorPoint: "commaright" 364 654 basechar 0
AnchorPoint: "top" 153 732 basechar 0
AnchorPoint: "l;bl" 0 15 basechar 0
AnchorPoint: "l;x" 0 376 basechar 0
AnchorPoint: "l;hi" 0 684 basechar 0
AnchorPoint: "l;o" 0 195 basechar 0
AnchorPoint: "r;bl" 584 15 basechar 0
AnchorPoint: "r;x" 504 376 basechar 0
AnchorPoint: "r;hi" 344 684 basechar 0
AnchorPoint: "r;o" 584 195 basechar 0
LayerCount: 3
Fore
SplineSet
27 627 m 1x70
 28 667 l 1
 284 667 l 1
 284 627 l 1
 239 627 l 2
 206 627 196 625 196 590 c 2
 196 85 l 2
 196 50 203 46 229 46 c 0xb0
 384 47 453 51 481 56 c 0
 501 59 503 59 522 169 c 9
 557 167 l 25
 524 0 l 25
 41 0 l 25
 40 39 l 17
 68 39 l 2
 114 39 115 42 115 77 c 2
 115 594 l 2
 115 624 101 627 62 627 c 2
 27 627 l 1x70
EndSplineSet
AlternateSubs2: "'aalt' Access All Alternates lookup 0 subtable" L.c2
AlternateSubs2: "'aalt' Access All Alternates in Latin lookup 0 subtable" L.c2
Position2: "'cpsp' Capital Spacing in Latin lookup 3 subtable" dx=6 dy=0 dh=12 dv=0
Substitution2: "'c2sc' Capitals to Small Capitals in Latin lookup 9 subtable" L.c2
EndChar

StartChar: M
Encoding: 77 77 35
Width: 822
VWidth: 0
Flags: HMW
HStem: -7 21G<393.5 403.5> 0 39<37 104.5 154.173 253 553 631.335 715.674 795> 627 40<38 116.74 715.412 800>
VStem: 107 46<42.1403 465.556> 633 81<41.3464 542>
DStem2: 188 667 157 529 0.392672 -0.919679<114.743 580.638> 416 133 479 179 0.386821 0.922155<0 461.101>
AnchorPoint: "l;bl" 0 15 basechar 0
AnchorPoint: "l;x" 0 376 basechar 0
AnchorPoint: "l;hi" 0 684 basechar 0
AnchorPoint: "l;o" 0 195 basechar 0
AnchorPoint: "r;bl" 822 15 basechar 0
AnchorPoint: "r;x" 822 376 basechar 0
AnchorPoint: "r;hi" 822 684 basechar 0
AnchorPoint: "r;o" 822 195 basechar 0
LayerCount: 3
Fore
SplineSet
37 0 m 1x78
 37 39 l 1
 47 39 l 2
 104 39 106 42 107 86 c 2
 116 574 l 2
 116 585 117 593 117 600 c 0
 117 622 112 627 89 627 c 2
 38 627 l 1
 37 667 l 1
 188 667 l 1
 416 133 l 1
 640 667 l 1
 800 667 l 1
 800 627 l 1
 766 627 l 2
 729 627 714 624 714 595 c 2
 714 85 l 2
 714 43 715 39 775 39 c 2
 795 39 l 1
 796 0 l 1
 553 0 l 1
 552 39 l 1
 572 39 l 2x78
 630 39 633 43 633 83 c 2
 633 542 l 1
 479 179 l 2
 401 -5 410 -7 397 -7 c 0xb8
 390 -7 380 13 358 64 c 2
 157 529 l 1
 153 73 l 2
 153 40 159 39 253 39 c 1
 253 0 l 1
 37 0 l 1x78
EndSplineSet
Layer: 2
SplineSet
32 0 m 5x78
 32 39 l 5
 95 41 101 35 102 86 c 6
 111 574 l 6
 111 585 112 593 112 600 c 4
 112 622 107 627 84 627 c 6
 33 627 l 5
 32 667 l 5
 183 667 l 5
 411 133 l 5
 635 667 l 5
 795 667 l 5
 795 627 l 5
 732 626 709 632 709 595 c 6
 709 85 l 6
 709 33 714 42 790 39 c 5
 791 0 l 5
 548 0 l 5
 547 39 l 5x78
 618 42 628 31 628 83 c 6
 628 542 l 5
 474 179 l 6
 396 -5 405 -7 392 -7 c 4xb8
 385 -7 375 13 353 64 c 6
 152 529 l 5
 148 73 l 6
 148 40 154 39 248 39 c 5
 248 0 l 5
 32 0 l 5x78
EndSplineSet
AlternateSubs2: "'aalt' Access All Alternates lookup 0 subtable" M.c2
AlternateSubs2: "'aalt' Access All Alternates in Latin lookup 0 subtable" M.c2
Position2: "'cpsp' Capital Spacing in Latin lookup 3 subtable" dx=6 dy=0 dh=12 dv=0
Substitution2: "'c2sc' Capitals to Small Capitals in Latin lookup 9 subtable" M.c2
EndChar

StartChar: N
Encoding: 78 78 36
Width: 744
VWidth: 0
Flags: HW
HStem: -17 21G<610.5 634.5> 0 39<44 114.28 165.786 254> 627 40<28 106 504 590.355 642.362 717>
VStem: 116 47<42.2997 561> 592 47<138 623.965>
AnchorPoint: "cedilla" 379 -93 basechar 0
AnchorPoint: "top" 374 732 basechar 0
AnchorPoint: "l;bl" 0 15 basechar 0
AnchorPoint: "l;x" 0 376 basechar 0
AnchorPoint: "l;hi" 0 684 basechar 0
AnchorPoint: "l;o" 0 195 basechar 0
AnchorPoint: "r;bl" 744 15 basechar 0
AnchorPoint: "r;x" 744 376 basechar 0
AnchorPoint: "r;hi" 744 684 basechar 0
AnchorPoint: "r;o" 744 195 basechar 0
LayerCount: 3
Fore
SplineSet
27 667 m 1x78
 182 667 l 1
 592 138 l 1
 592 591 l 2
 592 625 580 627 537 627 c 2
 502 627 l 1
 504 667 l 1
 717 667 l 1
 717 627 l 1
 694 627 l 2
 654 627 639 623 639 583 c 2
 639 7 l 2
 639 -10 639 -17 630 -17 c 2
 616 -17 l 2xb8
 605 -17 607 -16 594 1 c 2
 158 561 l 1
 163 85 l 2
 163 41 172 39 237 39 c 2
 254 39 l 1
 254 0 l 1
 44 0 l 1
 44 39 l 1
 74 39 l 2
 110 39 116 43 116 83 c 2
 116 615 l 1
 106 627 l 1
 28 627 l 1
 27 667 l 1x78
EndSplineSet
Layer: 2
SplineSet
25 667 m 5x78
 180 667 l 5
 590 138 l 5
 590 591 l 6
 590 625 578 627 535 627 c 6
 500 627 l 5
 502 667 l 5
 715 667 l 5
 715 627 l 5
 660 625 637 633 637 583 c 6
 637 7 l 6
 637 -10 637 -17 628 -17 c 6
 614 -17 l 6xb8
 603 -17 605 -16 592 1 c 6
 156 561 l 5
 161 85 l 6
 161 41 170 39 235 39 c 6
 252 39 l 5
 252 0 l 5
 42 0 l 5
 42 39 l 5
 105 41 114 32 114 83 c 6
 114 615 l 5
 104 627 l 5
 26 627 l 5
 25 667 l 5x78
EndSplineSet
AlternateSubs2: "'aalt' Access All Alternates lookup 0 subtable" N.c2
AlternateSubs2: "'aalt' Access All Alternates in Latin lookup 0 subtable" N.c2
Position2: "'cpsp' Capital Spacing in Latin lookup 3 subtable" dx=6 dy=0 dh=12 dv=0
Substitution2: "'c2sc' Capitals to Small Capitals in Latin lookup 9 subtable" N.c2
EndChar

StartChar: O
Encoding: 79 79 37
Width: 798
VWidth: 0
Flags: HW
HStem: -16 43<321.725 512.407> 640 41<289.52 473.316>
VStem: 54 90<231.925 457.632> 653 91<204.928 441.943>
AnchorPoint: "top" 396 732 basechar 0
AnchorPoint: "l;bl" 90 15 basechar 0
AnchorPoint: "l;x" 0 376 basechar 0
AnchorPoint: "l;hi" 90 684 basechar 0
AnchorPoint: "l;o" 10 195 basechar 0
AnchorPoint: "r;bl" 708 15 basechar 0
AnchorPoint: "r;x" 798 376 basechar 0
AnchorPoint: "r;hi" 708 684 basechar 0
AnchorPoint: "r;o" 788 195 basechar 0
LayerCount: 3
Fore
SplineSet
54 327 m 0
 54 563 228 681 401 681 c 0
 573 681 744 565 744 333 c 0
 744 159 628 -16 393 -16 c 0
 166 -16 54 155 54 327 c 0
144 360 m 0
 144 198 240 27 420 27 c 0
 540 27 653 119 653 308 c 0
 653 520 515 640 380 640 c 0
 289 640 144 578 144 360 c 0
EndSplineSet
AlternateSubs2: "'aalt' Access All Alternates lookup 0 subtable" O.c2
AlternateSubs2: "'aalt' Access All Alternates in Latin lookup 0 subtable" O.c2
Position2: "'cpsp' Capital Spacing in Latin lookup 3 subtable" dx=6 dy=0 dh=12 dv=0
Substitution2: "'c2sc' Capitals to Small Capitals in Latin lookup 9 subtable" O.c2
EndChar

StartChar: p
Encoding: 112 112 38
Width: 491
VWidth: 0
Flags: HMW
HStem: -259 32<15 81.454 153.179 245> -12 33<188.021 332.819> 335 59<223.83 324.396> 382 20G<126 152>
VStem: 82 70<-224.344 5 43.4892 306.092 320 346.995> 396 71<96.6842 258.022>
AnchorPoint: "l;bl" 15 15 basechar 0
AnchorPoint: "l;x" 0 376 basechar 0
AnchorPoint: "l;o" 15 195 basechar 0
AnchorPoint: "l;k;lo" -3 -244 basechar 0
AnchorPoint: "r;bl" 452 15 basechar 0
AnchorPoint: "r;x" 452 376 basechar 0
AnchorPoint: "r;o" 491 195 basechar 0
AnchorPoint: "r;lo" 296 -244 basechar 0
LayerCount: 3
Fore
SplineSet
14 -227 m 1xec
 75 -227 82 -225 82 -203 c 2
 82 319 l 2
 82 340 76 347 66 347 c 0
 57 347 42 341 21 337 c 1
 20 369 l 1
 57 376 100 388 152 402 c 1xdc
 152 320 l 1
 152 320 225 394 301 394 c 0
 396 394 467 305 467 201 c 0
 467 79 391 -12 276 -12 c 0
 206 -12 152 5 152 5 c 1
 152 -202 l 2
 152 -226 168 -227 231 -227 c 2
 246 -227 l 1
 245 -259 l 1
 15 -259 l 1
 14 -227 l 1xec
152 55 m 1
 152 55 203 21 273 21 c 0
 372 21 396 116 396 169 c 0
 396 261 334 335 256 335 c 0xec
 200 335 162 297 152 289 c 1
 152 55 l 1
EndSplineSet
Layer: 2
SplineSet
14 -227 m 5xec
 75 -227 82 -225 82 -203 c 6
 82 319 l 6
 82 340 76 347 66 347 c 4
 57 347 42 341 21 337 c 5
 20 369 l 5
 57 376 100 388 152 402 c 5xdc
 152 320 l 5
 152 320 225 394 301 394 c 4
 396 394 467 305 467 201 c 4
 467 79 391 -12 276 -12 c 4
 206 -12 152 5 152 5 c 5
 152 -202 l 6
 152 -228 170 -226 246 -227 c 5
 245 -259 l 5
 15 -259 l 5
 14 -227 l 5xec
152 55 m 5
 152 55 203 21 273 21 c 4
 372 21 396 116 396 169 c 4
 396 261 334 335 256 335 c 4xec
 200 335 162 297 152 289 c 5
 152 55 l 5
EndSplineSet
AlternateSubs2: "'aalt' Access All Alternates lookup 0 subtable" p.sc
AlternateSubs2: "'aalt' Access All Alternates in Latin lookup 0 subtable" p.sc
Substitution2: "'smcp' Lowercase to Small Capitals in Latin lookup 8 subtable" p.sc
EndChar

StartChar: q
Encoding: 113 113 39
Width: 481
VWidth: 0
Flags: HW
HStem: -259 32<234 338.914 414.625 486> -7 61<176.321 280.314> 362 37<165.052 310.385>
VStem: 24 69<143.332 279.155> 343 70<-222.861 58 83.9597 336.623> 402 20<369.514 396>
AnchorPoint: "l;bl" 39 15 basechar 0
AnchorPoint: "l;x" 39 376 basechar 0
AnchorPoint: "l;o" 0 195 basechar 0
AnchorPoint: "l;lo" 195 -244 basechar 0
AnchorPoint: "r;bl" 466 15 basechar 0
AnchorPoint: "r;x" 481 376 basechar 0
AnchorPoint: "r;o" 466 195 basechar 0
AnchorPoint: "r;k;lo" 496 -244 basechar 0
LayerCount: 3
Fore
SplineSet
24 184 m 0xf8
 24 319 138 399 245 399 c 0
 315 399 368 363 379 363 c 0
 400 363 402 396 402 396 c 1
 422 396 l 1xf4
 419 332 413 282 413 132 c 2
 413 -186 l 2
 413 -225 414 -227 468 -227 c 2
 486 -227 l 1
 486 -259 l 1
 234 -259 l 1
 231 -227 l 1
 266 -227 l 2
 326 -227 343 -223 343 -193 c 2
 343 58 l 1
 303 29 264 -7 202 -7 c 0
 86 -7 24 87 24 184 c 0xf8
93 222 m 0
 93 132 170 54 246 54 c 0
 308 54 338 103 343 108 c 1
 343 325 l 1xf8
 343 325 292 362 237 362 c 0
 135 362 93 277 93 222 c 0
EndSplineSet
Layer: 2
SplineSet
24 184 m 4xf8
 24 319 138 399 245 399 c 4
 315 399 368 363 379 363 c 4
 400 363 402 396 402 396 c 5
 422 396 l 5xf4
 419 332 413 282 413 132 c 6
 413 -186 l 6
 413 -230 414 -226 486 -227 c 5
 486 -259 l 5
 234 -259 l 5
 231 -227 l 5
 303 -224 343 -235 343 -193 c 6
 343 58 l 5
 303 29 264 -7 202 -7 c 4
 86 -7 24 87 24 184 c 4xf8
93 222 m 4
 93 132 170 54 246 54 c 4
 308 54 338 103 343 108 c 5
 343 325 l 5xf8
 343 325 292 362 237 362 c 4
 135 362 93 277 93 222 c 4
EndSplineSet
AlternateSubs2: "'aalt' Access All Alternates lookup 0 subtable" q.sc
AlternateSubs2: "'aalt' Access All Alternates in Latin lookup 0 subtable" q.sc
Substitution2: "'smcp' Lowercase to Small Capitals in Latin lookup 8 subtable" q.sc
EndChar

StartChar: v
Encoding: 118 118 40
Width: 461
VWidth: 0
Flags: HW
HStem: -18 21G<223 246> 360 32<17 62.353 148.009 196 306 352.99 404.235 444>
AnchorPoint: "l;bl" 78 15 basechar 0
AnchorPoint: "l;x" 0 376 basechar 0
AnchorPoint: "l;o" 24 195 basechar 0
AnchorPoint: "r;bl" 383 15 basechar 0
AnchorPoint: "r;x" 461 376 basechar 0
AnchorPoint: "r;o" 437 195 basechar 0
LayerCount: 3
Fore
SplineSet
248 99 m 1
 286 190 315 249 333 288 c 2
 346 316 353 333 353 345 c 0
 353 360 339 360 309 360 c 2
 306 360 l 1
 306 392 l 1
 444 392 l 1
 444 360 l 1
 438 360 l 2
 404 360 402 349 354 242 c 2
 237 -18 l 1
 223 -17 l 1
 82 306 l 2
 59 358 56 360 17 360 c 1
 17 392 l 1
 197 392 l 1
 196 360 l 1
 182 360 l 2
 160 360 148 359 148 346 c 0
 148 339 152 329 159 311 c 2
 248 99 l 1
EndSplineSet
Layer: 2
SplineSet
17 360 m 5
 17 392 l 5
 197 392 l 5
 196 360 l 5
 165 359 148 362 148 346 c 4
 148 339 152 329 159 311 c 6
 248 99 l 5
 278 171 305 227 323 266 c 4
 342 307 353 330 353 341 c 4
 353 359 348 360 306 360 c 5
 306 392 l 5
 444 392 l 5
 444 360 l 5
 414 358 409 370 360 265 c 4
 342 226 318 170 284 91 c 6
 237 -18 l 5
 223 -17 l 5
 82 306 l 6
 59 358 56 360 17 360 c 5
EndSplineSet
AlternateSubs2: "'aalt' Access All Alternates lookup 0 subtable" v.sc
AlternateSubs2: "'aalt' Access All Alternates in Latin lookup 0 subtable" v.sc
Substitution2: "'smcp' Lowercase to Small Capitals in Latin lookup 8 subtable" v.sc
EndChar

StartChar: x
Encoding: 120 120 41
Width: 521
VWidth: 0
Flags: HW
HStem: 0 32<18 78.7344 136.013 207 301 351.991 451.906 503> 360 32<30 81.5801 180.013 247 323 367.988 423.78 499>
AnchorPoint: "l;bl" 0 15 basechar 0
AnchorPoint: "l;x" 10 376 basechar 0
AnchorPoint: "l;o" 15 195 basechar 0
AnchorPoint: "r;bl" 521 15 basechar 0
AnchorPoint: "r;x" 521 376 basechar 0
AnchorPoint: "r;o" 511 195 basechar 0
LayerCount: 3
Fore
SplineSet
17 0 m 25
 18 32 l 17
 26 32 l 2
 56 32 67 34 100 66 c 2
 226 192 l 1
 97 329 l 2
 76 351 69 360 30 360 c 9
 30 392 l 25
 247 392 l 25
 247 360 l 17
 227 360 l 2
 198 360 180 359 180 349 c 0
 180 345 184 338 191 329 c 2
 269 239 l 1
 349 323 l 2
 361 336 368 345 368 350 c 0
 368 357 352 360 323 360 c 9
 323 392 l 25
 499 392 l 25
 499 360 l 17
 438 360 439 360 406 327 c 2
 293 215 l 1
 432 68 l 2
 466 33 464 32 500 32 c 2
 503 32 l 9
 503 0 l 25
 301 0 l 25
 301 32 l 17
 340 32 352 36 352 44 c 0
 352 51 341 61 332 71 c 2
 249 168 l 1
 149 62 l 2
 140 52 136 46 136 42 c 0
 136 33 154 32 183 32 c 2
 207 32 l 9
 207 0 l 25
 17 0 l 25
EndSplineSet
Layer: 2
SplineSet
17 0 m 29
 18 32 l 21
 56 34 62 29 100 66 c 6
 226 192 l 5
 97 329 l 6
 76 351 69 360 30 360 c 13
 30 392 l 29
 247 392 l 29
 247 360 l 21
 208 359 180 362 180 349 c 4
 180 345 184 338 191 329 c 6
 269 239 l 5
 349 323 l 6
 361 336 368 345 368 350 c 4
 368 357 354 359 323 360 c 13
 323 392 l 29
 499 392 l 29
 499 360 l 21
 430 358 439 360 406 327 c 6
 293 215 l 5
 412 89 l 6
 474 24 457 35 503 32 c 13
 503 0 l 29
 301 0 l 29
 301 32 l 21
 340 32 352 36 352 44 c 4
 352 51 341 61 332 71 c 6
 249 168 l 5
 149 62 l 6
 140 52 136 46 136 42 c 4
 136 30 166 33 207 32 c 13
 207 0 l 29
 17 0 l 29
EndSplineSet
AlternateSubs2: "'aalt' Access All Alternates lookup 0 subtable" x.sc
AlternateSubs2: "'aalt' Access All Alternates in Latin lookup 0 subtable" x.sc
Substitution2: "'smcp' Lowercase to Small Capitals in Latin lookup 8 subtable" x.sc
EndChar

StartChar: z
Encoding: 122 122 42
Width: 440
VWidth: 0
Flags: HMW
HStem: 0 61<114 364.482> 327 60<79.9994 311>
DStem2: 52 47 114 61 0.679042 0.734099<52.378 381.42>
AnchorPoint: "top" 222 488 basechar 0
AnchorPoint: "l;bl" 0 15 basechar 0
AnchorPoint: "l;x" 0 376 basechar 0
AnchorPoint: "l;o" 0 195 basechar 0
AnchorPoint: "r;bl" 440 15 basechar 0
AnchorPoint: "r;x" 440 376 basechar 0
AnchorPoint: "r;o" 440 195 basechar 0
LayerCount: 3
Fore
SplineSet
24 10 m 0
 24 19 38 32 52 47 c 2
 311 327 l 1
 107 327 l 2
 73 327 73 326 65 264 c 9
 39 265 l 25
 55 407 l 25
 80 407 l 17
 80 389 79 387 102 387 c 2
 371 387 l 2
 398 387 405 385 405 380 c 0
 405 373 389 362 367 337 c 2
 114 61 l 1
 328 61 l 2
 363 61 366 64 373 151 c 9
 406 151 l 17
 404 115 399 69 395 0 c 1
 53 0 l 2
 35 0 24 0 24 10 c 0
EndSplineSet
AlternateSubs2: "'aalt' Access All Alternates lookup 0 subtable" z.sc
AlternateSubs2: "'aalt' Access All Alternates in Latin lookup 0 subtable" z.sc
Substitution2: "'smcp' Lowercase to Small Capitals in Latin lookup 8 subtable" z.sc
EndChar

StartChar: P
Encoding: 80 80 43
Width: 571
VWidth: 0
Flags: HW
HStem: 0 39<27 93.8489 175.24 293> 263 32<195.481 354.021> 627 40<31 93.0897 176.65 317.09>
VStem: 94 81<40.6756 284 304.5 626.473> 433 94<360.511 529.3>
AnchorPoint: "l;bl" 0 15 basechar 0
AnchorPoint: "l;x" 0 376 basechar 0
AnchorPoint: "l;hi" 0 684 basechar 0
AnchorPoint: "l;o" 0 195 basechar 0
AnchorPoint: "r;bl" 331 15 basechar 0
AnchorPoint: "r;x" 571 376 basechar 0
AnchorPoint: "r;hi" 571 684 basechar 0
AnchorPoint: "r;o" 471 195 basechar 0
LayerCount: 3
Fore
SplineSet
27 0 m 1
 27 39 l 1
 58 39 l 2
 93 39 94 42 94 68 c 2
 94 591 l 2
 94 625 88 627 56 627 c 2
 30 627 l 1
 31 667 l 1
 237 667 l 2
 340 667 395 662 442 624 c 0
 490 585 527 525 527 445 c 0
 527 357 460 263 316 263 c 0
 244 263 177 284 175 284 c 1
 175 68 l 2
 175 42 176 39 243 39 c 2
 293 39 l 1
 293 0 l 1
 27 0 l 1
175 314 m 1
 175 314 201 295 269 295 c 0
 374 295 433 347 433 447 c 0
 433 565 329 627 205 627 c 0
 182 627 175 623 175 581 c 2
 175 314 l 1
EndSplineSet
AlternateSubs2: "'aalt' Access All Alternates lookup 0 subtable" P.c2
AlternateSubs2: "'aalt' Access All Alternates in Latin lookup 0 subtable" P.c2
Position2: "'cpsp' Capital Spacing in Latin lookup 3 subtable" dx=6 dy=0 dh=12 dv=0
Substitution2: "'c2sc' Capitals to Small Capitals in Latin lookup 9 subtable" P.c2
EndChar

StartChar: Q
Encoding: 81 81 44
Width: 798
VWidth: 0
Flags: HW
HStem: -238 60<729.92 824.993> 640 41<289.52 473.316>
VStem: 54 90<232.355 457.632> 653 91<206.385 441.943>
AnchorPoint: "r;o" 788 195 basechar 0
AnchorPoint: "r;hi" 688 684 basechar 0
AnchorPoint: "r;x" 798 376 basechar 0
AnchorPoint: "r;bl" 708 15 basechar 0
AnchorPoint: "l;o" 10 195 basechar 0
AnchorPoint: "l;hi" 110 684 basechar 0
AnchorPoint: "l;x" 0 376 basechar 0
AnchorPoint: "l;bl" 90 15 basechar 0
AnchorPoint: "r;k;lo" 868 -244 basechar 0
LayerCount: 3
Fore
SplineSet
54 327 m 0
 54 563 228 681 401 681 c 0
 573 681 744 565 744 333 c 0
 744 190 668 74 564 22 c 0
 547 13 501 -1 501 -1 c 1
 599 -42 717 -178 791 -178 c 0
 821 -178 829 -167 839 -167 c 0
 845 -167 848 -172 848 -178 c 0
 848 -190 834 -238 742 -238 c 0
 630 -238 549 -142 478 -84 c 0
 368 5 385 -23 303 -6 c 0
 187 19 54 128 54 327 c 0
144 360 m 0
 144 198 240 27 420 27 c 0
 540 27 653 119 653 308 c 0
 653 520 515 640 380 640 c 0
 289 640 144 578 144 360 c 0
EndSplineSet
Layer: 2
SplineSet
44 327 m 4
 44 563 218 681 391 681 c 4
 563 681 734 565 734 333 c 4
 734 190 658 74 554 22 c 4
 537 13 491 -1 491 -1 c 5
 589 -42 707 -178 781 -178 c 4
 811 -178 819 -167 829 -167 c 4
 835 -167 838 -172 838 -178 c 4
 838 -190 824 -238 732 -238 c 4
 620 -238 539 -142 468 -84 c 4
 358 5 375 -23 293 -6 c 4
 177 19 44 128 44 327 c 4
134 360 m 4
 134 198 230 27 410 27 c 4
 530 27 643 119 643 308 c 4
 643 520 505 640 370 640 c 4
 279 640 134 578 134 360 c 4
EndSplineSet
AlternateSubs2: "'aalt' Access All Alternates lookup 0 subtable" Q.c2
AlternateSubs2: "'aalt' Access All Alternates in Latin lookup 0 subtable" Q.c2
Position2: "'cpsp' Capital Spacing in Latin lookup 3 subtable" dx=6 dy=0 dh=12 dv=0
Substitution2: "'c2sc' Capitals to Small Capitals in Latin lookup 9 subtable" Q.c2
EndChar

StartChar: R
Encoding: 82 82 45
Width: 694
VWidth: 0
Flags: HW
HStem: 0 39<44 110.827 192.294 310 585.057 664> 307 29<192.656 307> 627 40<24 108.327 193.65 330.02>
VStem: 111 81<40.793 313 339.164 623.68> 430 99<401.09 543.798>
AnchorPoint: "top" 283 732 basechar 0
AnchorPoint: "l;bl" 0 15 basechar 0
AnchorPoint: "l;x" 0 376 basechar 0
AnchorPoint: "l;hi" 0 684 basechar 0
AnchorPoint: "l;o" 0 195 basechar 0
AnchorPoint: "r;bl" 694 15 basechar 0
AnchorPoint: "r;x" 594 376 basechar 0
AnchorPoint: "r;hi" 574 684 basechar 0
AnchorPoint: "r;o" 674 195 basechar 0
LayerCount: 3
Fore
SplineSet
23 627 m 1
 24 667 l 1
 254 667 l 2
 357 667 410 657 457 619 c 0
 505 580 529 528 529 479 c 0
 529 417 493 349 386 321 c 1
 578 66 l 2
 598 41 608 39 621 39 c 2
 664 39 l 1
 666 0 l 1
 521 0 l 1
 307 308 l 1
 299 308 291 307 283 307 c 0
 220 307 206 310 192 313 c 1
 192 68 l 2
 192 42 194 39 261 39 c 2
 312 39 l 1
 310 0 l 1
 44 0 l 1
 44 39 l 1
 67 39 l 2
 110 39 111 40 111 68 c 2
 111 591 l 2
 111 625 89 627 51 627 c 2
 23 627 l 1
192 346 m 1
 192 346 205 336 256 336 c 0
 378 336 430 377 430 464 c 0
 430 559 357 627 222 627 c 0
 199 627 192 623 192 581 c 2
 192 346 l 1
EndSplineSet
Layer: 2
SplineSet
23 627 m 5
 24 667 l 5
 254 667 l 6
 357 667 410 657 457 619 c 4
 505 580 529 528 529 479 c 4
 529 417 493 349 386 321 c 5
 578 66 l 6
 598 41 608 39 621 39 c 6
 664 39 l 5
 666 0 l 5
 521 0 l 5
 307 308 l 5
 299 308 291 307 283 307 c 4
 220 307 206 310 192 313 c 5
 192 68 l 6
 192 32 201 42 312 39 c 5
 310 0 l 5
 44 0 l 5
 44 39 l 5
 107 41 111 33 111 68 c 6
 111 591 l 6
 111 625 89 627 51 627 c 6
 23 627 l 5
192 346 m 5
 192 346 205 336 256 336 c 4
 378 336 430 377 430 464 c 4
 430 559 357 627 222 627 c 4
 199 627 192 623 192 581 c 6
 192 346 l 5
EndSplineSet
AlternateSubs2: "'aalt' Access All Alternates lookup 0 subtable" R.c2
AlternateSubs2: "'aalt' Access All Alternates in Latin lookup 0 subtable" R.c2
Position2: "'cpsp' Capital Spacing in Latin lookup 3 subtable" dx=6 dy=0 dh=12 dv=0
Substitution2: "'c2sc' Capitals to Small Capitals in Latin lookup 9 subtable" R.c2
EndChar

StartChar: S
Encoding: 83 83 46
Width: 517
VWidth: 0
Flags: HMW
HStem: -9 42<123.419 318.619> 628 47<180.011 353.054> 663 20G<382 417.639>
VStem: 64 34<-25 -12.282> 68 66<458.893 576.324> 377 81<95.4738 214.487> 386 30<655.865 681>
AnchorPoint: "cedilla" 239 -93 basechar 0
AnchorPoint: "top" 262 732 basechar 0
AnchorPoint: "l;bl" 0 15 basechar 0
AnchorPoint: "l;x" 0 376 basechar 0
AnchorPoint: "l;hi" 50 684 basechar 0
AnchorPoint: "l;o" 0 195 basechar 0
AnchorPoint: "r;bl" 477 15 basechar 0
AnchorPoint: "r;x" 497 376 basechar 0
AnchorPoint: "r;hi" 517 684 basechar 0
AnchorPoint: "r;o" 517 195 basechar 0
LayerCount: 3
Fore
SplineSet
25 170 m 1xd4
 60 174 l 1
 73 112 l 2
 82 69 83 68 120 55 c 0
 162 40 191 33 244 33 c 0
 315 33 377 78 377 154 c 0
 377 217 315 258 249 294 c 2
 208 317 l 2
 136 357 68 401 68 497 c 0
 68 601 167 675 267 675 c 0xcc
 316 675 360 655 367 655 c 0
 382 655 382 681 382 681 c 1
 416 683 l 1xaa
 431 500 l 1
 395 499 l 1
 386 588 l 1
 386 588 332 628 250 628 c 0
 188 628 134 584 134 521 c 0xca
 134 457 192 418 259 381 c 2
 314 351 l 2
 389 309 458 262 458 178 c 0
 458 82 377 -9 231 -9 c 0
 163 -9 135 9 115 9 c 0
 100 9 97 -3 97 -12 c 0
 97 -18 98 -25 98 -25 c 1
 64 -28 l 1
 52 39 38 105 25 170 c 1xd4
EndSplineSet
Layer: 2
SplineSet
25 170 m 5xd8
 60 174 l 5
 73 112 l 6
 82 69 83 68 120 55 c 4
 162 40 191 33 244 33 c 4
 315 33 377 78 377 154 c 4
 377 210 330 246 273 281 c 4
 183 335 68 372 68 497 c 4
 68 601 167 675 267 675 c 4xd8
 316 675 360 655 367 655 c 4
 382 655 382 681 382 681 c 5
 416 683 l 5xb8
 431 500 l 5
 395 499 l 5
 386 588 l 5
 386 588 332 628 250 628 c 4
 188 628 134 584 134 521 c 4
 134 370 458 359 458 178 c 4
 458 82 377 -9 231 -9 c 4
 163 -9 135 9 115 9 c 4
 100 9 97 -3 97 -12 c 4
 97 -18 98 -25 98 -25 c 5
 64 -28 l 5
 52 39 38 105 25 170 c 5xd8
EndSplineSet
AlternateSubs2: "'aalt' Access All Alternates lookup 0 subtable" S.c2
AlternateSubs2: "'aalt' Access All Alternates in Latin lookup 0 subtable" S.c2
Position2: "'cpsp' Capital Spacing in Latin lookup 3 subtable" dx=6 dy=0 dh=12 dv=0
Substitution2: "'c2sc' Capitals to Small Capitals in Latin lookup 9 subtable" S.c2
EndChar

StartChar: T
Encoding: 84 84 47
Width: 630
VWidth: 0
Flags: HMW
HStem: 1 38<178 260.31 345.708 441> 623 44<57.954 259.919 343.812 560.002>
VStem: 11 36<506 609.748> 262 81<41.7301 621.79> 555 36<508 589.292>
AnchorPoint: "cedilla" 304 -93 basechar 0
AnchorPoint: "top" 301 732 basechar 0
AnchorPoint: "l;bl" 120 15 basechar 0
AnchorPoint: "l;x" 30 376 basechar 0
AnchorPoint: "l;hi" 0 684 basechar 0
AnchorPoint: "l;o" 70 195 basechar 0
AnchorPoint: "r;bl" 490 15 basechar 0
AnchorPoint: "r;x" 570 376 basechar 0
AnchorPoint: "r;hi" 630 684 basechar 0
AnchorPoint: "r;o" 530 195 basechar 0
LayerCount: 3
Fore
SplineSet
11 506 m 1
 15 544 20 592 26 667 c 1
 603 667 l 1
 594 575 594 539 591 507 c 1
 555 508 l 1
 559 554 561 575 561 590 c 0
 561 618 548 623 510 623 c 2
 395 623 l 2
 343 623 343 621 343 575 c 2
 343 85 l 2
 343 43 351 39 401 39 c 2
 441 39 l 1
 442 0 l 1
 178 1 l 1
 178 39 l 1
 194 39 l 2
 258 39 262 40 262 81 c 2
 262 567 l 2
 262 620 257 623 218 623 c 2
 113 623 l 2
 48 623 55 608 47 505 c 1
 11 506 l 1
EndSplineSet
AlternateSubs2: "'aalt' Access All Alternates lookup 0 subtable" T.c2
AlternateSubs2: "'aalt' Access All Alternates in Latin lookup 0 subtable" T.c2
Position2: "'cpsp' Capital Spacing in Latin lookup 3 subtable" dx=6 dy=0 dh=12 dv=0
Substitution2: "'c2sc' Capitals to Small Capitals in Latin lookup 9 subtable" T.c2
EndChar

StartChar: U
Encoding: 85 85 48
Width: 721
VWidth: 0
Flags: HW
HStem: -18 58<274.695 507.503> 627 40<27 93.8673 178.584 267 506 592.355 642.974 694>
VStem: 95 81<133.083 623.994> 594 47<124.34 625.072>
AnchorPoint: "top" 378 732 basechar 0
AnchorPoint: "l;bl" 40 15 basechar 0
AnchorPoint: "l;x" 0 376 basechar 0
AnchorPoint: "l;hi" 0 684 basechar 0
AnchorPoint: "l;o" 0 195 basechar 0
AnchorPoint: "r;bl" 681 15 basechar 0
AnchorPoint: "r;x" 721 376 basechar 0
AnchorPoint: "r;hi" 721 684 basechar 0
AnchorPoint: "r;o" 721 195 basechar 0
LayerCount: 3
Fore
SplineSet
27 627 m 1
 27 667 l 1
 267 667 l 1
 268 627 l 1
 230 627 l 2
 194 627 176 623 176 590 c 2
 176 220 l 2
 176 187 187 40 385 40 c 0
 590 40 594 150 594 267 c 2
 594 591 l 2
 594 625 582 627 539 627 c 2
 504 627 l 1
 506 667 l 1
 694 667 l 1
 694 627 l 1
 680 627 l 2
 649 627 641 623 641 583 c 2
 641 228 l 2
 641 99 591 -18 385 -18 c 0
 161 -18 95 93 95 215 c 2
 95 591 l 2
 95 625 87 627 54 627 c 2
 27 627 l 1
EndSplineSet
AlternateSubs2: "'aalt' Access All Alternates lookup 0 subtable" U.c2
AlternateSubs2: "'aalt' Access All Alternates in Latin lookup 0 subtable" U.c2
Position2: "'cpsp' Capital Spacing in Latin lookup 3 subtable" dx=6 dy=0 dh=12 dv=0
Substitution2: "'c2sc' Capitals to Small Capitals in Latin lookup 9 subtable" U.c2
EndChar

StartChar: V
Encoding: 86 86 49
Width: 762
VWidth: 0
Flags: HW
HStem: -15 21G<361.773 395.889> 627 40<27 110.607 200.006 277 534 614.984 666.033 733>
AnchorPoint: "l;bl" 180 15 basechar 0
AnchorPoint: "l;x" 60 376 basechar 0
AnchorPoint: "l;hi" 0 684 basechar 0
AnchorPoint: "l;o" 100 195 basechar 0
AnchorPoint: "r;bl" 582 15 basechar 0
AnchorPoint: "r;x" 702 376 basechar 0
AnchorPoint: "r;hi" 762 684 basechar 0
AnchorPoint: "r;o" 652 195 basechar 0
LayerCount: 3
Fore
SplineSet
27 627 m 1
 27 667 l 1
 278 667 l 1
 277 627 l 1
 224 627 l 2
 208 627 200 626 200 614 c 0
 200 605 203 594 214 567 c 2
 400 105 l 1
 610 588 l 2
 613 596 615 602 615 607 c 0
 615 626 593 627 566 627 c 2
 534 627 l 1
 532 667 l 1
 735 667 l 1
 733 627 l 1
 704 627 l 2
 666 627 666 613 611 489 c 2
 387 -15 l 1
 370 -15 l 1
 138 549 l 2
 108 621 106 627 62 627 c 2
 27 627 l 1
EndSplineSet
Layer: 2
SplineSet
31 627 m 5
 31 667 l 5
 282 667 l 5
 281 627 l 5
 228 627 l 6
 212 627 204 626 204 614 c 4
 204 605 207 594 218 567 c 6
 404 105 l 5
 614 588 l 6
 617 596 619 602 619 607 c 4
 619 626 597 627 570 627 c 6
 538 627 l 5
 536 667 l 5
 739 667 l 5
 737 627 l 5
 731 627 713 627 708 627 c 4
 669 626 670 613 615 489 c 6
 391 -15 l 5
 374 -15 l 5
 142 549 l 6
 105 637 112 625 31 627 c 5
EndSplineSet
AlternateSubs2: "'aalt' Access All Alternates lookup 0 subtable" V.c2
AlternateSubs2: "'aalt' Access All Alternates in Latin lookup 0 subtable" V.c2
Position2: "'cpsp' Capital Spacing in Latin lookup 3 subtable" dx=6 dy=0 dh=12 dv=0
Substitution2: "'c2sc' Capitals to Small Capitals in Latin lookup 9 subtable" V.c2
EndChar

StartChar: W
Encoding: 87 87 50
Width: 1040
VWidth: 0
Flags: HW
HStem: -16 21G<317.677 348.776 698.2 729.7> 627 40<37 92.7789 177.169 258 411 490.076 570.004 649 841 915.85 962.758 1012>
AnchorPoint: "r;o" 930 195 basechar 0
AnchorPoint: "r;hi" 1040 684 basechar 0
AnchorPoint: "r;x" 980 376 basechar 0
AnchorPoint: "r;bl" 880 15 basechar 0
AnchorPoint: "l;o" 90 195 basechar 0
AnchorPoint: "l;hi" 0 684 basechar 0
AnchorPoint: "l;x" 50 376 basechar 0
AnchorPoint: "l;bl" 150 15 basechar 0
AnchorPoint: "top" 527 732 basechar 0
LayerCount: 3
Fore
SplineSet
37 627 m 1
 37 667 l 1
 259 667 l 1
 258 627 l 1
 236 627 l 2
 203 627 177 625 177 605 c 0
 177 602 178 598 179 594 c 2
 352 118 l 1
 517 540 l 1
 506 571 494 627 460 627 c 2
 411 627 l 1
 411 667 l 1
 649 667 l 1
 649 627 l 1
 596 627 l 2
 575 627 570 625 570 611 c 0
 570 604 571 598 588 547 c 2
 734 121 l 1
 912 588 l 2
 914 595 916 601 916 605 c 0
 916 626 893 627 867 627 c 2
 841 627 l 1
 841 667 l 1
 1012 667 l 1
 1013 627 l 1
 1001 627 l 2
 968 627 966 620 943 558 c 2
 722 -16 l 1
 705 -16 l 1
 535 484 l 1
 341 -15 l 1
 325 -15 l 1
 113 564 l 2
 92 622 80 627 54 627 c 2
 37 627 l 1
EndSplineSet
Layer: 2
SplineSet
41 627 m 5
 41 667 l 5
 263 667 l 5
 262 627 l 5
 233 624 181 633 181 605 c 4
 181 602 182 598 183 594 c 6
 356 118 l 5
 521 540 l 5
 510 571 498 627 464 627 c 6
 415 627 l 5
 415 667 l 5
 653 667 l 5
 653 627 l 5
 600 627 l 6
 579 627 574 625 574 611 c 4
 574 595 578 588 738 121 c 5
 916 588 l 6
 918 595 920 601 920 605 c 4
 920 626 897 627 871 627 c 6
 845 627 l 5
 845 667 l 5
 1016 667 l 5
 1017 627 l 5
 1011 627 1004 627 999 627 c 4
 971 626 970 620 947 558 c 6
 726 -16 l 5
 709 -16 l 5
 540 486 l 5
 345 -15 l 5
 329 -15 l 5
 117 564 l 6
 91 635 81 625 41 627 c 5
EndSplineSet
AlternateSubs2: "'aalt' Access All Alternates lookup 0 subtable" W.c2
AlternateSubs2: "'aalt' Access All Alternates in Latin lookup 0 subtable" W.c2
Position2: "'cpsp' Capital Spacing in Latin lookup 3 subtable" dx=6 dy=0 dh=12 dv=0
Substitution2: "'c2sc' Capitals to Small Capitals in Latin lookup 9 subtable" W.c2
EndChar

StartChar: X
Encoding: 88 88 51
Width: 760
VWidth: 0
Flags: HW
HStem: 0 39<27 106.992 164.008 240 475 548.985 661.03 732> 627 40<44 117.333 229.009 298 513 586.988 649.656 727>
AnchorPoint: "l;bl" 0 15 basechar 0
AnchorPoint: "l;x" 60 376 basechar 0
AnchorPoint: "l;hi" 0 684 basechar 0
AnchorPoint: "l;o" 20 195 basechar 0
AnchorPoint: "r;bl" 760 15 basechar 0
AnchorPoint: "r;x" 720 376 basechar 0
AnchorPoint: "r;hi" 760 684 basechar 0
AnchorPoint: "r;o" 750 195 basechar 0
LayerCount: 3
Fore
SplineSet
27 0 m 1
 27 39 l 1
 101 39 92 41 152 108 c 2
 343 324 l 1
 146 573 l 2
 103 627 108 627 44 627 c 1
 44 667 l 1
 298 667 l 1
 298 627 l 1
 271 627 l 2
 241 627 229 627 229 617 c 0
 229 610 230 606 265 558 c 2
 395 384 l 1
 529 535 l 2
 587 601 587 604 587 614 c 0
 587 626 571 627 540 627 c 2
 512 627 l 1
 513 667 l 1
 727 667 l 1
 727 627 l 1
 663 627 667 627 625 581 c 2
 420 355 l 1
 548 192 l 2
 661 47 670 39 715 39 c 2
 732 39 l 1
 733 0 l 1
 475 0 l 1
 475 39 l 1
 499 39 l 2
 529 39 549 40 549 52 c 0
 549 58 548 60 508 112 c 2
 367 293 l 1
 187 85 l 2
 170 66 164 55 164 49 c 0
 164 40 175 39 204 39 c 2
 240 39 l 1
 240 0 l 1
 27 0 l 1
EndSplineSet
AlternateSubs2: "'aalt' Access All Alternates lookup 0 subtable" X.c2
AlternateSubs2: "'aalt' Access All Alternates in Latin lookup 0 subtable" X.c2
Position2: "'cpsp' Capital Spacing in Latin lookup 3 subtable" dx=6 dy=0 dh=12 dv=0
Substitution2: "'c2sc' Capitals to Small Capitals in Latin lookup 9 subtable" X.c2
EndChar

StartChar: Y
Encoding: 89 89 52
Width: 659
VWidth: 0
Flags: HW
HStem: 0 39<188 282.141 366.483 468> 627 40<38 92.9346 190.012 262 451 531.982 577.231 632>
VStem: 284 81<40.9885 303>
AnchorPoint: "top" 344 732 basechar 0
AnchorPoint: "l;bl" 140 15 basechar 0
AnchorPoint: "l;x" 100 376 basechar 0
AnchorPoint: "l;hi" 0 684 basechar 0
AnchorPoint: "l;o" 120 195 basechar 0
AnchorPoint: "r;bl" 509 15 basechar 0
AnchorPoint: "r;x" 559 376 basechar 0
AnchorPoint: "r;hi" 659 684 basechar 0
AnchorPoint: "r;o" 539 195 basechar 0
LayerCount: 3
Fore
SplineSet
37 627 m 1
 38 667 l 1
 262 667 l 1
 262 627 l 1
 242 627 l 2
 207 627 190 626 190 614 c 0
 190 610 192 606 208 579 c 2
 351 354 l 1
 526 602 l 2
 529 607 532 611 532 614 c 0
 532 626 507 627 467 627 c 2
 451 627 l 1
 450 667 l 1
 632 667 l 1
 632 627 l 1
 627 627 l 2
 595 627 589 626 560 585 c 2
 365 303 l 1
 365 85 l 2
 365 43 366 39 424 39 c 2
 469 39 l 1
 468 0 l 1
 187 0 l 1
 188 39 l 1
 228 39 l 2
 277 39 284 41 284 83 c 2
 284 311 l 1
 120 566 l 2
 81 627 84 627 37 627 c 1
EndSplineSet
Layer: 2
SplineSet
31 627 m 5
 32 667 l 5
 256 667 l 5
 256 627 l 5
 214 625 184 630 184 614 c 4
 184 605 189 600 345 354 c 5
 520 602 l 6
 523 607 526 611 526 614 c 4
 526 628 493 626 445 627 c 5
 444 667 l 5
 626 667 l 5
 626 627 l 5
 589 626 584 628 554 585 c 6
 359 303 l 5
 359 85 l 6
 359 33 360 41 463 39 c 5
 462 0 l 5
 181 0 l 5
 182 39 l 5
 222 39 l 6
 271 39 278 41 278 83 c 6
 278 311 l 5
 114 566 l 6
 75 627 80 627 31 627 c 5
EndSplineSet
AlternateSubs2: "'aalt' Access All Alternates lookup 0 subtable" Y.c2
AlternateSubs2: "'aalt' Access All Alternates in Latin lookup 0 subtable" Y.c2
Position2: "'cpsp' Capital Spacing in Latin lookup 3 subtable" dx=6 dy=0 dh=12 dv=0
Substitution2: "'c2sc' Capitals to Small Capitals in Latin lookup 9 subtable" Y.c2
EndChar

StartChar: Z
Encoding: 90 90 53
Width: 664
VWidth: 0
Flags: HW
HStem: 0 83<139 579.802> 588 79<87.1341 523>
VStem: 599 38<90.4553 175>
AnchorPoint: "top" 327 732 basechar 0
AnchorPoint: "l;bl" 0 15 basechar 0
AnchorPoint: "l;x" 0 376 basechar 0
AnchorPoint: "l;hi" 0 684 basechar 0
AnchorPoint: "l;o" 0 195 basechar 0
AnchorPoint: "r;bl" 664 15 basechar 0
AnchorPoint: "r;x" 644 376 basechar 0
AnchorPoint: "r;hi" 664 684 basechar 0
AnchorPoint: "r;o" 664 195 basechar 0
LayerCount: 3
Fore
SplineSet
27 20 m 0
 27 32 53 55 74 80 c 2
 523 588 l 1
 115 588 l 2
 88 588 88 583 82 523 c 0
 81 512 78 500 78 488 c 1
 38 490 l 1
 45 550 51 608 53 667 c 1
 598 667 l 2
 618 667 629 666 629 657 c 0
 629 642 597 607 594 603 c 2
 139 83 l 1
 535 83 l 2
 558 83 576 83 580 89 c 0
 589 100 599 176 599 176 c 1
 637 175 l 1
 633 133 628 118 617 0 c 1
 49 0 l 2
 38 0 27 3 27 20 c 0
EndSplineSet
AlternateSubs2: "'aalt' Access All Alternates lookup 0 subtable" Z.c2
AlternateSubs2: "'aalt' Access All Alternates in Latin lookup 0 subtable" Z.c2
Position2: "'cpsp' Capital Spacing in Latin lookup 3 subtable" dx=6 dy=0 dh=12 dv=0
Substitution2: "'c2sc' Capitals to Small Capitals in Latin lookup 9 subtable" Z.c2
EndChar

StartChar: period
Encoding: 46 46 54
Width: 224
VWidth: 0
Flags: HW
HStem: -10 96<77.9705 141.508>
VStem: 62 95<4.92969 70.5159>
AnchorPoint: "r;o" 184 195 basechar 0
AnchorPoint: "r;bl" 224 15 basechar 0
AnchorPoint: "l;o" 40 195 basechar 0
AnchorPoint: "l;bl" 0 15 basechar 0
LayerCount: 3
Fore
SplineSet
62 41 m 0
 62 56 99 86 110 86 c 0
 130 86 157 48 157 36 c 0
 157 19 122 -10 107 -10 c 0
 95 -10 62 23 62 41 c 0
EndSplineSet
EndChar

StartChar: hyphen
Encoding: 45 45 55
Width: 315
VWidth: 0
Flags: HW
HStem: 241 133
VStem: 34 247
AnchorPoint: "l;x" 0 376 basechar 0
AnchorPoint: "l;k;o" -20 195 basechar 0
AnchorPoint: "r;k;x" 335 376 basechar 0
AnchorPoint: "r;o" 315 195 basechar 0
LayerCount: 3
Fore
SplineSet
34 241 m 25
 34 301 l 25
 281 374 l 25
 281 313 l 25
 34 241 l 25
EndSplineSet
EndChar

StartChar: comma
Encoding: 44 44 56
Width: 224
VWidth: 0
Flags: HW
HStem: -146 223
VStem: 105 59<-81.7627 9.04013>
AnchorPoint: "l;bl" 0 15 basechar 0
AnchorPoint: "l;o" 40 195 basechar 0
AnchorPoint: "l;k;lo" -20 -244 basechar 0
AnchorPoint: "r;bl" 224 15 basechar 0
AnchorPoint: "r;o" 184 195 basechar 0
AnchorPoint: "r;k;lo" 184 -244 basechar 0
LayerCount: 3
Fore
SplineSet
35 -132 m 0
 35 -113 105 -105 105 -32 c 0
 105 16 62 12 62 30 c 0
 62 46 100 77 108 77 c 0
 111 77 164 71 164 -2 c 0
 164 -43 143 -92 119 -115 c 0
 93 -140 59 -146 48 -146 c 0
 35 -146 35 -135 35 -132 c 0
EndSplineSet
EndChar

StartChar: exclam
Encoding: 33 33 57
Width: 305
VWidth: 0
Flags: HMW
HStem: -10 86<121.768 184.129>
VStem: 110 85<1.1814 63.2022 410.065 643.277>
AnchorPoint: "l;bl" 0 15 basechar 0
AnchorPoint: "l;x" 0 376 basechar 0
AnchorPoint: "l;hi" 0 684 basechar 0
AnchorPoint: "l;o" 0 195 basechar 0
AnchorPoint: "r;bl" 305 15 basechar 0
AnchorPoint: "r;x" 305 376 basechar 0
AnchorPoint: "r;hi" 305 684 basechar 0
AnchorPoint: "r;o" 305 195 basechar 0
LayerCount: 3
Fore
SplineSet
110 34 m 0
 110 48 143 76 153 76 c 0
 170 76 195 45 195 33 c 0
 195 18 166 -10 152 -10 c 0
 140 -10 110 18 110 34 c 0
111 620 m 0
 111 648 171 653 177 653 c 0
 186 653 190 649 190 642 c 0
 188 521 166 374 163 254 c 0
 161 188 166 152 145 152 c 0
 131 152 130 182 129 188 c 0
 117 337 111 565 111 620 c 0
EndSplineSet
Position2: "'cpsp' Capital Spacing in Latin lookup 3 subtable" dx=6 dy=0 dh=12 dv=0
EndChar

StartChar: question
Encoding: 63 63 58
Width: 397
VWidth: 0
Flags: HW
HStem: -9 94<157.731 222.653> 593 74<112.851 219.699>
VStem: 108 58<181.671 277.57> 142 96<6.24072 69.8479> 284 53<452.021 547.016>
AnchorPoint: "l;bl" 0 15 basechar 0
AnchorPoint: "l;x" 0 376 basechar 0
AnchorPoint: "l;hi" 30 684 basechar 0
AnchorPoint: "l;o" 0 195 basechar 0
AnchorPoint: "r;bl" 357 15 basechar 0
AnchorPoint: "r;x" 397 376 basechar 0
AnchorPoint: "r;hi" 357 684 basechar 0
AnchorPoint: "r;o" 357 195 basechar 0
LayerCount: 3
Fore
SplineSet
80 604 m 0xe8
 80 620 125 667 169 667 c 0
 211 667 337 574 337 474 c 0
 337 442 331 422 309 396 c 0
 241 316 166 283 166 229 c 0
 166 176 213 162 213 143 c 0
 213 136 207 130 198 130 c 0
 173 130 108 176 108 257 c 0
 108 370 284 410 284 511 c 0
 284 547 221 593 155 593 c 0
 139 593 121 592 93 592 c 0
 84 592 80 595 80 604 c 0xe8
142 38 m 0xd8
 142 57 178 85 191 85 c 0
 208 85 238 53 238 38 c 0
 238 26 207 -9 189 -9 c 0
 174 -9 142 26 142 38 c 0xd8
EndSplineSet
Position2: "'cpsp' Capital Spacing in Latin lookup 3 subtable" dx=6 dy=0 dh=12 dv=0
EndChar

StartChar: semicolon
Encoding: 59 59 59
Width: 264
VWidth: 0
Flags: HW
HStem: 303 95<99.4082 164.303>
VStem: 82 102<10.25 55.7527 322.597 379.331> 125 59<-82.4787 9.84766>
AnchorPoint: "r;k;lo" 224 -244 basechar 0
AnchorPoint: "r;o" 224 195 basechar 0
AnchorPoint: "r;bl" 264 15 basechar 0
AnchorPoint: "l;k;lo" -20 -244 basechar 0
AnchorPoint: "l;o" 40 195 basechar 0
AnchorPoint: "l;bl" 0 15 basechar 0
AnchorPoint: "l;x" 0 376 basechar 0
AnchorPoint: "r;x" 264 376 basechar 0
LayerCount: 3
Fore
SplineSet
57 -130 m 0xa0
 57 -111 125 -105 125 -32 c 0xa0
 125 16 82 12 82 30 c 0xc0
 82 45 116 78 124 78 c 0
 130 78 184 62 184 -2 c 0
 184 -43 163 -92 139 -115 c 0
 113 -140 83 -146 72 -146 c 0
 59 -146 57 -133 57 -130 c 0xa0
84 349 m 0
 84 369 119 398 131 398 c 0
 148 398 180 366 180 352 c 0
 180 338 149 303 133 303 c 0
 119 303 84 335 84 349 c 0
EndSplineSet
EndChar

StartChar: colon
Encoding: 58 58 60
Width: 264
VWidth: 0
Flags: HW
HStem: -9 94<98.9297 164.516> 303 95<99.4082 164.303>
VStem: 84 96<6.08521 69.0295 318.944 382.941>
AnchorPoint: "r;x" 264 376 basechar 0
AnchorPoint: "l;x" 0 376 basechar 0
AnchorPoint: "l;bl" 0 15 basechar 0
AnchorPoint: "l;o" 40 195 basechar 0
AnchorPoint: "r;bl" 264 15 basechar 0
AnchorPoint: "r;o" 224 195 basechar 0
LayerCount: 3
Fore
SplineSet
84 40 m 0
 84 52 117 85 135 85 c 0
 150 85 180 48 180 37 c 0
 180 17 142 -9 130 -9 c 0
 113 -9 84 25 84 40 c 0
84 349 m 0
 84 369 119 398 131 398 c 0
 148 398 180 366 180 352 c 0
 180 338 149 303 133 303 c 0
 119 303 84 335 84 349 c 0
EndSplineSet
EndChar

StartChar: emdash
Encoding: 8212 8212 61
Width: 1000
VWidth: 488
Flags: HW
HStem: 264 43<0 1000>
AnchorPoint: "l;x" 0 376 basechar 0
AnchorPoint: "l;o" 0 195 basechar 0
AnchorPoint: "r;x" 1000 376 basechar 0
AnchorPoint: "r;o" 1000 195 basechar 0
LayerCount: 3
Fore
SplineSet
0 264 m 1
 0 307 l 1
 1000 307 l 1
 1000 264 l 1
 0 264 l 1
EndSplineSet
EndChar

StartChar: endash
Encoding: 8211 8211 62
Width: 500
VWidth: 488
Flags: HW
HStem: 264 43<0 500>
AnchorPoint: "l;x" 0 376 basechar 0
AnchorPoint: "l;o" 0 195 basechar 0
AnchorPoint: "r;x" 500 376 basechar 0
AnchorPoint: "r;o" 500 195 basechar 0
LayerCount: 3
Fore
SplineSet
0 264 m 1
 0 307 l 1
 500 307 l 1
 500 264 l 1
 0 264 l 1
EndSplineSet
EndChar

StartChar: afii00208
Encoding: 8213 8213 63
Width: 1000
VWidth: 488
Flags: HW
HStem: 264 43<0 1000>
AnchorPoint: "l;x" 0 376 basechar 0
AnchorPoint: "l;o" 0 195 basechar 0
AnchorPoint: "r;x" 1000 376 basechar 0
AnchorPoint: "r;o" 1000 195 basechar 0
LayerCount: 3
Fore
SplineSet
0 264 m 1
 0 307 l 1
 1000 307 l 1
 1000 264 l 1
 0 264 l 1
EndSplineSet
EndChar

StartChar: quoteleft
Encoding: 8216 8216 64
Width: 243
VWidth: 0
Flags: HW
HStem: 468 212<136 179>
VStem: 69 60<542.261 615.925>
AnchorPoint: "l;x" 0 376 basechar 0
AnchorPoint: "l;hi" 0 684 basechar 0
AnchorPoint: "l;o" 0 195 basechar 0
AnchorPoint: "r;x" 243 376 basechar 0
AnchorPoint: "r;hi" 243 684 basechar 0
AnchorPoint: "r;o" 243 195 basechar 0
LayerCount: 3
Fore
SplineSet
69 545 m 0
 69 628 150 680 179 680 c 0
 186 680 190 676 190 670 c 0
 190 646 129 643 129 581 c 0
 129 531 180 540 180 524 c 0
 180 522 178 519 176 515 c 2
 151 479 l 2
 149 476 142 468 136 468 c 0
 131 468 122 472 107 481 c 0
 86 494 69 501 69 545 c 0
EndSplineSet
EndChar

StartChar: quotesinglbase
Encoding: 8218 8218 65
Width: 243
VWidth: 0
Flags: HW
HStem: -127 211<81 124>
VStem: 131 59<-64.2699 11.0149>
AnchorPoint: "l;bl" 0 15 basechar 0
AnchorPoint: "l;o" 0 195 basechar 0
AnchorPoint: "l;lo" 0 -244 basechar 0
AnchorPoint: "r;bl" 243 15 basechar 0
AnchorPoint: "r;o" 243 195 basechar 0
AnchorPoint: "r;lo" 243 -244 basechar 0
LayerCount: 3
Fore
SplineSet
69 -118 m 0
 69 -94 131 -90 131 -28 c 0
 131 22 80 12 80 28 c 0
 80 30 82 34 84 38 c 2
 108 73 l 2
 110 76 118 84 124 84 c 0
 129 84 137 80 152 71 c 0
 173 58 190 51 190 7 c 0
 190 -76 110 -127 81 -127 c 0
 74 -127 69 -124 69 -118 c 0
EndSplineSet
EndChar

StartChar: quotedblleft
Encoding: 8220 8220 66
Width: 414
VWidth: 0
Flags: HW
HStem: 468 212<136 179 307 350>
VStem: 69 60<542.261 615.925> 240 60<542.261 615.925>
AnchorPoint: "r;hi" 414 684 basechar 0
AnchorPoint: "l;x" 0 376 basechar 0
AnchorPoint: "r;o" 414 195 basechar 0
AnchorPoint: "l;o" 0 195 basechar 0
AnchorPoint: "l;hi" 0 684 basechar 0
AnchorPoint: "r;x" 414 376 basechar 0
LayerCount: 3
Fore
SplineSet
69 545 m 0
 69 628 150 680 179 680 c 0
 186 680 190 676 190 670 c 0
 190 646 129 643 129 581 c 0
 129 531 180 540 180 524 c 0
 180 522 178 519 176 515 c 2
 151 479 l 2
 149 476 142 468 136 468 c 0
 131 468 122 472 107 481 c 0
 86 494 69 501 69 545 c 0
240 545 m 0
 240 628 321 680 350 680 c 0
 357 680 361 676 361 670 c 0
 361 646 300 643 300 581 c 0
 300 531 351 540 351 524 c 0
 351 522 349 519 347 515 c 2
 322 479 l 2
 320 476 313 468 307 468 c 0
 302 468 293 472 278 481 c 0
 257 494 240 501 240 545 c 0
EndSplineSet
Layer: 2
SplineSet
69.3359375 545.41015625 m 4
 69.3359375 628.90625 149.4140625 679.6875 178.7109375 679.6875 c 4
 186.03515625 679.6875 190.4296875 676.26953125 190.4296875 670.41015625 c 4
 190.4296875 645.99609375 128.90625 642.578125 128.90625 580.56640625 c 4
 128.90625 530.76171875 179.6875 540.0390625 179.6875 523.92578125 c 4
 179.6875 521.484375 178.22265625 518.5546875 175.78125 514.6484375 c 6
 151.3671875 479.4921875 l 6
 149.4140625 476.5625 142.08984375 467.7734375 136.23046875 467.7734375 c 4
 130.859375 467.7734375 122.0703125 472.16796875 107.421875 481.4453125 c 4
 86.42578125 494.62890625 69.3359375 501.46484375 69.3359375 545.41015625 c 4
240.234375 545.41015625 m 4
 240.234375 628.90625 320.3125 679.6875 349.609375 679.6875 c 4
 356.93359375 679.6875 361.328125 676.26953125 361.328125 670.41015625 c 4
 361.328125 645.99609375 299.8046875 642.578125 299.8046875 580.56640625 c 4
 299.8046875 530.76171875 350.5859375 540.0390625 350.5859375 523.92578125 c 4
 350.5859375 521.484375 349.12109375 518.5546875 346.6796875 514.6484375 c 6
 322.265625 479.4921875 l 6
 320.3125 476.5625 312.98828125 467.7734375 307.12890625 467.7734375 c 4
 301.7578125 467.7734375 292.96875 472.16796875 278.3203125 481.4453125 c 4
 257.32421875 494.62890625 240.234375 501.46484375 240.234375 545.41015625 c 4
EndSplineSet
EndChar

StartChar: quotedblright
Encoding: 8221 8221 67
Width: 413
VWidth: 0
Flags: HW
HStem: 468 212<81 124 251 294>
VStem: 131 59<530.73 606.23> 301 59<530.73 606.23>
AnchorPoint: "r;hi" 413 684 basechar 0
AnchorPoint: "l;x" 0 376 basechar 0
AnchorPoint: "r;o" 413 195 basechar 0
AnchorPoint: "l;o" 0 195 basechar 0
AnchorPoint: "l;hi" 0 684 basechar 0
AnchorPoint: "r;x" 413 376 basechar 0
LayerCount: 3
Fore
SplineSet
69 477 m 0
 69 501 131 505 131 567 c 0
 131 617 80 608 80 624 c 0
 80 626 82 629 84 633 c 2
 108 668 l 2
 110 671 118 680 124 680 c 0
 129 680 137 675 152 666 c 0
 173 653 190 646 190 602 c 0
 190 519 110 468 81 468 c 0
 74 468 69 471 69 477 c 0
239 477 m 0
 239 501 301 505 301 567 c 0
 301 617 250 608 250 624 c 0
 250 626 252 629 254 633 c 2
 278 668 l 2
 280 671 288 680 294 680 c 0
 299 680 307 675 322 666 c 0
 343 653 360 646 360 602 c 0
 360 519 280 468 251 468 c 0
 244 468 239 471 239 477 c 0
EndSplineSet
EndChar

StartChar: quotedblbase
Encoding: 8222 8222 68
Width: 413
VWidth: 0
Flags: HW
HStem: -127 211<81 124 251 294>
VStem: 131 59<-64.2699 11.0149> 301 59<-64.2699 11.0149>
AnchorPoint: "r;bl" 413 15 basechar 0
AnchorPoint: "r;lo" 413 -244 basechar 0
AnchorPoint: "r;o" 413 195 basechar 0
AnchorPoint: "l;o" 0 195 basechar 0
AnchorPoint: "l;bl" 0 15 basechar 0
AnchorPoint: "l;lo" 0 -244 basechar 0
LayerCount: 3
Fore
SplineSet
69 -118 m 0
 69 -94 131 -90 131 -28 c 0
 131 22 80 12 80 28 c 0
 80 30 82 34 84 38 c 2
 108 73 l 2
 110 76 118 84 124 84 c 0
 129 84 137 80 152 71 c 0
 173 58 190 51 190 7 c 0
 190 -76 110 -127 81 -127 c 0
 74 -127 69 -124 69 -118 c 0
239 -118 m 0
 239 -94 301 -90 301 -28 c 0
 301 22 250 12 250 28 c 0
 250 30 252 34 254 38 c 2
 278 73 l 2
 280 76 288 84 294 84 c 0
 299 84 307 80 322 71 c 0
 343 58 360 51 360 7 c 0
 360 -76 280 -127 251 -127 c 0
 244 -127 239 -124 239 -118 c 0
EndSplineSet
EndChar

StartChar: oe
Encoding: 339 339 69
Width: 742
VWidth: 0
Flags: HMW
HStem: -15 39<182.934 297.158> -13 68<494.152 635.718> 367 34<162.539 275.135 479.168 556.335>
VStem: 26 79<115.943 297.115> 349 79<124.243 226 261 292.499> 603 92<271 283>
AnchorPoint: "r;o" 742 195 basechar 0
AnchorPoint: "r;x" 703 376 basechar 0
AnchorPoint: "r;bl" 713 15 basechar 0
AnchorPoint: "l;o" 0 195 basechar 0
AnchorPoint: "l;x" 40 376 basechar 0
AnchorPoint: "l;bl" 40 15 basechar 0
LayerCount: 3
Fore
SplineSet
26 195 m 0xb8
 26 299 86 401 223 401 c 0
 310 401 369 359 387 299 c 1
 416 363 472 399 530 399 c 0
 639 399 695 306 695 271 c 0
 695 260 684 256 680 256 c 2
 428 226 l 1
 428 223 428 217 428 212 c 0
 428 111 491 55 575 55 c 0
 654 55 692 102 709 102 c 0
 714 102 717 99 717 90 c 0
 717 71 653 -13 545 -13 c 0x78
 472 -13 417 14 390 91 c 1
 363 22 299 -15 225 -15 c 0
 90 -15 26 94 26 195 c 0xb8
105 219 m 0
 105 127 156 24 238 24 c 0xb8
 320 24 349 104 349 187 c 0
 349 308 286 367 214 367 c 0
 156 367 105 317 105 219 c 0
431 261 m 1
 603 283 l 1
 603 283 575 365 520 365 c 0
 480 365 442 327 431 261 c 1
EndSplineSet
Layer: 2
SplineSet
25.53125 195.3125 m 0
 25.53125 298.828125 86.078125 401.3671875 222.796875 401.3671875 c 0
 310.19921875 401.3671875 364.3984375 364.74609375 387.34765625 315.4296875 c 1
 415.66796875 364.74609375 472.30859375 399.4140625 529.92578125 399.4140625 c 0
 639.30078125 399.4140625 695.453125 305.6640625 695.453125 270.99609375 c 0
 695.453125 259.765625 683.734375 256.34765625 679.828125 255.859375 c 2
 428.36328125 225.5859375 l 1
 427.875 222.16796875 427.875 217.28515625 427.875 212.40234375 c 0
 427.875 111.81640625 491.3515625 54.6875 575.3359375 54.6875 c 0
 653.94921875 54.6875 692.5234375 102.05078125 709.125 102.05078125 c 0
 714.0078125 102.05078125 717.42578125 98.6328125 717.42578125 89.84375 c 0
 717.42578125 71.2890625 643.6953125 -12.6953125 535.296875 -12.6953125 c 0
 462.54296875 -12.6953125 414.69140625 21.97265625 390.765625 65.91796875 c 1
 360.4921875 19.04296875 299.45703125 -14.6484375 225.23828125 -14.6484375 c 0
 89.984375 -14.6484375 25.53125 94.23828125 25.53125 195.3125 c 0
105.12109375 219.23828125 m 0
 105.12109375 126.953125 155.90234375 24.4140625 237.93359375 24.4140625 c 0
 319.96484375 24.4140625 349.26171875 104.00390625 349.26171875 186.5234375 c 0
 349.26171875 307.12890625 285.78515625 366.69921875 214.0078125 366.69921875 c 0
 155.90234375 366.69921875 105.12109375 316.89453125 105.12109375 219.23828125 c 0
430.8046875 261.23046875 m 1
 602.6796875 283.203125 l 1
 602.6796875 283.203125 575.3359375 364.74609375 520.16015625 364.74609375 c 0
 480.609375 364.74609375 441.546875 327.63671875 430.8046875 261.23046875 c 1
EndSplineSet
AlternateSubs2: "'aalt' Access All Alternates lookup 0 subtable" oe.sc
AlternateSubs2: "'aalt' Access All Alternates in Latin lookup 0 subtable" oe.sc
Substitution2: "'smcp' Lowercase to Small Capitals in Latin lookup 8 subtable" oe.sc
EndChar

StartChar: ae
Encoding: 230 230 70
Width: 635
VWidth: 0
Flags: HMW
HStem: -16 57<112.091 215.319> -13 68<391.469 524.77> 191 27<194.743 260> 349 48<123.842 242.672> 365 34<372.097 455.995>
VStem: 32 73<49.549 123.753> 58 54<250.294 317.158> 261 64<124.243 191 218 228 264 316.671> 496 93<271 283>
AnchorPoint: "r;o" 635 195 basechar 0
AnchorPoint: "r;x" 596 376 basechar 0
AnchorPoint: "r;bl" 606 15 basechar 0
AnchorPoint: "l;o" 0 195 basechar 0
AnchorPoint: "l;x" 23 376 basechar 0
AnchorPoint: "l;bl" 0 15 basechar 0
LayerCount: 3
Fore
SplineSet
32 60 m 0xa580
 32 150 147 218 260 218 c 1
 260 229 261 241 261 252 c 0
 261 304 255 349 184 349 c 0
 114 349 103 318 103 318 c 1
 107 300 112 285 112 274 c 0
 112 258 89 248 81 248 c 0
 61 248 58 272 58 284 c 0
 58 318 105 397 208 397 c 0xb380
 291 397 300 332 307 307 c 1
 323 356 373 399 428 399 c 0
 527 399 589 312 589 271 c 0
 589 260 577 256 573 256 c 2
 325 228 l 1
 325 225 325 217 325 212 c 0
 325 111 387 55 471 55 c 0
 550 55 585 97 602 97 c 0
 607 97 611 94 611 85 c 0
 611 66 539 -13 431 -13 c 0x6b80
 364 -13 312 30 286 79 c 1
 286 79 244 -16 133 -16 c 0
 91 -16 32 6 32 60 c 0xa580
105 88 m 0xa580
 105 55 131 41 157 41 c 0
 240 41 277 101 277 101 c 1
 270 129 263 158 261 191 c 1
 178 191 105 132 105 88 c 0xa580
329 264 m 1
 496 283 l 1
 496 283 475 365 416 365 c 0x2980
 376 365 340 330 329 264 c 1
EndSplineSet
Layer: 2
SplineSet
427.921875 399.4140625 m 4
 527.04296875 399.4140625 588.56640625 312.01171875 588.56640625 270.99609375 c 4
 588.56640625 259.765625 576.84765625 256.34765625 572.94140625 255.859375 c 6
 325.3828125 228.02734375 l 5
 324.89453125 224.609375 324.89453125 217.28515625 324.89453125 212.40234375 c 4
 324.89453125 111.81640625 386.90625 54.6875 470.890625 54.6875 c 4
 549.50390625 54.6875 585.63671875 97.16796875 602.23828125 97.16796875 c 4
 607.12109375 97.16796875 610.5390625 93.75 610.5390625 84.9609375 c 4
 610.5390625 66.40625 539.25 -12.6953125 430.8515625 -12.6953125 c 4
 348.33203125 -12.6953125 307.31640625 29.296875 281.4375 78.61328125 c 5
 281.4375 78.61328125 243.3515625 -15.625 132.51171875 -15.625 c 4
 90.51953125 -15.625 32.4140625 6.34765625 32.4140625 60.05859375 c 4
 32.4140625 150.390625 142.27734375 217.7734375 255.55859375 217.7734375 c 5
 255.55859375 278.3203125 l 6
 255.55859375 316.89453125 244.328125 348.6328125 183.78125 348.6328125 c 4
 113.46875 348.6328125 103.21484375 318.359375 103.21484375 318.359375 c 5
 107.12109375 300.29296875 112.4921875 285.15625 112.4921875 274.4140625 c 4
 112.4921875 258.7890625 89.0546875 248.046875 80.75390625 248.046875 c 4
 60.734375 248.046875 58.29296875 272.4609375 58.29296875 284.1796875 c 4
 58.29296875 317.87109375 105.16796875 396.97265625 207.70703125 396.97265625 c 4
 287.78515625 396.97265625 305.36328125 346.19140625 311.22265625 326.66015625 c 5
 331.2421875 363.28125 373.234375 399.4140625 427.921875 399.4140625 c 4
104.6796875 88.37890625 m 4
 104.6796875 55.17578125 131.53515625 41.015625 157.4140625 41.015625 c 4
 240.421875 41.015625 271.671875 101.07421875 271.671875 101.07421875 c 5
 264.34765625 128.90625 258.48828125 157.71484375 256.53515625 190.91796875 c 5
 173.52734375 190.4296875 104.6796875 132.32421875 104.6796875 88.37890625 c 4
328.80078125 263.671875 m 5
 495.79296875 283.203125 l 5
 495.79296875 283.203125 474.796875 364.74609375 415.71484375 364.74609375 c 4
 376.1640625 364.74609375 339.54296875 330.078125 328.80078125 263.671875 c 5
EndSplineSet
AlternateSubs2: "'aalt' Access All Alternates lookup 0 subtable" ae.sc
AlternateSubs2: "'aalt' Access All Alternates in Latin lookup 0 subtable" ae.sc
Substitution2: "'smcp' Lowercase to Small Capitals in Latin lookup 8 subtable" ae.sc
EndChar

StartChar: f_i
Encoding: 65537 -1 71
Width: 494
Flags: HMW
HStem: 0 32<24 89.0007 160.584 232 264 326.342 397.54 458> 344 48<29 90 160 325.375> 687 38<202.625 307.5>
VStem: 90 70<33.1445 344 392 614.157> 327 70<33.2255 342.901>
AnchorPoint: "r;bl" 494 15 basechar 0
AnchorPoint: "r;x" 479 376 basechar 0
AnchorPoint: "r;o" 494 195 basechar 0
AnchorPoint: "l;o" 10 195 basechar 0
AnchorPoint: "l;hi" 58 684 basechar 0
AnchorPoint: "l;x" 0 376 basechar 0
AnchorPoint: "l;bl" 10 15 basechar 0
AnchorPoint: "r;hi" 394 684 basechar 0
LayerCount: 3
Fore
SplineSet
17 344 m 1
 29 392 l 1
 90 392 l 1
 90 521 l 2
 90 626 168 725 283 725 c 0
 332 725 378 709 378 685 c 0
 378 665 347 630 324 630 c 0
 311 630 284 687 239 687 c 0
 178 687 160 592 160 534 c 2
 160 392 l 1
 271 392 l 2
 301 392 344 392 397 406 c 1
 397 59 l 2
 397 33 402 32 431 32 c 2
 458 32 l 1
 458 0 l 1
 264 0 l 1
 264 32 l 1
 284 32 l 2
 316 32 327 34 327 55 c 2
 327 308 l 2
 327 344 326 344 262 344 c 2
 160 344 l 1
 160 60 l 2
 160 35 162 32 199 32 c 2
 232 32 l 1
 232 0 l 1
 24 0 l 1
 24 32 l 1
 48 32 l 2
 82 32 90 35 90 59 c 2
 90 344 l 1
 17 344 l 1
EndSplineSet
Layer: 2
SplineSet
17 344 m 5
 29 392 l 5
 90 392 l 5
 90 521 l 6
 90 626 168 725 283 725 c 4
 332 725 378 709 378 685 c 4
 378 665 347 630 324 630 c 4
 311 630 284 687 239 687 c 4
 178 687 160 592 160 534 c 6
 160 392 l 5
 271 392 l 6
 301 392 344 392 397 406 c 5
 397 59 l 6
 397 33 402 32 431 32 c 6
 458 32 l 5
 458 0 l 5
 264 0 l 5
 264 32 l 5
 309 34 327 28 327 55 c 6
 327 308 l 6
 327 344 326 344 262 344 c 6
 160 344 l 5
 160 60 l 6
 160 27 165 34 232 32 c 5
 232 0 l 5
 24 0 l 5
 24 32 l 5
 74 34 90 27 90 59 c 6
 90 344 l 5
 17 344 l 5
EndSplineSet
Ligature2: "'liga' Standard Ligatures in Latin lookup 12 subtable" f i
LCarets2: 1 0 
EndChar

StartChar: f_l
Encoding: 65538 -1 72
Width: 480
VWidth: 0
Flags: HMW
HStem: 0 32<27 89.162 160.654 231 261 324.701 396.75 463> 344 48<29 90 160 261> 683 41<194.528 281.5>
VStem: 90 70<32.9844 344 392 620.531> 326 70<33.292 645>
AnchorPoint: "r;o" 476 195 basechar 0
AnchorPoint: "r;hi" 476 684 basechar 0
AnchorPoint: "r;x" 476 376 basechar 0
AnchorPoint: "r;bl" 480 15 basechar 0
AnchorPoint: "l;bl" 10 15 basechar 0
AnchorPoint: "l;x" 0 376 basechar 0
AnchorPoint: "l;hi" 58 684 basechar 0
AnchorPoint: "l;o" 10 195 basechar 0
LayerCount: 3
Fore
SplineSet
17 344 m 1
 29 392 l 1
 90 392 l 1
 90 500 l 2
 90 555 93 644 188 703 c 0
 212 718 243 724 271 724 c 0
 292 724 311 720 325 714 c 1
 349 717 372 722 396 726 c 1
 396 59 l 2
 396 34 402 32 444 32 c 2
 463 32 l 1
 463 0 l 1
 260 0 l 1
 261 32 l 1
 282 32 l 2
 314 32 326 34 326 59 c 2
 326 645 l 1
 312 633 307 623 296 623 c 0
 279 623 272 683 235 683 c 0
 164 683 160 552 160 524 c 2
 160 392 l 1
 272 392 l 1
 261 344 l 1
 160 344 l 1
 160 62 l 2
 160 32 163 32 215 32 c 2
 231 32 l 1
 232 0 l 1
 26 0 l 1
 27 32 l 1
 56 32 l 2
 82 32 90 35 90 59 c 2
 90 344 l 1
 17 344 l 1
EndSplineSet
Layer: 2
SplineSet
17 344 m 5
 29 392 l 5
 90 392 l 5
 90 500 l 6
 90 555 93 644 188 703 c 4
 212 718 243 724 271 724 c 4
 292 724 311 720 325 714 c 5
 349 717 372 722 396 726 c 5
 396 59 l 6
 396 30 404 33 463 32 c 5
 463 0 l 5
 260 0 l 5
 261 32 l 5
 269 32 276.138671875 31.9169921875 282.481445312 31.9169921875 c 4
 314.194335938 31.9169921875 326 34 326 59 c 6
 326 645 l 5
 312 633 307 623 296 623 c 4
 279 623 272 683 235 683 c 4
 164 683 160 552 160 524 c 6
 160 392 l 5
 272 392 l 5
 261 344 l 5
 160 344 l 5
 160 62 l 6
 160 27 164 34 231 32 c 5
 232 0 l 5
 26 0 l 5
 27 32 l 5
 77 34 90 27 90 59 c 6
 90 344 l 5
 17 344 l 5
EndSplineSet
Ligature2: "'liga' Standard Ligatures in Latin lookup 12 subtable" f l
LCarets2: 1 0 
EndChar

StartChar: f_f
Encoding: 65539 -1 73
Width: 519
VWidth: 0
Flags: HW
HStem: 0 32<24 89.0442 160.45 228 263 323.285 394.842 470> 344 48<29 90 160 324 394 495> 657 41<195.539 286.823> 683 41<428.793 526>
VStem: 90 70<32.7648 344 392 603.275> 324 70<33.4238 344 392 616.03>
AnchorPoint: "r;k;hi" 585 684 basechar 0
AnchorPoint: "r;o" 495 195 basechar 0
AnchorPoint: "r;x" 519 376 basechar 0
AnchorPoint: "r;bl" 485 15 basechar 0
AnchorPoint: "l;bl" 10 15 basechar 0
AnchorPoint: "l;x" 0 376 basechar 0
AnchorPoint: "l;hi" 68 684 basechar 0
AnchorPoint: "l;o" 10 195 basechar 0
LayerCount: 3
Fore
SplineSet
17 344 m 1xdc
 29 392 l 1
 90 392 l 1
 90 471 l 2
 90 551 99 619 160 660 c 0
 209 693 250 698 284 698 c 0xec
 333 698 368 684 368 662 c 0
 368 660 367 656 366 653 c 1
 417 720 480 724 505 724 c 0
 547 724 583 711 583 688 c 0
 583 672 551 623 531 623 c 0
 514 623 506 683 469 683 c 0
 398 683 394 552 394 524 c 2
 394 392 l 1
 507 392 l 1
 495 344 l 1
 394 344 l 1
 394 62 l 2
 394 35 396 32 453 32 c 2
 470 32 l 1
 470 0 l 1
 263 0 l 1
 262 32 l 1
 270 32 l 2
 318 32 324 32 324 59 c 2
 324 344 l 1
 160 344 l 1
 160 62 l 2
 160 35 160 32 203 32 c 2
 228 32 l 1
 229 0 l 1
 24 0 l 1
 24 32 l 1
 49 32 l 2
 82 32 90 35 90 59 c 2
 90 344 l 1
 17 344 l 1xdc
160 392 m 1
 324 392 l 1
 324 500 l 2
 324 532 326 576 345 618 c 1
 336 607 325 597 316 597 c 0
 299 597 298 657 245 657 c 0
 165 657 160 556 160 466 c 2
 160 392 l 1
EndSplineSet
Layer: 2
SplineSet
17 344 m 5xdc
 29 392 l 5
 90 392 l 5
 90 471 l 6
 90 551 99 619 160 660 c 4
 209 693 250 698 284 698 c 4xec
 333 698 368 684 368 662 c 4
 368 660 367 656 366 653 c 5
 417 720 480 724 505 724 c 4
 547 724 583 711 583 688 c 4
 583 672 551 623 531 623 c 4
 514 623 506 683 469 683 c 4
 398 683 394 552 394 524 c 6
 394 392 l 5
 507 392 l 5
 495 344 l 5
 394 344 l 5
 394 62 l 6
 394 27 403 34 470 32 c 5
 470 0 l 5
 263 0 l 5
 262 32 l 5
 312 34 324 27 324 59 c 6
 324 344 l 5
 160 344 l 5
 160 62 l 6
 160 27 161 34 228 32 c 5
 229 0 l 5
 24 0 l 5
 24 32 l 5
 74 34 90 27 90 59 c 6
 90 344 l 5
 17 344 l 5xdc
160 392 m 5
 324 392 l 5
 324 500 l 6
 324 532 326 576 345 618 c 5
 336 607 325 597 316 597 c 4
 299 597 298 657 245 657 c 4
 165 657 160 556 160 466 c 6
 160 392 l 5
EndSplineSet
Ligature2: "'liga' Standard Ligatures in Latin lookup 12 subtable" f f
LCarets2: 1 0 
EndChar

StartChar: f_f_i
Encoding: 65540 -1 74
Width: 728
VWidth: 0
Flags: HMW
HStem: 0 32<24 89.0007 160.419 228 259 323.068 394.763 467 498 561.309 632.461 692> 344 48<29 90 160 324 394 559.875> 657 41<193.589 313.5> 687 38<435.285 541.5>
VStem: 90 70<33.1426 344 392 603.275> 324 70<32.5124 344 392 611.204> 562 70<33.3293 342.901>
AnchorPoint: "r;hi" 628 684 basechar 0
AnchorPoint: "r;o" 728 195 basechar 0
AnchorPoint: "r;x" 713 376 basechar 0
AnchorPoint: "r;bl" 728 15 basechar 0
AnchorPoint: "l;bl" 10 15 basechar 0
AnchorPoint: "l;x" 0 376 basechar 0
AnchorPoint: "l;hi" 68 684 basechar 0
AnchorPoint: "l;o" 10 195 basechar 0
LayerCount: 3
Fore
SplineSet
17 344 m 1xde
 29 392 l 1
 90 392 l 1
 90 471 l 2
 90 551 99 619 160 660 c 0
 209 693 255 698 289 698 c 0xee
 338 698 373 684 373 662 c 0
 373 660 372 656 371 653 c 1
 422 720 492 725 517 725 c 0
 566 725 612 709 612 685 c 0
 612 665 581 630 558 630 c 0
 545 630 518 687 474 687 c 0
 411 687 394 590 394 524 c 2
 394 392 l 1
 505 392 l 2
 535 392 579 392 632 406 c 1
 632 59 l 2
 632 33 636 32 665 32 c 2
 692 32 l 1
 692 0 l 1
 498 0 l 1
 498 32 l 1
 520 32 l 2
 551 32 562 34 562 55 c 2
 562 308 l 2
 562 344 561 344 497 344 c 2
 394 344 l 1
 394 62 l 2
 394 33 398 32 438 32 c 2
 467 32 l 1
 467 0 l 1
 259 0 l 1
 259 32 l 1
 285 32 l 2
 314 32 324 33 324 59 c 2
 324 344 l 1
 160 344 l 1
 160 62 l 2
 160 35 160 32 197 32 c 2
 228 32 l 1
 229 0 l 1
 24 0 l 1
 24 32 l 1
 53 32 l 2
 80 32 90 35 90 59 c 2
 90 344 l 1
 17 344 l 1xde
160 392 m 1
 324 392 l 1
 324 507 l 2
 324 537 326 570 348 618 c 1
 339 607 328 597 319 597 c 0
 299 597 292 657 242 657 c 0
 162 657 160 556 160 466 c 2
 160 392 l 1
EndSplineSet
Layer: 2
SplineSet
17 344 m 5xde
 29 392 l 5
 90 392 l 5
 90 471 l 6
 90 551 99 619 160 660 c 4
 209 693 255 698 289 698 c 4xee
 338 698 373 684 373 662 c 4
 373 660 372 656 371 653 c 5
 422 720 492 725 517 725 c 4
 566 725 612 709 612 685 c 4
 612 665 581 630 558 630 c 4
 545 630 518 687 474 687 c 4
 411 687 394 590 394 524 c 6
 394 392 l 5
 505 392 l 6
 535 392 579 392 632 406 c 5
 632 59 l 6
 632 33 636 32 665 32 c 6
 692 32 l 5
 692 0 l 5
 498 0 l 5
 498 32 l 5
 543 34 562 28 562 55 c 6
 562 308 l 6
 562 344 561 344 497 344 c 6
 394 344 l 5
 394 62 l 6
 394 33 398 32 438 32 c 6
 467 32 l 5
 467 0 l 5
 259 0 l 5
 259 32 l 5
 285 32 l 6
 314 32 324 33 324 59 c 6
 324 344 l 5
 160 344 l 5
 160 62 l 6
 160 27 161 34 228 32 c 5
 229 0 l 5
 24 0 l 5
 24 32 l 5
 74 34 90 27 90 59 c 6
 90 344 l 5
 17 344 l 5xde
160 392 m 5
 324 392 l 5
 324 507 l 6
 324 537 326 570 348 618 c 5
 339 607 328 597 319 597 c 4
 299 597 292 657 242 657 c 4
 162 657 160 556 160 466 c 6
 160 392 l 5
EndSplineSet
Ligature2: "'liga' Standard Ligatures in Latin lookup 12 subtable" f f i
LCarets2: 2 0 0 
EndChar

StartChar: f_f_l
Encoding: 65541 -1 75
Width: 715
VWidth: 0
Flags: HW
HStem: 0 32<24 88.8135 160.461 228 261 323.5 394.825 465 496 559.682 631.824 697> 344 48<29 90 160 324 394 495> 657 41<195.539 286.823> 683 41<429.32 515.5>
VStem: 90 70<32.7261 344 392 603.275> 324 70<32.4068 344 392 617.387> 561 70<32.9418 645>
AnchorPoint: "r;bl" 715 15 basechar 0
AnchorPoint: "r;x" 710 376 basechar 0
AnchorPoint: "r;hi" 710 684 basechar 0
AnchorPoint: "r;o" 710 195 basechar 0
AnchorPoint: "l;o" 10 195 basechar 0
AnchorPoint: "l;hi" 68 684 basechar 0
AnchorPoint: "l;x" 0 376 basechar 0
AnchorPoint: "l;bl" 10 15 basechar 0
LayerCount: 3
Fore
SplineSet
17 344 m 1xde
 29 392 l 1
 90 392 l 1
 90 471 l 2
 90 551 99 619 160 660 c 0
 209 693 250 698 284 698 c 0xee
 333 698 368 684 368 662 c 0
 368 660 367 656 366 653 c 1
 386 680 432 724 505 724 c 0
 526 724 546 720 560 714 c 1
 584 717 607 722 631 726 c 1
 631 59 l 2
 631 34 637 32 678 32 c 2
 697 32 l 1
 698 0 l 1
 495 0 l 1
 496 32 l 1
 517 32 l 2
 549 32 561 34 561 59 c 2
 561 645 l 1
 547 633 542 623 531 623 c 0
 514 623 506 683 469 683 c 0
 398 683 394 552 394 524 c 2
 394 392 l 1
 507 392 l 1
 495 344 l 1
 394 344 l 1
 394 62 l 2
 394 35 398 32 430 32 c 2
 465 32 l 1
 466 0 l 1
 261 0 l 1
 261 32 l 1
 290 32 l 2
 318 32 324 34 324 57 c 2
 324 344 l 1
 160 344 l 1
 160 62 l 2
 160 35 160 32 204 32 c 2
 228 32 l 1
 229 0 l 1
 24 0 l 1
 24 32 l 1
 53 32 l 2
 79 32 90 35 90 59 c 2
 90 344 l 1
 17 344 l 1xde
160 392 m 1
 324 392 l 1
 324 500 l 2
 324 583 342 607 345 618 c 1
 336 607 325 597 316 597 c 0
 299 597 298 657 245 657 c 0
 165 657 160 556 160 466 c 2
 160 392 l 1
EndSplineSet
Layer: 2
SplineSet
17 344 m 5xcf
 29 392 l 5
 90 392 l 5
 90 471 l 6
 90 551 99 619 160 660 c 4
 209 693 250 698 284 698 c 4xd7
 333 698 368 684 368 662 c 4
 368 660 367 656 366 653 c 5
 386 680 432 724 505 724 c 4xcf
 526 724 546 720 560 714 c 5
 584 717 607 722 631 726 c 5
 631 59 l 6
 631 30 638 33 697 32 c 5
 698 0 l 5
 495 0 l 5
 496 32 l 5
 517 32 l 6
 549 32 561 34 561 59 c 6
 561 645 l 5
 547 633 542 623 531 623 c 4xe7
 514 623 506 683 469 683 c 4
 398 683 394 552 394 524 c 6
 394 392 l 5
 507 392 l 5
 495 344 l 5
 394 344 l 5
 394 62 l 6
 394 27 398 34 465 32 c 5
 466 0 l 5
 261 0 l 5
 261 32 l 5
 290 32 l 6
 318 32 324 34 324 57 c 6
 324 344 l 5
 160 344 l 5
 160 62 l 6
 160 27 161 34 228 32 c 5
 229 0 l 5
 24 0 l 5
 24 32 l 5
 74 34 90 27 90 59 c 6
 90 344 l 5
 17 344 l 5xcf
160 392 m 5
 324 392 l 5
 324 500 l 6
 324 583 342 607 345 618 c 5
 336 607 325 597 316 597 c 4
 299 597 298 657 245 657 c 4
 165 657 160 556 160 466 c 6
 160 392 l 5
EndSplineSet
Ligature2: "'liga' Standard Ligatures in Latin lookup 12 subtable" f f l
LCarets2: 2 0 0 
EndChar

StartChar: f_j
Encoding: 65542 -1 76
Width: 489
Flags: HMW
HStem: -261 45<233 310.045> 0 32<24 89.0007 160.584 232> 344 48<29 90 160 325.375> 687 38<202.625 307.5>
VStem: 90 70<33.1445 344 392 614.157> 327 70<-181.072 342.901>
AnchorPoint: "r;hi" 394 684 basechar 0
AnchorPoint: "r;o" 489 195 basechar 0
AnchorPoint: "r;x" 489 376 basechar 0
AnchorPoint: "r;bl" 489 15 basechar 0
AnchorPoint: "l;k;lo" 163 -244 basechar 0
AnchorPoint: "r;lo" 416 -244 basechar 0
AnchorPoint: "l;bl" 10 15 basechar 0
AnchorPoint: "l;x" 0 376 basechar 0
AnchorPoint: "l;hi" 58 684 basechar 0
AnchorPoint: "l;o" 10 195 basechar 0
LayerCount: 3
Fore
SplineSet
17 344 m 1
 29 392 l 1
 90 392 l 1
 90 521 l 2
 90 626 168 725 283 725 c 0
 332 725 378 709 378 685 c 0
 378 665 347 630 324 630 c 0
 311 630 284 687 239 687 c 0
 178 687 160 592 160 534 c 2
 160 392 l 1
 271 392 l 2
 301 392 344 392 397 406 c 1
 397 -48 l 2
 397 -159 375 -197 341 -222 c 1
 341 -222 292 -261 250 -261 c 0
 216 -261 172 -237 172 -222 c 0
 172 -201 205 -173 227 -173 c 0
 242 -173 265 -216 281 -216 c 0
 315 -216 327 -165 327 -80 c 2
 327 308 l 2
 327 344 326 344 262 344 c 2
 160 344 l 1
 160 60 l 2
 160 35 162 32 201 32 c 2
 232 32 l 1
 232 0 l 1
 24 0 l 1
 24 32 l 1
 45 32 l 2
 82 32 90 35 90 59 c 2
 90 344 l 1
 17 344 l 1
EndSplineSet
Layer: 2
SplineSet
17 344 m 5
 29 392 l 5
 90 392 l 5
 90 521 l 6
 90 626 168 725 283 725 c 4
 332 725 378 709 378 685 c 4
 378 665 347 630 324 630 c 4
 311 630 284 687 239 687 c 4
 178 687 160 592 160 534 c 6
 160 392 l 5
 271 392 l 6
 301 392 344 392 397 406 c 5
 397 -48 l 6
 397 -159 375 -197 341 -222 c 4
 341 -222 292 -261 250 -261 c 4
 216 -261 172 -237 172 -222 c 4
 172 -201 205 -173 227 -173 c 4
 242 -173 265 -216 281 -216 c 4
 315 -216 327 -165 327 -80 c 6
 327 308 l 6
 327 344 326 344 262 344 c 6
 160 344 l 5
 160 60 l 6
 160 27 165 34 232 32 c 5
 232 0 l 5
 24 0 l 5
 24 32 l 5
 74 34 90 27 90 59 c 6
 90 344 l 5
 17 344 l 5
EndSplineSet
Ligature2: "'liga' Standard Ligatures in Latin lookup 12 subtable" f j
LCarets2: 1 0 
EndChar

StartChar: f_f_j
Encoding: 65543 -1 77
Width: 723
Flags: HMW
HStem: -261 45<468 544.465> 0 32<24 89.0007 160.419 228 259 323.068 394.665 467> 344 48<29 90 160 324 394 559.875> 657 41<193.589 313.5> 687 38<435.285 541.5>
VStem: 90 70<33.1426 344 392 603.275> 324 70<32.5124 344 392 611.204> 562 70<-179.875 342.901>
AnchorPoint: "r;hi" 628 684 basechar 0
AnchorPoint: "r;o" 723 195 basechar 0
AnchorPoint: "r;x" 723 376 basechar 0
AnchorPoint: "r;bl" 723 15 basechar 0
AnchorPoint: "l;k;lo" 397 -244 basechar 0
AnchorPoint: "r;lo" 650 -244 basechar 0
AnchorPoint: "l;o" 10 195 basechar 0
AnchorPoint: "l;hi" 68 684 basechar 0
AnchorPoint: "l;x" 0 376 basechar 0
AnchorPoint: "l;bl" 10 15 basechar 0
LayerCount: 3
Fore
SplineSet
17 344 m 1xef
 29 392 l 1
 90 392 l 1
 90 471 l 2
 90 551 99 619 160 660 c 0
 209 693 255 698 289 698 c 0xf7
 338 698 373 684 373 662 c 0
 373 660 372 656 371 653 c 1
 422 720 492 725 517 725 c 0
 566 725 612 709 612 685 c 0
 612 665 581 630 558 630 c 0
 545 630 518 687 474 687 c 0
 411 687 394 590 394 524 c 2
 394 392 l 1
 505 392 l 2
 535 392 579 392 632 406 c 1
 632 -48 l 2
 632 -159 609 -197 575 -222 c 1
 575 -222 527 -261 485 -261 c 0
 451 -261 407 -237 407 -222 c 0
 407 -201 439 -173 461 -173 c 0
 476 -173 499 -216 515 -216 c 0
 549 -216 562 -165 562 -80 c 2
 562 308 l 2
 562 344 561 344 497 344 c 2
 394 344 l 1
 394 62 l 2
 394 33 397 32 438 32 c 2
 467 32 l 1
 467 0 l 1
 259 0 l 1
 259 32 l 1
 285 32 l 2
 314 32 324 33 324 59 c 2
 324 344 l 1
 160 344 l 1
 160 62 l 2
 160 34 162 32 203 32 c 2
 228 32 l 1
 229 0 l 1
 24 0 l 1
 24 32 l 1
 54 32 l 2
 81 32 90 35 90 59 c 2
 90 344 l 1
 17 344 l 1xef
160 392 m 1
 324 392 l 1
 324 507 l 2
 324 537 326 570 348 618 c 1
 339 607 328 597 319 597 c 0
 299 597 292 657 242 657 c 0
 162 657 160 556 160 466 c 2
 160 392 l 1
EndSplineSet
Layer: 2
SplineSet
17 344 m 1xef
 29 392 l 1
 90 392 l 1
 90 471 l 2
 90 551 99 619 160 660 c 0
 209 693 255 698 289 698 c 0xf7
 338 698 373 684 373 662 c 0
 373 660 372 656 371 653 c 1
 422 720 492 725 517 725 c 0
 566 725 612 709 612 685 c 0
 612 665 581 630 558 630 c 0
 545 630 518 687 474 687 c 0
 411 687 394 590 394 524 c 2
 394 392 l 1
 505 392 l 2
 535 392 579 392 632 406 c 1
 632 -48 l 2
 632 -159 609 -197 575 -222 c 1
 575 -222 527 -261 485 -261 c 0
 451 -261 407 -237 407 -222 c 0
 407 -201 439 -173 461 -173 c 0
 476 -173 499 -216 515 -216 c 0
 549 -216 562 -165 562 -80 c 2
 562 308 l 2
 562 344 561 344 497 344 c 2
 394 344 l 1
 394 62 l 2
 394 33 397 32 438 32 c 2
 467 32 l 1
 467 0 l 1
 259 0 l 1
 259 32 l 1
 285 32 l 2
 314 32 324 33 324 59 c 2
 324 344 l 1
 160 344 l 1
 160 62 l 2
 160 27 161 34 228 32 c 1
 229 0 l 1
 24 0 l 1
 24 32 l 1
 74 34 90 27 90 59 c 2
 90 344 l 1
 17 344 l 1xef
160 392 m 1
 324 392 l 1
 324 507 l 2
 324 537 326 570 348 618 c 1
 339 607 328 597 319 597 c 0
 299 597 292 657 242 657 c 0
 162 657 160 556 160 466 c 2
 160 392 l 1
EndSplineSet
Ligature2: "'liga' Standard Ligatures in Latin lookup 12 subtable" f f j
LCarets2: 2 0 0 
EndChar

StartChar: f_b
Encoding: 65544 -1 78
Width: 745
Flags: HMW
HStem: -9 36<431.133 579.592> 0 32<27 89.162 160.654 231> 344 48<29 90 160 261> 345 54<455.305 582.374> 683 41<194.528 281.5>
VStem: 90 70<32.9844 344 392 620.531> 326 70<54.4414 322.199 336 645> 648 73<113.988 275.2>
AnchorPoint: "r;o" 745 195 basechar 0
AnchorPoint: "r;hi" 452 684 basechar 0
AnchorPoint: "r;x" 726 376 basechar 0
AnchorPoint: "r;bl" 726 15 basechar 0
AnchorPoint: "l;bl" 10 15 basechar 0
AnchorPoint: "l;x" 0 376 basechar 0
AnchorPoint: "l;hi" 58 684 basechar 0
AnchorPoint: "l;o" 10 195 basechar 0
LayerCount: 3
Fore
SplineSet
17 344 m 1x6f
 29 392 l 1
 90 392 l 1x6f
 90 500 l 2
 90 555 93 644 188 703 c 0
 212 718 243 724 271 724 c 0
 292 724 311 720 325 714 c 1
 349 717 372 722 396 726 c 1
 396 336 l 1
 411 347 462 399 537 399 c 0
 662 399 721 308 721 212 c 0
 721 104 647 -9 514 -9 c 0x9f
 445 -9 395 21 380 21 c 0
 365 21 349 -2 334 -2 c 0
 329 -2 323 3 323 21 c 0
 323 35 326 75 326 155 c 2
 326 645 l 1
 312 633 307 623 296 623 c 0
 279 623 272 683 235 683 c 0
 164 683 160 552 160 524 c 2
 160 392 l 1
 272 392 l 1
 261 344 l 1
 160 344 l 1
 160 62 l 2
 160 35 164 32 201 32 c 2
 231 32 l 1
 232 0 l 1
 26 0 l 1
 27 32 l 1
 56 32 l 2
 82 32 90 35 90 59 c 2
 90 344 l 1
 17 344 l 1x6f
396 98 m 2
 396 50 454 27 503 27 c 0
 558 27 648 49 648 176 c 0
 648 333 538 345 512 345 c 0x9f
 438 345 396 308 396 308 c 1
 396 98 l 2
EndSplineSet
Layer: 2
SplineSet
17 344 m 5x6f
 29 392 l 5
 90 392 l 5x6f
 90 500 l 6
 90 555 93 644 188 703 c 4
 212 718 243 724 271 724 c 4
 292 724 311 720 325 714 c 5
 349 717 372 722 396 726 c 5
 396 336 l 5
 411 347 462 399 537 399 c 4
 662 399 721 308 721 212 c 4
 721 104 647 -9 514 -9 c 4x9f
 445 -9 395 21 380 21 c 4
 365 21 349 -2 334 -2 c 4
 329 -2 323 3 323 21 c 4
 323 35 326 75 326 155 c 6
 326 645 l 5
 312 633 307 623 296 623 c 4
 279 623 272 683 235 683 c 4
 164 683 160 552 160 524 c 6
 160 392 l 5
 272 392 l 5
 261 344 l 5
 160 344 l 5
 160 62 l 6
 160 27 164 34 231 32 c 5
 232 0 l 5
 26 0 l 5
 27 32 l 5
 77 34 90 27 90 59 c 6
 90 344 l 5
 17 344 l 5x6f
396 98 m 6
 396 50 454 27 503 27 c 4
 558 27 648 49 648 176 c 4
 648 333 538 345 512 345 c 4x9f
 438 345 396 308 396 308 c 5
 396 98 l 6
EndSplineSet
Ligature2: "'liga' Standard Ligatures in Latin lookup 12 subtable" f b
LCarets2: 1 0 
EndChar

StartChar: f_f_b
Encoding: 65545 -1 79
Width: 979
Flags: HMW
HStem: -9 36<665.906 814.361> 0 32<24 89.0007 160.419 228 261 323.5 394.654 465> 344 48<29 90 160 324 394 495> 345 54<689.603 816.374> 657 41<195.539 286.823> 683 41<429.32 515.5>
VStem: 90 70<33.1426 344 392 603.275> 324 70<33.0259 344 392 617.387> 561 70<54.4414 322.199 336 645> 882 73<111.898 275.2>
AnchorPoint: "r;o" 979 195 basechar 0
AnchorPoint: "r;hi" 687 684 basechar 0
AnchorPoint: "r;x" 960 376 basechar 0
AnchorPoint: "r;bl" 960 15 basechar 0
AnchorPoint: "l;o" 10 195 basechar 0
AnchorPoint: "l;hi" 68 684 basechar 0
AnchorPoint: "l;x" 0 376 basechar 0
AnchorPoint: "l;bl" 10 15 basechar 0
LayerCount: 3
Fore
SplineSet
17 344 m 1x67c0
 29 392 l 1
 90 392 l 1
 90 471 l 2
 90 551 99 619 160 660 c 0
 209 693 250 698 284 698 c 0x6bc0
 333 698 368 684 368 662 c 0
 368 660 367 656 366 653 c 1
 386 680 432 724 505 724 c 0
 526 724 546 720 560 714 c 1
 584 717 607 722 631 726 c 1
 631 336 l 1
 646 347 696 399 771 399 c 0
 896 399 955 308 955 212 c 0
 955 104 882 -9 749 -9 c 0x97c0
 680 -9 629 21 614 21 c 0
 599 21 584 -2 569 -2 c 0
 564 -2 558 3 558 21 c 0
 558 35 561 75 561 155 c 2
 561 645 l 1
 547 633 542 623 531 623 c 0
 514 623 506 683 469 683 c 0
 398 683 394 552 394 524 c 2
 394 392 l 1
 507 392 l 1
 495 344 l 1
 394 344 l 1
 394 62 l 2
 394 35 394 32 440 32 c 2
 466 32 l 1
 467 0 l 1
 261 0 l 1
 261 32 l 1
 290 32 l 2
 318 32 324 34 324 57 c 2
 324 344 l 1
 160 344 l 1
 160 62 l 2
 160 35 162 32 194 32 c 2
 228 32 l 1
 229 0 l 1
 24 0 l 1
 24 32 l 1
 53 32 l 2
 79 32 90 35 90 59 c 2
 90 344 l 1
 17 344 l 1x67c0
160 392 m 1
 324 392 l 1
 324 500 l 2
 324 583 342 607 345 618 c 1
 336 607 325 597 316 597 c 0
 299 597 298 657 245 657 c 0
 165 657 160 556 160 466 c 2
 160 392 l 1
631 98 m 2
 631 50 689 27 738 27 c 0
 793 27 882 49 882 176 c 0
 882 333 772 345 746 345 c 0x93c0
 672 345 631 308 631 308 c 1
 631 98 l 2
EndSplineSet
Layer: 2
SplineSet
17 344 m 5x67c0
 29 392 l 5
 90 392 l 5
 90 471 l 6
 90 551 99 619 160 660 c 4
 209 693 250 698 284 698 c 4x6bc0
 333 698 368 684 368 662 c 4
 368 660 367 656 366 653 c 5
 386 680 432 724 505 724 c 4
 526 724 546 720 560 714 c 5
 584 717 607 722 631 726 c 5
 631 336 l 5
 646 347 696 399 771 399 c 4
 896 399 955 308 955 212 c 4
 955 104 882 -9 749 -9 c 4x97c0
 680 -9 629 21 614 21 c 4
 599 21 584 -2 569 -2 c 4
 564 -2 558 3 558 21 c 4
 558 35 561 75 561 155 c 6
 561 645 l 5
 547 633 542 623 531 623 c 4
 514 623 506 683 469 683 c 4
 398 683 394 552 394 524 c 6
 394 392 l 5
 507 392 l 5
 495 344 l 5
 394 344 l 5
 394 62 l 6
 394 27 398 34 465 32 c 5
 467 0 l 5
 261 0 l 5
 261 32 l 5
 290 32 l 6
 318 32 324 34 324 57 c 6
 324 344 l 5
 160 344 l 5
 160 62 l 6
 160 27 161 34 228 32 c 5
 229 0 l 5
 24 0 l 5
 24 32 l 5
 74 34 90 27 90 59 c 6
 90 344 l 5
 17 344 l 5x67c0
160 392 m 5
 324 392 l 5
 324 500 l 6
 324 583 342 607 345 618 c 5
 336 607 325 597 316 597 c 4
 299 597 298 657 245 657 c 4
 165 657 160 556 160 466 c 6
 160 392 l 5
631 98 m 6
 631 50 689 27 738 27 c 4
 793 27 882 49 882 176 c 4
 882 333 772 345 746 345 c 4x93c0
 672 345 631 308 631 308 c 5
 631 98 l 6
EndSplineSet
Ligature2: "'liga' Standard Ligatures in Latin lookup 12 subtable" f f b
LCarets2: 2 0 0 
EndChar

StartChar: f_h
Encoding: 65546 -1 80
Width: 716
Flags: HMW
HStem: 0 32<27 89.162 160.654 231 270 325.414 396.699 465 507 568.721 640.667 699> 344 48<29 90 160 261 463.518 548.41> 683 41<194.528 281.5>
VStem: 90 70<32.9844 344 392 620.531> 326 70<33.5326 307.251 321 645> 570 70<33.3887 319.658>
AnchorPoint: "top" 503 732 basechar 0
AnchorPoint: "r;hi" 425 684 basechar 0
AnchorPoint: "r;bl" 716 15 basechar 0
AnchorPoint: "r;x" 662 376 basechar 0
AnchorPoint: "r;o" 706 195 basechar 0
AnchorPoint: "l;bl" 10 15 basechar 0
AnchorPoint: "l;x" 0 376 basechar 0
AnchorPoint: "l;hi" 58 684 basechar 0
AnchorPoint: "l;o" 10 195 basechar 0
LayerCount: 3
Fore
SplineSet
17 344 m 1
 29 392 l 1
 90 392 l 1
 90 500 l 2
 90 555 93 644 188 703 c 0
 212 718 243 724 271 724 c 0
 292 724 311 720 325 714 c 1
 349 717 372 722 396 726 c 1
 396 321 l 1
 422 342 480 395 544 395 c 0
 638 395 640 313 640 234 c 2
 640 61 l 2
 640 34 644 32 673 32 c 2
 699 32 l 1
 699 0 l 1
 507 0 l 1
 506 32 l 1
 521 32 l 2
 558 32 570 34 570 60 c 2
 570 263 l 2
 570 322 532 339 502 339 c 0
 451 339 396 291 396 291 c 1
 396 55 l 2
 396 34 405 32 453 32 c 2
 466 32 l 1
 465 0 l 1
 270 0 l 1
 269 32 l 1
 275 32 l 2
 315 32 326 33 326 55 c 2
 326 645 l 1
 312 633 307 623 296 623 c 0
 279 623 272 683 235 683 c 0
 164 683 160 552 160 524 c 2
 160 392 l 1
 272 392 l 1
 261 344 l 1
 160 344 l 1
 160 62 l 2
 160 33 160 32 214 32 c 2
 231 32 l 1
 232 0 l 1
 26 0 l 1
 27 32 l 1
 34 32 l 2
 88 32 90 35 90 59 c 2
 90 344 l 1
 17 344 l 1
EndSplineSet
Layer: 2
SplineSet
17 344 m 5
 29 392 l 5
 90 392 l 5
 90 500 l 6
 90 555 93 644 188 703 c 4
 212 718 243 724 271 724 c 4
 292 724 311 720 325 714 c 5
 349 717 372 722 396 726 c 5
 396 321 l 5
 422 342 480 395 544 395 c 4
 638 395 640 313 640 234 c 6
 640 61 l 6
 640 28 645 33 699 32 c 5
 699 0 l 5
 507 0 l 5
 506 32 l 5
 557 33 570 30 570 60 c 6
 570 263 l 6
 570 322 532 339 502 339 c 4
 451 339 396 291 396 291 c 5
 396 55 l 6
 396 27 415 35 466 32 c 5
 465 0 l 5
 270 0 l 5
 269 32 l 5
 310 33 326 30 326 55 c 6
 326 645 l 5
 312 633 307 623 296 623 c 4
 279 623 272 683 235 683 c 4
 164 683 160 552 160 524 c 6
 160 392 l 5
 272 392 l 5
 261 344 l 5
 160 344 l 5
 160 62 l 6
 160 27 164 34 231 32 c 5
 232 0 l 5
 26 0 l 5
 27 32 l 5
 77 34 90 27 90 59 c 6
 90 344 l 5
 17 344 l 5
EndSplineSet
Ligature2: "'liga' Standard Ligatures in Latin lookup 12 subtable" f h
LCarets2: 1 0 
EndChar

StartChar: f_f_h
Encoding: 65547 -1 81
Width: 950
Flags: HMW
HStem: 0 32<24 89.0007 160.419 228 261 323.5 394.733 466 501 560.701 631.699 700 742 803.721 875.588 933> 344 48<29 90 160 324 394 495 698.096 828.002> 657 41<195.539 286.823> 683 41<429.32 515.5>
VStem: 90 70<33.1426 344 392 603.275> 324 70<33.0363 344 392 617.387> 561 70<33.5092 307.251 321 645> 805 70<33.3887 319.658>
AnchorPoint: "top" 738 732 basechar 0
AnchorPoint: "r;hi" 660 684 basechar 0
AnchorPoint: "r;bl" 950 15 basechar 0
AnchorPoint: "r;x" 896 376 basechar 0
AnchorPoint: "r;o" 940 195 basechar 0
AnchorPoint: "l;o" 10 195 basechar 0
AnchorPoint: "l;hi" 68 684 basechar 0
AnchorPoint: "l;x" 0 376 basechar 0
AnchorPoint: "l;bl" 10 15 basechar 0
LayerCount: 3
Fore
SplineSet
17 344 m 1xdf
 29 392 l 1
 90 392 l 1
 90 471 l 2
 90 551 99 619 160 660 c 0
 209 693 250 698 284 698 c 0xef
 333 698 368 684 368 662 c 0
 368 660 367 656 366 653 c 1
 386 680 432 724 505 724 c 0
 526 724 546 720 560 714 c 1
 584 717 607 722 631 726 c 1
 631 321 l 1
 657 342 715 395 779 395 c 0
 873 395 875 313 875 234 c 2
 875 61 l 2
 875 34 877 32 912 32 c 2
 933 32 l 1
 933 0 l 1
 742 0 l 1
 741 32 l 1
 757 32 l 2
 794 32 805 34 805 60 c 2
 805 263 l 2
 805 322 766 339 736 339 c 0
 685 339 631 291 631 291 c 1
 631 55 l 2
 631 34 639 32 688 32 c 2
 701 32 l 1
 700 0 l 1
 501 0 l 1
 501 32 l 1
 524 32 l 2
 550 32 561 34 561 53 c 2
 561 645 l 1
 547 633 542 623 531 623 c 0
 514 623 506 683 469 683 c 0
 398 683 394 552 394 524 c 2
 394 392 l 1
 507 392 l 1
 495 344 l 1
 394 344 l 1
 394 62 l 2
 394 35 398 32 436 32 c 2
 466 32 l 1
 467 0 l 1
 261 0 l 1
 261 32 l 1
 290 32 l 2
 318 32 324 34 324 57 c 2
 324 344 l 1
 160 344 l 1
 160 62 l 2
 160 35 162 32 198 32 c 2
 228 32 l 1
 229 0 l 1
 24 0 l 1
 24 32 l 1
 53 32 l 2
 80 32 90 35 90 59 c 2
 90 344 l 1
 17 344 l 1xdf
160 392 m 1
 324 392 l 1
 324 500 l 2
 324 583 342 607 345 618 c 1
 336 607 325 597 316 597 c 0
 299 597 298 657 245 657 c 0
 165 657 160 556 160 466 c 2
 160 392 l 1
EndSplineSet
Layer: 2
SplineSet
17 344 m 5xdf
 29 392 l 5
 90 392 l 5
 90 471 l 6
 90 551 99 619 160 660 c 4
 209 693 250 698 284 698 c 4xef
 333 698 368 684 368 662 c 4
 368 660 367 656 366 653 c 5
 386 680 432 724 505 724 c 4
 526 724 546 720 560 714 c 5
 584 717 607 722 631 726 c 5
 631 321 l 5
 657 342 715 395 779 395 c 4
 873 395 875 313 875 234 c 6
 875 61 l 6
 875 28 879 33 933 32 c 5
 933 0 l 5
 742 0 l 5
 741 32 l 5
 792 33 805 30 805 60 c 6
 805 263 l 6
 805 322 766 339 736 339 c 4
 685 339 631 291 631 291 c 5
 631 55 l 6
 631 27 650 35 701 32 c 5
 700 0 l 5
 501 0 l 5
 501 32 l 5
 545 33 561 29 561 53 c 6
 561 645 l 5
 547 633 542 623 531 623 c 4
 514 623 506 683 469 683 c 4
 398 683 394 552 394 524 c 6
 394 392 l 5
 507 392 l 5
 495 344 l 5
 394 344 l 5
 394 62 l 6
 394 27 399 34 466 32 c 5
 467 0 l 5
 261 0 l 5
 261 32 l 5
 290 32 l 6
 318 32 324 34 324 57 c 6
 324 344 l 5
 160 344 l 5
 160 62 l 6
 160 27 161 34 228 32 c 5
 229 0 l 5
 24 0 l 5
 24 32 l 5
 74 34 90 27 90 59 c 6
 90 344 l 5
 17 344 l 5xdf
160 392 m 5
 324 392 l 5
 324 500 l 6
 324 583 342 607 345 618 c 5
 336 607 325 597 316 597 c 4
 299 597 298 657 245 657 c 4
 165 657 160 556 160 466 c 6
 160 392 l 5
EndSplineSet
Ligature2: "'liga' Standard Ligatures in Latin lookup 12 subtable" f f h
LCarets2: 2 0 0 
EndChar

StartChar: f_k
Encoding: 65548 -1 82
Width: 721
VWidth: 0
Flags: HW
HStem: 0 32<27 89.0574 160.825 231 271 325.775 394.488 473 638.81 703> 344 48<29 90 160 261> 365 27<535 585.991 636.762 695> 683 41<194.528 281.5>
VStem: 90 70<32.6505 344 392 620.531> 326 70<32.5742 165 200 645>
AnchorPoint: "r;o" 711 195 basechar 0
AnchorPoint: "r;hi" 433 684 basechar 0
AnchorPoint: "r;x" 721 376 basechar 0
AnchorPoint: "r;bl" 721 15 basechar 0
AnchorPoint: "l;bl" 10 15 basechar 0
AnchorPoint: "l;x" 0 376 basechar 0
AnchorPoint: "l;hi" 58 684 basechar 0
AnchorPoint: "l;o" 10 195 basechar 0
LayerCount: 3
Fore
SplineSet
17 344 m 1xdc
 29 392 l 1
 90 392 l 1xdc
 90 500 l 2
 90 555 93 644 188 703 c 0
 212 718 243 724 271 724 c 0
 292 724 311 720 325 714 c 1
 349 717 372 722 396 726 c 1
 396 200 l 1
 579 349 l 2
 584 353 586 356 586 358 c 0
 586 364 573 365 565 365 c 2
 535 365 l 1
 535 392 l 1
 696 392 l 1
 695 365 l 1
 680 365 l 2xbc
 661 365 650 363 625 343 c 2
 483 230 l 1
 632 56 l 2
 651 34 647 32 677 32 c 2
 704 32 l 1
 703 0 l 1
 585 0 l 1
 429 192 l 1
 394 165 l 1
 394 57 l 2
 394 34 399 32 441 32 c 2
 473 32 l 1
 474 0 l 1
 271 0 l 1
 271 32 l 1
 295 32 l 2
 322 32 326 34 326 54 c 2
 326 645 l 1
 312 633 307 623 296 623 c 0
 279 623 272 683 235 683 c 0
 164 683 160 552 160 524 c 2
 160 392 l 1xdc
 272 392 l 1xbc
 261 344 l 1
 160 344 l 1
 160 62 l 2
 160 35 164 32 196 32 c 2
 231 32 l 1
 232 0 l 1
 26 0 l 1
 27 32 l 1
 51 32 l 2
 82 32 90 35 90 59 c 2
 90 344 l 1
 17 344 l 1xdc
EndSplineSet
Layer: 2
SplineSet
17 344 m 5xc6
 29 392 l 5
 90 392 l 5
 90 500 l 6
 90 555 93 644 188 703 c 4
 212 718 243 724 271 724 c 4xce
 292 724 311 720 325 714 c 5
 349 717 372 722 396 726 c 5
 396 200 l 5
 579 349 l 6
 584 353 586 356 586 358 c 4
 586 364 573 365 565 365 c 6
 535 365 l 5
 535 392 l 5
 696 392 l 5
 695 365 l 5
 680 365 l 6
 661 365 650 363 625 343 c 6
 483 230 l 5
 632 56 l 6
 651 34 647 32 677 32 c 6
 704 32 l 5
 703 0 l 5
 585 0 l 5
 429 192 l 5
 394 165 l 5
 394 57 l 6
 394 29 403 33 473 32 c 5
 474 0 l 5
 271 0 l 5
 271 32 l 5
 295 32 l 6
 322 32 326 34 326 54 c 6
 326 645 l 5
 312 633 307 623 296 623 c 4xb6
 279 623 272 683 235 683 c 4
 164 683 160 552 160 524 c 6
 160 392 l 5xce
 272 392 l 5xa6
 261 344 l 5
 160 344 l 5
 160 62 l 6
 160 27 164 34 231 32 c 5
 232 0 l 5
 26 0 l 5
 27 32 l 5
 77 34 90 27 90 59 c 6
 90 344 l 5
 17 344 l 5xc6
EndSplineSet
Ligature2: "'liga' Standard Ligatures in Latin lookup 12 subtable" f k
LCarets2: 1 0 
EndChar

StartChar: f_f_k
Encoding: 65549 -1 83
Width: 955
Flags: HMW
HStem: 0 32<24 89.1892 160.458 228 261 323.5 395.58 466 503 560.73 628.685 708 873.81 938> 344 48<29 90 160 324 395 495> 365 27<769 819.991 871.683 929> 657 41<195.539 286.823> 683 41<429.32 515.5>
VStem: 90 70<32.8906 344 392 603.275> 324 71<32.2998 344 392 617.387> 561 70<32.7232 165 200 645>
DStem2: 631 200 664 192 0.793386 0.608719<0 21.312 87.2862 246.069> 718 230 664 192 0.628148 -0.778094<0 242.405>
AnchorPoint: "r;o" 945 195 basechar 0
AnchorPoint: "r;hi" 667 684 basechar 0
AnchorPoint: "r;x" 955 376 basechar 0
AnchorPoint: "r;bl" 955 15 basechar 0
AnchorPoint: "l;o" 10 195 basechar 0
AnchorPoint: "l;hi" 68 684 basechar 0
AnchorPoint: "l;x" 0 376 basechar 0
AnchorPoint: "l;bl" 10 15 basechar 0
LayerCount: 3
Fore
SplineSet
17 344 m 1xc7
 29 392 l 1
 90 392 l 1
 90 471 l 2
 90 551 99 619 160 660 c 0
 209 693 250 698 284 698 c 0xd7
 333 698 368 684 368 662 c 0
 368 660 367 656 366 653 c 1
 386 680 432 724 505 724 c 0
 526 724 546 720 560 714 c 1
 584 717 607 722 631 726 c 1
 631 200 l 1
 813 349 l 2
 818 353 820 356 820 358 c 0
 820 364 807 365 799 365 c 2
 769 365 l 1
 769 392 l 1
 930 392 l 1
 929 365 l 1
 914 365 l 2
 895 365 885 363 860 343 c 2
 718 230 l 1
 867 56 l 2
 886 34 882 32 912 32 c 2
 938 32 l 1
 938 0 l 1
 819 0 l 1
 664 192 l 1
 628 165 l 1
 628 57 l 2
 628 34 636 32 678 32 c 2
 708 32 l 1
 708 0 l 1
 503 0 l 1
 503 32 l 1
 528 32 l 2
 556 32 561 34 561 54 c 2
 561 645 l 1
 547 633 542 623 531 623 c 0
 514 623 506 683 469 683 c 0
 398 683 394 552 394 524 c 2
 394 392 l 1
 507 392 l 1xaf
 495 344 l 1
 395 344 l 1
 395 62 l 2
 395 35 397 32 429 32 c 2
 466 32 l 1
 467 0 l 1
 261 0 l 1
 261 32 l 1
 290 32 l 2
 318 32 324 34 324 57 c 2
 324 344 l 1
 160 344 l 1
 160 62 l 2
 160 35 161 32 193 32 c 2
 228 32 l 1
 229 0 l 1
 24 0 l 1
 24 32 l 1
 45 32 l 2
 84 32 90 35 90 59 c 2
 90 344 l 1
 17 344 l 1xc7
160 392 m 1
 325 392 l 1xa7
 325 500 l 2
 325 583 342 607 345 618 c 1
 336 607 325 597 316 597 c 0
 299 597 298 657 245 657 c 0
 165 657 160 556 160 466 c 2
 160 392 l 1
EndSplineSet
Layer: 2
SplineSet
17 344 m 5xc7
 29 392 l 5
 90 392 l 5
 90 471 l 6
 90 551 99 619 160 660 c 4
 209 693 250 698 284 698 c 4xd7
 333 698 368 684 368 662 c 4
 368 660 367 656 366 653 c 5
 386 680 432 724 505 724 c 4
 526 724 546 720 560 714 c 5
 584 717 607 722 631 726 c 5
 631 200 l 5
 813 349 l 6
 818 353 820 356 820 358 c 4
 820 364 807 365 799 365 c 6
 769 365 l 5
 769 392 l 5
 930 392 l 5
 929 365 l 5
 914 365 l 6
 895 365 885 363 860 343 c 6
 718 230 l 5
 867 56 l 6
 886 34 882 32 912 32 c 6
 938 32 l 5
 938 0 l 5
 819 0 l 5
 664 192 l 5
 628 165 l 5
 628 57 l 6
 628 29 638 33 708 32 c 5
 708 0 l 5
 503 0 l 5
 503 32 l 5
 528 32 l 6
 556 32 561 34 561 54 c 6
 561 645 l 5
 547 633 542 623 531 623 c 4
 514 623 506 683 469 683 c 4
 398 683 394 552 394 524 c 6
 394 392 l 5
 507 392 l 5xaf
 495 344 l 5
 395 344 l 5
 395 62 l 6
 395 27 398 34 465 32 c 5
 467 0 l 5
 261 0 l 5
 261 32 l 5
 290 32 l 6
 318 32 324 34 324 57 c 6
 324 344 l 5
 160 344 l 5
 160 62 l 6
 160 27 161 34 228 32 c 5
 229 0 l 5
 24 0 l 5
 24 32 l 5
 74 34 90 27 90 59 c 6
 90 344 l 5
 17 344 l 5xc7
160 392 m 5
 325 392 l 5xa7
 325 500 l 6
 325 583 342 607 345 618 c 5
 336 607 325 597 316 597 c 4
 299 597 298 657 245 657 c 4
 165 657 160 556 160 466 c 6
 160 392 l 5
EndSplineSet
Ligature2: "'liga' Standard Ligatures in Latin lookup 12 subtable" f f k
LCarets2: 2 0 0 
EndChar

StartChar: ampersand
Encoding: 38 38 84
Width: 850
VWidth: 0
Flags: HW
HStem: -20 68<289.401 481.577> -15 77<677.25 788.762> 444 39<507 628.934 680.018 772> 635 38<213.545 321.154>
VStem: 44 93<173.907 309.313> 107 78<494.897 600.12> 352 75<517.022 609.394> 644 49<222.622 432.059>
AnchorPoint: "l;bl" 40 15 basechar 0
AnchorPoint: "l;x" 20 376 basechar 0
AnchorPoint: "l;hi" 20 684 basechar 0
AnchorPoint: "l;o" 0 195 basechar 0
AnchorPoint: "r;bl" 850 15 basechar 0
AnchorPoint: "r;x" 790 376 basechar 0
AnchorPoint: "r;hi" 780 684 basechar 0
AnchorPoint: "r;o" 810 195 basechar 0
LayerCount: 3
Fore
SplineSet
44 225 m 0xbb
 44 361 173 391 176 392 c 1
 171 396 107 461 107 526 c 0
 107 602 169 673 278 673 c 0
 356 673 427 622 427 562 c 0
 427 521 397 470 342 470 c 0
 320 470 286 480 286 494 c 0
 286 509 352 503 352 557 c 0
 352 603 311 635 268 635 c 0
 226 635 185 604 185 561 c 0
 185 498 238 448 373 323 c 0
 482 221 526 191 557 167 c 2
 584 146 l 1
 586 150 644 224 644 331 c 0
 644 360 644 369 637 400 c 0
 627 445 619 443 507 444 c 1
 505 483 l 1
 772 483 l 1
 773 444 l 1
 704 443 680 446 680 432 c 0
 680 421 693 422 693 328 c 0
 693 227 621 121 621 121 c 1
 664 92 700 62 751 62 c 0
 788 62 803 73 816 73 c 0
 823 73 826 70 826 62 c 0
 826 22 775 -15 707 -15 c 0x77
 655 -15 563 53 563 53 c 1
 563 53 504 -20 351 -20 c 0
 199 -20 44 60 44 225 c 0xbb
137 256 m 0xbb
 137 127 283 48 397 48 c 0
 484 48 522 79 525 80 c 1
 439 143 l 1
 388 182 291 270 202 364 c 1
 170 356 137 316 137 256 c 0xbb
EndSplineSet
AlternateSubs2: "'aalt' Access All Alternates lookup 0 subtable" ampersand.c2
AlternateSubs2: "'aalt' Access All Alternates in Latin lookup 0 subtable" ampersand.c2
Position2: "'cpsp' Capital Spacing in Latin lookup 3 subtable" dx=6 dy=0 dh=12 dv=0
Substitution2: "'c2sc' Capitals to Small Capitals in Latin lookup 9 subtable" ampersand.c2
EndChar

StartChar: m
Encoding: 109 109 85
Width: 691
VWidth: 0
Flags: HMW
HStem: 0 32<20 86.6811 157.215 215 252 313 383.022 442 480 538.479 609.436 674> 339 56<220.406 299.494 438.687 528.97> 383 20G<57 156.452>
VStem: 87 70<32.8086 319.281 330 353.991> 313 70<32.8309 321.727> 539 70<33.1139 328.936>
CounterMasks: 1 1c
AnchorPoint: "l;bl" 0 15 basechar 0
AnchorPoint: "l;x" 0 376 basechar 0
AnchorPoint: "l;o" 0 195 basechar 0
AnchorPoint: "r;bl" 691 15 basechar 0
AnchorPoint: "r;x" 637 376 basechar 0
AnchorPoint: "r;o" 681 195 basechar 0
LayerCount: 3
Fore
SplineSet
17 344 m 1xdc
 17 375 l 1
 60 381 157 403 157 403 c 25xbc
 157 403 155 369 155 330 c 1
 171 339 230 395 296 395 c 0
 356 395 372 338 374 331 c 1
 406 355 461 395 513 395 c 0
 603 395 609 318 609 263 c 2
 609 57 l 2
 609 33 614 32 664 32 c 2
 674 32 l 1
 674 0 l 1
 480 0 l 1
 480 32 l 1
 532 32 539 32 539 56 c 2
 539 263 l 2
 539 326 519 339 478 339 c 0
 417 339 379 306 379 306 c 1
 379 306 383 275 383 234 c 2
 383 49 l 2
 383 33 387 32 433 32 c 2
 442 32 l 1
 442 0 l 1
 252 0 l 1
 251 32 l 1
 263 32 l 2
 302 32 313 33 313 48 c 2
 313 263 l 2
 313 313 295 339 250 339 c 0
 202 339 157 307 157 307 c 1
 157 54 l 2
 157 34 158 32 210 32 c 2
 215 32 l 1
 215 0 l 1
 20 0 l 1
 19 32 l 1
 47 32 l 2
 79 32 87 34 87 54 c 2
 87 301 l 2
 87 342 87 354 71 354 c 0
 61 354 44 349 17 344 c 1xdc
EndSplineSet
Layer: 2
SplineSet
17 344 m 5xdc
 17 375 l 5
 60 381 157 403 157 403 c 29xbc
 157 403 155 369 155 330 c 5
 171 339 230 395 296 395 c 4
 356 395 372 338 374 331 c 5
 406 355 461 395 513 395 c 4
 603 395 609 318 609 263 c 6
 609 57 l 6
 609 31 614 33 674 32 c 5
 674 0 l 5
 480 0 l 5
 480 32 l 5
 532 32 539 32 539 56 c 6
 539 263 l 6
 539 326 519 339 478 339 c 4
 417 339 379 306 379 306 c 5
 379 306 383 275 383 234 c 6
 383 49 l 6
 383 31 390 33 442 32 c 5
 442 0 l 5
 252 0 l 5
 251 32 l 5
 296 33 313 30 313 48 c 6
 313 263 l 6
 313 313 295 339 250 339 c 4
 202 339 157 307 157 307 c 5
 157 54 l 6
 157 29 164 33 215 32 c 5
 215 0 l 5
 20 0 l 5
 19 32 l 5
 76 33 87 29 87 54 c 6
 87 301 l 6
 87 342 87 354 71 354 c 4
 61 354 44 349 17 344 c 5xdc
EndSplineSet
AlternateSubs2: "'aalt' Access All Alternates lookup 0 subtable" m.sc
AlternateSubs2: "'aalt' Access All Alternates in Latin lookup 0 subtable" m.sc
Substitution2: "'smcp' Lowercase to Small Capitals in Latin lookup 8 subtable" m.sc
EndChar

StartChar: zero.lining
Encoding: 65550 -1 86
Width: 530
VWidth: 0
Flags: HW
HStem: -10 39<203.24 326.628> 594 39<196.884 321.478>
VStem: 27 66<183.922 446.398> 427 76<183.27 454.13>
AnchorPoint: "l;bl" 0 15 basechar 0
AnchorPoint: "l;x" 0 376 basechar 0
AnchorPoint: "l;hi" 0 684 basechar 0
AnchorPoint: "l;o" 0 195 basechar 0
AnchorPoint: "l;lo" 0 -244 basechar 0
AnchorPoint: "r;bl" 530 15 basechar 0
AnchorPoint: "r;x" 530 376 basechar 0
AnchorPoint: "r;hi" 530 684 basechar 0
AnchorPoint: "r;o" 530 195 basechar 0
AnchorPoint: "r;lo" 530 -244 basechar 0
LayerCount: 3
Fore
SplineSet
27 326 m 0
 27 485 135 633 258 633 c 0
 422 633 503 477 503 319 c 0
 503 156 417 -10 256 -10 c 0
 84 -10 27 151 27 326 c 0
93 330 m 0
 93 184 152 29 265 29 c 0
 371 29 427 169 427 309 c 0
 427 499 343 594 259 594 c 0
 156 594 93 464 93 330 c 0
EndSplineSet
EndChar

StartChar: one.lining
Encoding: 65551 -1 87
Width: 530
VWidth: 0
Flags: HW
HStem: 0 32<150 253.522 328.594 449> 569 32<158 252.945>
VStem: 255 71<35.7439 565.39>
AnchorPoint: "l;bl" 0 15 basechar 0
AnchorPoint: "l;x" 0 376 basechar 0
AnchorPoint: "l;hi" 0 684 basechar 0
AnchorPoint: "l;o" 0 195 basechar 0
AnchorPoint: "l;lo" 0 -244 basechar 0
AnchorPoint: "r;bl" 530 15 basechar 0
AnchorPoint: "r;x" 530 376 basechar 0
AnchorPoint: "r;hi" 530 684 basechar 0
AnchorPoint: "r;o" 530 195 basechar 0
AnchorPoint: "r;lo" 530 -244 basechar 0
LayerCount: 3
Fore
SplineSet
150 0 m 1
 150 32 l 1
 199 32 l 2
 249 32 255 34 255 65 c 2
 255 529 l 2
 255 565 250 569 212 569 c 2
 157 569 l 1
 158 601 l 1
 266 601 l 2
 303 601 307 622 317 641 c 1
 334 641 l 1
 334 641 326 505 326 410 c 2
 326 65 l 2
 326 35 333 32 429 32 c 2
 449 32 l 1
 449 0 l 1
 150 0 l 1
EndSplineSet
EndChar

StartChar: two.lining
Encoding: 65552 -1 88
Width: 530
VWidth: 0
Flags: HW
HStem: 0 42<140.006 353.891> 578 48<146.77 289.566>
VStem: 339 86<375.295 527.799>
AnchorPoint: "l;bl" 0 15 basechar 0
AnchorPoint: "l;x" 0 376 basechar 0
AnchorPoint: "l;hi" 0 684 basechar 0
AnchorPoint: "l;o" 0 195 basechar 0
AnchorPoint: "l;lo" 0 -244 basechar 0
AnchorPoint: "r;bl" 530 15 basechar 0
AnchorPoint: "r;x" 530 376 basechar 0
AnchorPoint: "r;hi" 530 684 basechar 0
AnchorPoint: "r;o" 530 195 basechar 0
AnchorPoint: "r;lo" 530 -244 basechar 0
LayerCount: 3
Fore
SplineSet
63 8 m 0
 63 20 105 51 182 141 c 0
 255 226 339 347 339 449 c 0
 339 560 255 578 222 578 c 0
 118 578 117 524 95 524 c 0
 87 524 84 529 84 535 c 0
 84 575 150 626 251 626 c 0
 356 626 425 547 425 463 c 0
 425 385 360 282 294 204 c 0
 220 118 140 55 140 46 c 0
 140 42 148 42 158 42 c 0
 344 42 446 93 464 93 c 0
 469 93 472 91 472 84 c 0
 472 78 459 12 449 6 c 0
 446 4 448 0 405 0 c 2
 87 0 l 2
 77 0 63 1 63 8 c 0
EndSplineSet
EndChar

StartChar: three.lining
Encoding: 65553 -1 89
Width: 530
VWidth: 0
Flags: HW
HStem: -13 42<104.486 302.343> 577 59<148.347 288.57>
VStem: 327 84<432.823 540.003> 372 86<96.2927 239.166>
AnchorPoint: "l;bl" 0 15 basechar 0
AnchorPoint: "l;x" 0 376 basechar 0
AnchorPoint: "l;hi" 0 684 basechar 0
AnchorPoint: "l;o" 0 195 basechar 0
AnchorPoint: "l;lo" 0 -244 basechar 0
AnchorPoint: "r;bl" 530 15 basechar 0
AnchorPoint: "r;x" 530 376 basechar 0
AnchorPoint: "r;hi" 530 684 basechar 0
AnchorPoint: "r;o" 530 195 basechar 0
AnchorPoint: "r;lo" 530 -244 basechar 0
LayerCount: 3
Fore
SplineSet
50 50 m 0xd0
 50 62 62 64 67 64 c 0
 87 64 117 29 215 29 c 0
 340 29 372 121 372 172 c 0xd0
 372 235 310 308 234 322 c 0
 203 328 183 323 183 340 c 0
 183 359 201 359 228 365 c 0
 312 385 327 460 327 488 c 0
 327 526 289 577 220 577 c 0
 132 577 119 534 96 534 c 0
 88 534 84 540 84 549 c 0
 84 566 133 636 247 636 c 0
 329 636 411 586 411 504 c 0xe0
 411 392 272 351 272 351 c 1
 272 351 458 323 458 178 c 0
 458 46 336 -13 221 -13 c 0
 132 -13 50 21 50 50 c 0xd0
EndSplineSet
EndChar

StartChar: four.lining
Encoding: 65554 -1 90
Width: 530
VWidth: 0
Flags: HW
HStem: 160 62<95 317 387 474>
VStem: 317 70<-24 160 222 490>
AnchorPoint: "l;bl" 0 15 basechar 0
AnchorPoint: "l;x" 0 376 basechar 0
AnchorPoint: "l;hi" 0 684 basechar 0
AnchorPoint: "l;o" 0 195 basechar 0
AnchorPoint: "l;lo" 0 -244 basechar 0
AnchorPoint: "r;bl" 530 15 basechar 0
AnchorPoint: "r;x" 530 376 basechar 0
AnchorPoint: "r;hi" 530 684 basechar 0
AnchorPoint: "r;o" 530 195 basechar 0
AnchorPoint: "r;lo" 530 -244 basechar 0
LayerCount: 3
Fore
SplineSet
8 167 m 0
 8 176 18 190 43 220 c 0
 89 274 186 382 366 612 c 0
 372 620 377 624 380 624 c 0
 386 624 387 612 387 599 c 2
 387 222 l 9
 495 222 l 25
 474 160 l 25
 387 160 l 25
 387 -24 l 25
 317 -40 l 25
 317 160 l 17
 22 160 l 2
 15 160 8 160 8 167 c 0
95 222 m 9
 317 222 l 25
 317 490 l 17
 95 222 l 9
EndSplineSet
EndChar

StartChar: five.lining
Encoding: 65555 -1 91
Width: 530
VWidth: 0
Flags: HMW
HStem: -9 36<93.9372 270.685> 380 34<137.546 251.149> 565 45<149.032 347.609>
VStem: 105 32<414.144 550.691> 373 82<122.219 285.942>
AnchorPoint: "l;bl" 0 15 basechar 0
AnchorPoint: "l;x" 0 376 basechar 0
AnchorPoint: "l;hi" 0 684 basechar 0
AnchorPoint: "l;o" 0 195 basechar 0
AnchorPoint: "l;lo" 0 -244 basechar 0
AnchorPoint: "r;bl" 530 15 basechar 0
AnchorPoint: "r;x" 530 376 basechar 0
AnchorPoint: "r;hi" 530 684 basechar 0
AnchorPoint: "r;o" 530 195 basechar 0
AnchorPoint: "r;lo" 530 -244 basechar 0
LayerCount: 3
Fore
SplineSet
51 66 m 0
 74 66 70 27 198 27 c 0
 296 27 373 114 373 204 c 0
 373 346 231 380 151 380 c 0
 137 380 123 379 108 378 c 1
 105 453 l 1
 101 583 95 569 95 600 c 0
 95 610 100 613 110 613 c 0
 136 613 210 610 257 610 c 0
 289 610 322 611 362 617 c 0
 378 619 379 655 379 655 c 1
 403 652 l 1
 391 570 l 2
 388 549 383 542 370 542 c 0
 330 542 186 565 173 565 c 0
 149 565 137 527 137 444 c 0
 137 419 140 414 157 414 c 0
 170 414 209 417 227 417 c 0
 358 417 455 353 455 215 c 0
 455 142 406 -9 201 -9 c 0
 74 -9 40 45 40 55 c 0
 40 58 43 66 51 66 c 0
EndSplineSet
EndChar

StartChar: six.lining
Encoding: 65556 -1 92
Width: 530
VWidth: 0
Flags: HW
HStem: -11 35<235.181 338.417> 344 52<208.681 323.063> 598 37<300.698 431.215>
VStem: 57 90<138.835 346.491> 394 79<104.843 266.181>
AnchorPoint: "l;bl" 0 15 basechar 0
AnchorPoint: "l;x" 0 376 basechar 0
AnchorPoint: "l;hi" 0 684 basechar 0
AnchorPoint: "l;o" 0 195 basechar 0
AnchorPoint: "l;lo" 0 -244 basechar 0
AnchorPoint: "r;bl" 530 15 basechar 0
AnchorPoint: "r;x" 530 376 basechar 0
AnchorPoint: "r;hi" 530 684 basechar 0
AnchorPoint: "r;o" 530 195 basechar 0
AnchorPoint: "r;lo" 530 -244 basechar 0
LayerCount: 3
Fore
SplineSet
57 274 m 0
 57 473 205 635 358 635 c 0
 374 635 444 624 444 603 c 0
 444 595 436 591 430 591 c 0
 422 591 405 598 380 598 c 0
 345 598 311 587 282 571 c 0
 145 496 140 318 132 299 c 1
 173 369 240 396 281 396 c 0
 464 396 473 221 473 209 c 0
 473 67 374 -11 272 -11 c 0
 132 -11 57 116 57 274 c 0
147 229 m 0
 147 115 218 24 287 24 c 0
 339 24 394 73 394 167 c 0
 394 275 333 344 257 344 c 0
 194 344 147 286 147 229 c 0
EndSplineSet
EndChar

StartChar: seven.lining
Encoding: 65557 -1 93
Width: 530
VWidth: 0
Flags: HMW
HStem: -8 21G<208.5 290> 543 75<96.4243 369.359>
VStem: 395 45<459.351 611>
AnchorPoint: "l;bl" 0 15 basechar 0
AnchorPoint: "l;x" 0 376 basechar 0
AnchorPoint: "l;hi" 0 684 basechar 0
AnchorPoint: "l;o" 0 195 basechar 0
AnchorPoint: "l;lo" 0 -244 basechar 0
AnchorPoint: "r;bl" 530 15 basechar 0
AnchorPoint: "r;x" 530 376 basechar 0
AnchorPoint: "r;hi" 530 684 basechar 0
AnchorPoint: "r;o" 530 195 basechar 0
AnchorPoint: "r;lo" 530 -244 basechar 0
LayerCount: 3
Fore
SplineSet
80 539 m 0
 80 555 85 583 91 611 c 0
 92 617 101 618 111 618 c 2
 423 618 l 2
 437 618 440 617 440 605 c 0
 440 546 404 386 376 276 c 0
 344 149 354 188 311 41 c 0
 298 -3 297 -8 283 -8 c 2
 214 -8 l 2
 203 -8 196 -2 196 5 c 0
 196 20 251 63 334 313 c 0
 372 425 395 523 395 547 c 0
 395 559 385 562 371 562 c 0
 337 562 238 552 183 543 c 0
 120 533 99 520 91 520 c 0
 83 520 80 523 80 539 c 0
EndSplineSet
EndChar

StartChar: eight.lining
Encoding: 65558 -1 94
Width: 530
VWidth: 0
Flags: HW
HStem: -12 37<209.899 351.68> 600 37<200.653 332.396>
VStem: 73 60<89.5188 220.445> 99 64<443.962 560.505> 395 57<425.469 546.577> 413 64<88.4698 207.186>
AnchorPoint: "l;bl" 0 15 basechar 0
AnchorPoint: "l;x" 0 376 basechar 0
AnchorPoint: "l;hi" 0 684 basechar 0
AnchorPoint: "l;o" 0 195 basechar 0
AnchorPoint: "l;lo" 0 -244 basechar 0
AnchorPoint: "r;bl" 530 15 basechar 0
AnchorPoint: "r;x" 530 376 basechar 0
AnchorPoint: "r;hi" 530 684 basechar 0
AnchorPoint: "r;o" 530 195 basechar 0
AnchorPoint: "r;lo" 530 -244 basechar 0
LayerCount: 3
Fore
SplineSet
73 150 m 0xe4
 73 257 205 313 218 321 c 1
 151 359 99 418 99 482 c 0
 99 577 176 637 283 637 c 0
 369 637 452 575 452 500 c 0xd8
 452 392 328 338 328 338 c 1
 352 325 477 271 477 170 c 0
 477 73 394 -12 275 -12 c 0
 165 -12 73 50 73 150 c 0xe4
133 155 m 0xe4
 133 74 215 25 284 25 c 0
 356 25 413 79 413 146 c 0
 413 219 348 248 244 307 c 1
 244 307 133 245 133 155 c 0xe4
163 502 m 0xd8
 163 419 291 356 291 356 c 1
 291 356 395 399 395 485 c 0
 395 547 332 600 270 600 c 0
 184 600 163 548 163 502 c 0xd8
EndSplineSet
EndChar

StartChar: nine.lining
Encoding: 65559 -1 95
Width: 530
VWidth: -5
Flags: HW
HStem: -8 44<127.567 289.017> 219 50<221.19 336.096> 605 31<210.823 300.922>
VStem: 75 74<351.63 520.438> 397 85<248.3 480.253>
AnchorPoint: "l;bl" 0 15 basechar 0
AnchorPoint: "l;x" 0 376 basechar 0
AnchorPoint: "l;hi" 0 684 basechar 0
AnchorPoint: "l;o" 0 195 basechar 0
AnchorPoint: "l;lo" 0 -244 basechar 0
AnchorPoint: "r;bl" 530 15 basechar 0
AnchorPoint: "r;x" 530 376 basechar 0
AnchorPoint: "r;hi" 530 684 basechar 0
AnchorPoint: "r;o" 530 195 basechar 0
AnchorPoint: "r;lo" 530 -244 basechar 0
LayerCount: 3
Fore
SplineSet
73 67 m 0
 73 77 78 82 86 82 c 0
 111 82 125 36 205 36 c 0
 394 36 413 297 413 297 c 1
 413 297 351 219 240 219 c 0
 108 219 75 349 75 421 c 0
 75 540 158 636 263 636 c 0
 395 636 482 519 482 337 c 0
 482 162 395 -8 222 -8 c 0
 130 -8 73 34 73 67 c 0
149 447 m 0
 149 403 171 269 296 269 c 0
 364 269 397 315 397 370 c 0
 397 473 337 605 257 605 c 0
 227 605 201 587 181 560 c 0
 161 533 149 501 149 447 c 0
EndSplineSet
EndChar

StartChar: dollar.lining
Encoding: 65560 -1 96
Width: 530
VWidth: 0
Flags: HW
HStem: -8 30<173.685 249 281 326.459> 598 28<200.541 250 282 340.673>
VStem: 69 70<439.649 541.201> 249 32<-176 -8 23 277 371 598 624.521 711> 408 69<90.6608 203.17>
AnchorPoint: "l;bl" 0 15 basechar 0
AnchorPoint: "l;x" 0 376 basechar 0
AnchorPoint: "l;hi" 0 684 basechar 0
AnchorPoint: "l;o" 0 195 basechar 0
AnchorPoint: "l;lo" 0 -244 basechar 0
AnchorPoint: "r;bl" 530 15 basechar 0
AnchorPoint: "r;x" 530 376 basechar 0
AnchorPoint: "r;hi" 530 684 basechar 0
AnchorPoint: "r;o" 530 195 basechar 0
AnchorPoint: "r;lo" 530 -244 basechar 0
LayerCount: 3
Fore
SplineSet
42 133 m 0
 42 145 49 147 54 147 c 0
 88 147 53 64 199 28 c 0
 219 23 239 22 249 22 c 1
 249 290 l 1
 193 319 69 371 69 465 c 0
 69 612 250 626 250 626 c 1
 250 711 l 1
 282 711 l 1
 282 626 l 1
 390 614 383 611 392 611 c 0
 398 611 421 618 422 618 c 0
 434 618 432 604 440 551 c 0
 440 546 443 527 443 525 c 2
 443 517 l 2
 443 512 442 507 436 507 c 0
 423 507 414 523 403 538 c 0
 362 595 282 598 282 598 c 1
 282 358 l 1
 390 302 477 277 477 173 c 0
 477 12 281 -7 281 -7 c 1
 281 -176 l 1
 249 -176 l 1
 249 -8 l 1
 249 -8 136 -6 81 18 c 0
 56 29 56 32 50 77 c 0
 47 102 42 128 42 133 c 0
139 496 m 0
 139 422 250 371 250 371 c 1
 250 598 l 1
 250 598 139 590 139 496 c 0
281 23 m 1
 281 23 315 26 349 48 c 0
 371 62 408 100 408 146 c 0
 408 230 281 277 281 277 c 1
 281 23 l 1
EndSplineSet
EndChar

StartChar: zero.numer
Encoding: 65561 -1 97
Width: 455
VWidth: 0
Flags: HW
HStem: 231 34<181.515 280.817> 649 35<171.477 274.076>
VStem: 40 62<359.613 566.856> 342 73<353.456 567.061>
AnchorPoint: "l;x" 0 376 basechar 0
AnchorPoint: "l;hi" 0 684 basechar 0
AnchorPoint: "l;o" 0 195 basechar 0
AnchorPoint: "r;x" 455 376 basechar 0
AnchorPoint: "r;hi" 455 684 basechar 0
AnchorPoint: "r;o" 395 195 basechar 0
LayerCount: 3
Fore
SplineSet
40 468 m 0
 40 589 130 684 223 684 c 0
 348 684 415 574 415 463 c 0
 415 339 340 231 225 231 c 0
 116 231 40 320 40 468 c 0
102 470 m 0
 102 380 148 265 231 265 c 0
 322 265 342 385 342 456 c 0
 342 585 285 649 224 649 c 0
 151 649 102 561 102 470 c 0
EndSplineSet
AlternateSubs2: "'aalt' Access All Alternates lookup 0 subtable" zero.denom
AlternateSubs2: "'aalt' Access All Alternates in Latin lookup 0 subtable" zero.denom
Substitution2: "Single Substitution lookup 4 subtable" zero.denom
EndChar

StartChar: one.numer
Encoding: 65562 -1 98
Width: 334
VWidth: 0
Flags: HW
HStem: 244 29<60 136.372 203.72 294> 637 28<65 136.944>
VStem: 138 64<274.88 635.273>
AnchorPoint: "l;x" 0 376 basechar 0
AnchorPoint: "l;hi" 0 684 basechar 0
AnchorPoint: "l;o" 0 195 basechar 0
AnchorPoint: "r;x" 334 376 basechar 0
AnchorPoint: "r;hi" 334 684 basechar 0
AnchorPoint: "r;o" 314 195 basechar 0
LayerCount: 3
Fore
SplineSet
60 244 m 1
 60 273 l 1
 125 274 138 269 138 301 c 2
 138 610 l 2
 138 634 133 637 105 637 c 2
 64 637 l 1
 65 665 l 1
 153 665 l 2
 183 665 186 681 194 694 c 1
 208 693 l 1
 208 693 202 600 202 534 c 2
 202 301 l 2
 202 270 215 274 294 273 c 1
 294 244 l 1
 60 244 l 1
EndSplineSet
AlternateSubs2: "'aalt' Access All Alternates lookup 0 subtable" one.denom
AlternateSubs2: "'aalt' Access All Alternates in Latin lookup 0 subtable" one.denom
Substitution2: "Single Substitution lookup 4 subtable" one.denom
EndChar

StartChar: two.numer
Encoding: 65563 -1 99
Width: 399
VWidth: 0
Flags: HW
HStem: 244 38<117.004 297.964> 639 43<94.8452 218.633>
VStem: 247 82<484.295 611.742>
AnchorPoint: "l;x" 0 376 basechar 0
AnchorPoint: "l;hi" 0 684 basechar 0
AnchorPoint: "l;o" 0 195 basechar 0
AnchorPoint: "r;x" 399 376 basechar 0
AnchorPoint: "r;hi" 399 684 basechar 0
AnchorPoint: "r;o" 359 195 basechar 0
LayerCount: 3
Fore
SplineSet
40 250 m 0
 40 263 247 423 247 551 c 0
 247 627 184 639 159 639 c 0
 81 639 80 603 63 603 c 0
 57 603 55 607 55 612 c 0
 55 643 107 682 186 682 c 0
 276 682 329 627 329 556 c 0
 329 431 117 296 117 285 c 0
 117 283 123 282 131 282 c 0
 277 282 339 316 353 316 c 0
 357 316 359 314 359 308 c 0
 359 303 349 253 341 248 c 0
 339 246 340 244 306 244 c 2
 58 244 l 2
 50 244 40 245 40 250 c 0
EndSplineSet
AlternateSubs2: "'aalt' Access All Alternates lookup 0 subtable" two.denom
AlternateSubs2: "'aalt' Access All Alternates in Latin lookup 0 subtable" two.denom
Substitution2: "Single Substitution lookup 4 subtable" two.denom
EndChar

StartChar: three.numer
Encoding: 65564 -1 100
Width: 415
VWidth: 0
Flags: HW
HStem: 233 35<78.1099 233.264> 641 43<105.219 218.258>
VStem: 239 79<540.58 620.64> 277 78<304.906 418.779>
AnchorPoint: "l;x" 0 376 basechar 0
AnchorPoint: "l;hi" 0 684 basechar 0
AnchorPoint: "l;o" 0 195 basechar 0
AnchorPoint: "r;x" 395 376 basechar 0
AnchorPoint: "r;hi" 415 684 basechar 0
AnchorPoint: "r;o" 315 195 basechar 0
LayerCount: 3
Fore
SplineSet
40 282 m 0xd0
 40 292 49 293 53 293 c 0
 68 293 90 268 164 268 c 0
 258 268 277 332 277 366 c 0xd0
 277 408 235 457 176 466 c 0
 152 470 137 467 137 478 c 0
 137 491 150 491 170 495 c 0
 232 508 239 558 239 577 c 0
 239 602 214 641 164 641 c 0
 100 641 91 608 74 608 c 0
 68 608 65 612 65 619 c 0
 65 633 103 684 191 684 c 0
 254 684 318 654 318 595 c 0xe0
 318 514 202 486 202 486 c 1
 202 486 355 469 355 365 c 0
 355 273 264 233 174 233 c 0
 104 233 40 259 40 282 c 0xd0
EndSplineSet
AlternateSubs2: "'aalt' Access All Alternates lookup 0 subtable" three.denom
AlternateSubs2: "'aalt' Access All Alternates in Latin lookup 0 subtable" three.denom
Substitution2: "Single Substitution lookup 4 subtable" three.denom
EndChar

StartChar: four.numer
Encoding: 65565 -1 101
Width: 426
VWidth: 0
Flags: HW
HStem: 364 56<99 242 305 370> 668 20G<299 302.5>
VStem: 242 63<234 364 420 585>
AnchorPoint: "l;x" 0 376 basechar 0
AnchorPoint: "l;hi" 0 684 basechar 0
AnchorPoint: "l;o" 0 195 basechar 0
AnchorPoint: "r;x" 406 376 basechar 0
AnchorPoint: "r;hi" 426 684 basechar 0
AnchorPoint: "r;o" 326 195 basechar 0
LayerCount: 3
Fore
SplineSet
20 369 m 0
 20 376 26 384 44 404 c 2
 77 440 148 513 288 681 c 0
 293 687 298 688 300 688 c 0
 305 688 305 680 305 671 c 2
 305 420 l 9
 386 420 l 25
 370 364 l 25
 305 364 l 25
 305 234 l 25
 242 234 l 25
 242 364 l 17
 30 364 l 2
 25 364 20 364 20 369 c 0
99 420 m 9
 242 420 l 25
 242 585 l 17
 99 420 l 9
EndSplineSet
AlternateSubs2: "'aalt' Access All Alternates lookup 0 subtable" four.denom
AlternateSubs2: "'aalt' Access All Alternates in Latin lookup 0 subtable" four.denom
Substitution2: "Single Substitution lookup 4 subtable" four.denom
EndChar

StartChar: five.numer
Encoding: 65566 -1 102
Width: 389
VWidth: 0
Flags: HW
HStem: 236 33<75.7211 211.53> 506 169<74 177.696> 506 30<107.569 193.384> 631 41<112.479 263.644>
VStem: 70 37<536 629.293> 272 77<324.344 452.035>
AnchorPoint: "l;x" 0 376 basechar 0
AnchorPoint: "l;hi" 0 684 basechar 0
AnchorPoint: "l;o" 0 195 basechar 0
AnchorPoint: "r;x" 389 376 basechar 0
AnchorPoint: "r;hi" 389 684 basechar 0
AnchorPoint: "r;o" 289 195 basechar 0
LayerCount: 3
Fore
SplineSet
40 286 m 0xbc
 40 292 47 294 47 294 c 0
 69 294 55 269 154 269 c 0
 225 269 272 327 272 388 c 0
 272 483 168 506 110 506 c 0
 100 506 85 505 74 504 c 1
 71 586 70 623 70 651 c 0
 70 672 71 675 82 675 c 0xcc
 101 675 155 672 189 672 c 0
 212 672 236 673 265 677 c 0
 277 679 278 703 278 703 c 1
 299 702 l 1
 291 639 l 2
 289 623 285 617 275 617 c 0
 246 617 143 631 133 631 c 0
 115 631 107 608 107 556 c 0
 107 536 110 536 124 536 c 0
 142 536 152 539 173 539 c 0
 260 539 349 493 349 395 c 0
 349 343 302 236 162 236 c 0
 65 236 40 278 40 286 c 0xbc
EndSplineSet
AlternateSubs2: "'aalt' Access All Alternates lookup 0 subtable" five.denom
AlternateSubs2: "'aalt' Access All Alternates in Latin lookup 0 subtable" five.denom
Substitution2: "Single Substitution lookup 4 subtable" five.denom
EndChar

StartChar: six.numer
Encoding: 65567 -1 103
Width: 417
VWidth: 0
Flags: HW
HStem: 234 32<177.861 271.964> 477 46<154.539 266.656> 656 33<229.72 341.891>
VStem: 40 75<330.516 491.435> 311 66<309.335 432.517>
AnchorPoint: "l;x" 0 376 basechar 0
AnchorPoint: "l;hi" 0 684 basechar 0
AnchorPoint: "l;o" 0 195 basechar 0
AnchorPoint: "r;x" 417 376 basechar 0
AnchorPoint: "r;hi" 417 684 basechar 0
AnchorPoint: "r;o" 332 195 basechar 0
LayerCount: 3
Fore
SplineSet
40 435 m 0
 40 575 158 689 281 689 c 0
 294 689 351 679 351 660 c 0
 351 653 345 650 340 650 c 0
 334 650 320 656 300 656 c 0
 273 656 247 648 224 637 c 0
 117 585 108 461 102 448 c 1
 134 503 192 523 224 523 c 0
 369 523 377 399 377 391 c 0
 377 290 297 234 214 234 c 0
 101 234 40 324 40 435 c 0
115 401 m 0
 115 331 168 266 226 266 c 0
 268 266 311 302 311 361 c 0
 311 433 260 477 203 477 c 0
 156 477 115 439 115 401 c 0
EndSplineSet
AlternateSubs2: "'aalt' Access All Alternates lookup 0 subtable" six.denom
AlternateSubs2: "'aalt' Access All Alternates in Latin lookup 0 subtable" six.denom
Substitution2: "Single Substitution lookup 4 subtable" six.denom
EndChar

StartChar: seven.numer
Encoding: 65568 -1 104
Width: 382
VWidth: 0
Flags: HW
HStem: 589 88<48.0513 121.924> 626 51<92.6336 272.993>
VStem: 273 49<550.822 672.5>
AnchorPoint: "l;x" 0 376 basechar 0
AnchorPoint: "l;hi" 0 684 basechar 0
AnchorPoint: "l;o" 0 195 basechar 0
AnchorPoint: "r;x" 302 376 basechar 0
AnchorPoint: "r;hi" 382 684 basechar 0
AnchorPoint: "r;o" 252 195 basechar 0
LayerCount: 3
Fore
SplineSet
40 606 m 0xa0
 40 620 44 646 48 671 c 0
 49 677 56 677 64 677 c 2xa0
 310 677 l 2
 321 677 322 677 322 668 c 0
 322 606 255 389 246 360 c 2
 217 271 l 2
 207 240 206 237 195 237 c 2
 139 237 l 2
 130 237 125 241 125 246 c 0
 125 256 166 286 229 456 c 0
 257 533 273 600 273 616 c 0
 273 624 264 626 254 626 c 0x60
 228 626 159 618 118 610 c 0
 70 601 55 589 49 589 c 0
 43 589 40 592 40 606 c 0xa0
EndSplineSet
AlternateSubs2: "'aalt' Access All Alternates lookup 0 subtable" seven.denom
AlternateSubs2: "'aalt' Access All Alternates in Latin lookup 0 subtable" seven.denom
Substitution2: "Single Substitution lookup 4 subtable" seven.denom
EndChar

StartChar: eight.numer
Encoding: 65569 -1 105
Width: 391
VWidth: 0
Flags: HW
HStem: 232 30<142.984 250.897> 660 30<148.379 244.672>
VStem: 40 55<296.249 401.515> 61 64<542.373 642.802> 280 46<534.334 633.636> 284 67<292.727 394.068>
AnchorPoint: "l;x" 0 376 basechar 0
AnchorPoint: "l;hi" 0 684 basechar 0
AnchorPoint: "l;o" 0 195 basechar 0
AnchorPoint: "r;x" 391 376 basechar 0
AnchorPoint: "r;hi" 391 684 basechar 0
AnchorPoint: "r;o" 331 195 basechar 0
LayerCount: 3
Fore
SplineSet
40 342 m 0xe4
 40 425 143 459 154 465 c 1
 101 491 61 529 61 581 c 0
 61 648 122 690 201 690 c 0
 264 690 326 647 326 594 c 0xd8
 326 517 238 486 238 486 c 1
 257 477 351 436 351 361 c 0
 351 293 295 232 196 232 c 0
 92 232 40 286 40 342 c 0xe4
95 351 m 0xe4
 95 302 141 262 197 262 c 0
 198 262 199 262 200 262 c 0
 266 263 284 309 284 339 c 0
 284 398 231 421 171 455 c 1
 160 449 95 410 95 351 c 0xe4
125 594 m 0xd8
 125 528 216 497 216 497 c 1
 216 497 280 520 280 579 c 0
 280 635 233 660 193 660 c 0
 142 660 125 624 125 594 c 0xd8
EndSplineSet
AlternateSubs2: "'aalt' Access All Alternates lookup 0 subtable" eight.denom
AlternateSubs2: "'aalt' Access All Alternates in Latin lookup 0 subtable" eight.denom
Substitution2: "Single Substitution lookup 4 subtable" eight.denom
EndChar

StartChar: nine.numer
Encoding: 65570 -1 106
Width: 410
VWidth: 0
Flags: HW
HStem: 241 39<79.5559 223.475> 396 45<153.534 260.422> 663 29<149.215 232.222>
VStem: 43 67<485.928 616.423> 297 76<413.828 591.373> 308 65<367.471 527.579>
AnchorPoint: "l;x" 0 376 basechar 0
AnchorPoint: "l;hi" 0 684 basechar 0
AnchorPoint: "l;o" 0 195 basechar 0
AnchorPoint: "r;x" 410 376 basechar 0
AnchorPoint: "r;hi" 410 684 basechar 0
AnchorPoint: "r;o" 300 195 basechar 0
LayerCount: 3
Fore
SplineSet
43 536 m 0xf4
 43 614 100 692 194 692 c 0
 301 692 373 609 373 482 c 0xf8
 373 304 255 241 160 241 c 0
 89 241 46 274 46 298 c 0
 46 306 50 309 56 309 c 0
 76 309 87 280 150 280 c 0
 264 280 308 388 308 451 c 0
 308 456 307 459 307 459 c 1
 307 459 268 396 176 396 c 0
 96 396 43 461 43 536 c 0xf4
110 558 m 0
 110 529 126 441 220 441 c 0
 271 441 297 471 297 508 c 0
 297 586 250 663 190 663 c 0
 163 663 110 640 110 558 c 0
EndSplineSet
AlternateSubs2: "'aalt' Access All Alternates lookup 0 subtable" nine.denom
AlternateSubs2: "'aalt' Access All Alternates in Latin lookup 0 subtable" nine.denom
Substitution2: "Single Substitution lookup 4 subtable" nine.denom
EndChar

StartChar: zero.denom
Encoding: 65571 -1 107
Width: 455
VWidth: 0
Flags: HW
HStem: -13 34<181.515 280.817> 405 35<171.477 274.076>
VStem: 40 62<115.613 322.856> 342 73<109.456 323.061>
AnchorPoint: "l;bl" 20 15 basechar 0
AnchorPoint: "l;x" 20 376 basechar 0
AnchorPoint: "l;o" 0 195 basechar 0
AnchorPoint: "r;bl" 445 15 basechar 0
AnchorPoint: "r;x" 445 376 basechar 0
AnchorPoint: "r;o" 455 195 basechar 0
LayerCount: 3
Fore
SplineSet
40 224 m 0
 40 345 130 440 223 440 c 0
 348 440 415 330 415 219 c 0
 415 95 340 -13 225 -13 c 0
 116 -13 40 76 40 224 c 0
102 226 m 0
 102 136 148 21 231 21 c 0
 322 21 342 141 342 212 c 0
 342 341 285 405 224 405 c 0
 151 405 102 317 102 226 c 0
EndSplineSet
EndChar

StartChar: one.denom
Encoding: 65572 -1 108
Width: 334
VWidth: 0
Flags: HW
HStem: 0 29<60 136.372 203.72 294> 393 28<65 136.944>
VStem: 138 64<30.88 391.273>
AnchorPoint: "l;bl" 0 15 basechar 0
AnchorPoint: "l;x" 0 376 basechar 0
AnchorPoint: "l;o" 0 195 basechar 0
AnchorPoint: "r;bl" 334 15 basechar 0
AnchorPoint: "r;x" 334 376 basechar 0
AnchorPoint: "r;o" 334 195 basechar 0
LayerCount: 3
Fore
SplineSet
60 0 m 1
 60 29 l 1
 125 30 138 25 138 57 c 2
 138 366 l 2
 138 390 133 393 105 393 c 2
 64 393 l 1
 65 421 l 1
 153 421 l 2
 183 421 186 437 194 450 c 1
 208 449 l 1
 208 449 202 356 202 290 c 2
 202 57 l 2
 202 26 215 30 294 29 c 1
 294 0 l 1
 60 0 l 1
EndSplineSet
EndChar

StartChar: two.denom
Encoding: 65573 -1 109
Width: 399
VWidth: 0
Flags: HW
HStem: 0 38<117.004 297.964> 395 43<94.8452 218.633>
VStem: 247 82<240.295 367.742>
AnchorPoint: "l;bl" 0 15 basechar 0
AnchorPoint: "l;x" 0 376 basechar 0
AnchorPoint: "l;o" 0 195 basechar 0
AnchorPoint: "r;bl" 399 15 basechar 0
AnchorPoint: "r;x" 399 376 basechar 0
AnchorPoint: "r;o" 399 195 basechar 0
LayerCount: 3
Fore
SplineSet
40 6 m 0
 40 19 247 179 247 307 c 0
 247 383 184 395 159 395 c 0
 81 395 80 359 63 359 c 0
 57 359 55 363 55 368 c 0
 55 399 107 438 186 438 c 0
 276 438 329 383 329 312 c 0
 329 187 117 52 117 41 c 0
 117 39 123 38 131 38 c 0
 277 38 339 72 353 72 c 0
 357 72 359 70 359 64 c 0
 359 59 349 9 341 4 c 0
 339 2 340 0 306 0 c 2
 58 0 l 2
 50 0 40 1 40 6 c 0
EndSplineSet
EndChar

StartChar: three.denom
Encoding: 65574 -1 110
Width: 415
VWidth: 0
Flags: HW
HStem: -11 35<78.1099 233.264> 397 43<105.219 218.258>
VStem: 239 79<296.58 376.64> 277 78<60.9062 174.779>
AnchorPoint: "l;bl" 0 15 basechar 0
AnchorPoint: "l;x" 40 376 basechar 0
AnchorPoint: "l;o" 0 195 basechar 0
AnchorPoint: "r;bl" 415 15 basechar 0
AnchorPoint: "r;x" 415 376 basechar 0
AnchorPoint: "r;o" 415 195 basechar 0
LayerCount: 3
Fore
SplineSet
40 38 m 0xd0
 40 48 49 49 53 49 c 0
 68 49 90 24 164 24 c 0
 258 24 277 88 277 122 c 0xd0
 277 164 235 213 176 222 c 0
 152 226 137 223 137 234 c 0
 137 247 150 247 170 251 c 0
 232 264 239 314 239 333 c 0
 239 358 214 397 164 397 c 0
 100 397 91 364 74 364 c 0
 68 364 65 368 65 375 c 0
 65 389 103 440 191 440 c 0
 254 440 318 410 318 351 c 0xe0
 318 270 202 242 202 242 c 1
 202 242 355 225 355 121 c 0
 355 29 264 -11 174 -11 c 0
 104 -11 40 15 40 38 c 0xd0
EndSplineSet
EndChar

StartChar: four.denom
Encoding: 65575 -1 111
Width: 426
VWidth: 0
Flags: HW
HStem: -10 21G<242 305> 120 56<99 242 305 370>
VStem: 242 63<-10 120 176 341>
AnchorPoint: "l;bl" 0 15 basechar 0
AnchorPoint: "l;x" 160 376 basechar 0
AnchorPoint: "l;o" 20 195 basechar 0
AnchorPoint: "r;bl" 426 15 basechar 0
AnchorPoint: "r;x" 426 376 basechar 0
AnchorPoint: "r;o" 426 195 basechar 0
LayerCount: 3
Fore
SplineSet
20 125 m 0
 20 132 26 140 44 160 c 2
 77 196 148 269 288 437 c 0
 293 443 298 444 300 444 c 0
 305 444 305 436 305 427 c 2
 305 176 l 9
 386 176 l 25
 370 120 l 25
 305 120 l 25
 305 -10 l 25
 242 -10 l 25
 242 120 l 17
 30 120 l 2
 25 120 20 120 20 125 c 0
99 176 m 9
 242 176 l 25
 242 341 l 17
 99 176 l 9
EndSplineSet
Layer: 2
SplineSet
21 125 m 4
 21 144 72 178 289 437 c 4
 294 443 299 444 301 444 c 4
 306 444 306 436 306 427 c 6
 306 176 l 13
 387 176 l 29
 371 120 l 29
 306 120 l 29
 306 -10 l 29
 243 -10 l 29
 243 120 l 21
 31 120 l 6
 26 120 21 120 21 125 c 4
100 176 m 13
 243 176 l 29
 243 341 l 21
 100 176 l 13
EndSplineSet
EndChar

StartChar: five.denom
Encoding: 65576 -1 112
Width: 389
VWidth: 0
Flags: HMW
HStem: -8 33<75.7211 211.53> 262 30<107.086 193.384> 387 41<112.479 273.587>
VStem: 74 33<292 384.103> 272 77<80.3438 208.035> 278 21<433.85 458>
AnchorPoint: "l;bl" 0 15 basechar 0
AnchorPoint: "l;x" 0 376 basechar 0
AnchorPoint: "l;o" 0 195 basechar 0
AnchorPoint: "r;bl" 389 15 basechar 0
AnchorPoint: "r;x" 389 376 basechar 0
AnchorPoint: "r;o" 389 195 basechar 0
LayerCount: 3
Fore
SplineSet
40 42 m 0xf8
 40 48 47 50 47 50 c 0
 69 50 55 25 154 25 c 0
 225 25 272 83 272 144 c 0xf8
 272 239 168 262 110 262 c 0
 100 262 85 261 74 260 c 1
 71 342 70 379 70 407 c 0
 70 428 71 431 82 431 c 0
 101 431 155 428 189 428 c 0
 212 428 236 429 265 433 c 0
 277 435 278 459 278 459 c 1
 299 458 l 1xf4
 291 395 l 2
 289 379 285 373 275 373 c 0
 246 373 143 387 133 387 c 0
 115 387 107 364 107 312 c 0
 107 292 110 292 124 292 c 0
 142 292 152 295 173 295 c 0
 260 295 349 249 349 151 c 0
 349 99 302 -8 162 -8 c 0
 65 -8 40 34 40 42 c 0xf8
EndSplineSet
EndChar

StartChar: six.denom
Encoding: 65577 -1 113
Width: 417
VWidth: 0
Flags: HW
HStem: -10 32<177.861 271.964> 233 46<154.539 266.656> 412 33<229.72 341.891>
VStem: 40 75<86.5158 247.435> 311 66<65.3347 188.517>
AnchorPoint: "l;bl" 0 15 basechar 0
AnchorPoint: "l;x" 30 376 basechar 0
AnchorPoint: "l;o" 0 195 basechar 0
AnchorPoint: "r;bl" 417 15 basechar 0
AnchorPoint: "r;x" 417 376 basechar 0
AnchorPoint: "r;o" 417 195 basechar 0
LayerCount: 3
Fore
SplineSet
40 191 m 0
 40 331 158 445 281 445 c 0
 294 445 351 435 351 416 c 0
 351 409 345 406 340 406 c 0
 334 406 320 412 300 412 c 0
 273 412 247 404 224 393 c 0
 117 341 108 217 102 204 c 1
 134 259 192 279 224 279 c 0
 369 279 377 155 377 147 c 0
 377 46 297 -10 214 -10 c 0
 101 -10 40 80 40 191 c 0
115 157 m 0
 115 87 168 22 226 22 c 0
 268 22 311 58 311 117 c 0
 311 189 260 233 203 233 c 0
 156 233 115 195 115 157 c 0
EndSplineSet
EndChar

StartChar: seven.denom
Encoding: 65578 -1 114
Width: 382
VWidth: 0
Flags: HMW
HStem: -7 21G<134.5 200.5> 382 51<92.6336 272.993>
VStem: 273 49<306.822 428.5>
AnchorPoint: "l;bl" 0 15 basechar 0
AnchorPoint: "l;x" 0 376 basechar 0
AnchorPoint: "l;o" 0 195 basechar 0
AnchorPoint: "r;bl" 382 15 basechar 0
AnchorPoint: "r;x" 382 376 basechar 0
AnchorPoint: "r;o" 382 195 basechar 0
LayerCount: 3
Fore
SplineSet
40 362 m 0
 40 376 44 402 48 427 c 0
 49 433 56 433 64 433 c 2
 310 433 l 2
 321 433 322 433 322 424 c 0
 322 362 255 145 246 116 c 2
 217 27 l 2
 207 -4 206 -7 195 -7 c 2
 139 -7 l 2
 130 -7 125 -3 125 2 c 0
 125 12 166 42 229 212 c 0
 257 289 273 356 273 372 c 0
 273 380 264 382 254 382 c 0
 228 382 159 374 118 366 c 0
 70 357 55 345 49 345 c 0
 43 345 40 348 40 362 c 0
EndSplineSet
EndChar

StartChar: eight.denom
Encoding: 65579 -1 115
Width: 391
VWidth: 0
Flags: HW
HStem: -12 30<142.984 250.897> 416 30<148.379 244.672>
VStem: 40 55<52.2494 157.515> 61 64<298.373 398.802> 280 46<290.334 389.636> 284 67<48.7272 150.068>
AnchorPoint: "l;bl" 0 15 basechar 0
AnchorPoint: "l;x" 40 376 basechar 0
AnchorPoint: "l;o" 0 195 basechar 0
AnchorPoint: "r;bl" 391 15 basechar 0
AnchorPoint: "r;x" 391 376 basechar 0
AnchorPoint: "r;o" 391 195 basechar 0
LayerCount: 3
Fore
SplineSet
40 98 m 0xe4
 40 181 143 215 154 221 c 1
 101 247 61 285 61 337 c 0
 61 404 122 446 201 446 c 0
 264 446 326 403 326 350 c 0xd8
 326 273 238 242 238 242 c 1
 257 233 351 192 351 117 c 0
 351 49 295 -12 196 -12 c 0
 92 -12 40 42 40 98 c 0xe4
95 107 m 0xe4
 95 58 141 18 197 18 c 0
 198 18 199 18 200 18 c 0
 266 19 284 65 284 95 c 0
 284 154 231 177 171 211 c 1
 160 205 95 166 95 107 c 0xe4
125 350 m 0xd8
 125 284 216 253 216 253 c 1
 216 253 280 276 280 335 c 0
 280 391 233 416 193 416 c 0
 142 416 125 380 125 350 c 0xd8
EndSplineSet
Layer: 2
SplineSet
156.97265625 223.6328125 m 5xe4
 103.75 250 63.7109375 291.9921875 63.7109375 337.40234375 c 4
 63.7109375 404.296875 120.3515625 446.2890625 199.453125 446.2890625 c 4
 262.9296875 446.2890625 324.453125 402.83203125 324.453125 349.609375 c 4xd8
 324.453125 272.94921875 228.75 235.83984375 228.75 235.83984375 c 5
 247.79296875 226.5625 346.9140625 187.98828125 346.9140625 117.1875 c 4
 346.9140625 48.828125 283.92578125 -10.25390625 193.59375 -10.25390625 c 4
 110.09765625 -10.25390625 40.2734375 33.203125 40.2734375 103.515625 c 4
 40.2734375 179.19921875 146.23046875 217.7734375 156.97265625 223.6328125 c 5xe4
198.96484375 22.94921875 m 4
 249.2578125 22.94921875 288.3203125 59.08203125 288.3203125 104.98046875 c 4
 288.3203125 154.78515625 244.375 173.828125 174.0625 213.8671875 c 5
 174.0625 213.8671875 93.984375 171.875 93.984375 110.83984375 c 4xe4
 93.984375 55.6640625 150.625 22.94921875 198.96484375 22.94921875 c 4
204.3359375 247.55859375 m 5
 204.3359375 247.55859375 272.6953125 276.85546875 272.6953125 335.44921875 c 4
 272.6953125 377.44140625 231.19140625 413.0859375 191.15234375 413.0859375 c 4
 135 413.0859375 121.328125 377.9296875 121.328125 346.6796875 c 4xd8
 121.328125 290.0390625 204.3359375 247.55859375 204.3359375 247.55859375 c 5
EndSplineSet
EndChar

StartChar: nine.denom
Encoding: 65580 -1 116
Width: 410
VWidth: 0
Flags: HMW
HStem: -3 39<76.5559 220.475> 152 45<150.534 257.422> 419 29<146.215 229.222>
VStem: 40 67<241.928 372.423> 305 65<123.471 283.579>
AnchorPoint: "l;bl" 0 15 basechar 0
AnchorPoint: "l;x" 0 376 basechar 0
AnchorPoint: "l;o" 0 195 basechar 0
AnchorPoint: "r;bl" 410 15 basechar 0
AnchorPoint: "r;x" 410 376 basechar 0
AnchorPoint: "r;o" 410 195 basechar 0
LayerCount: 3
Fore
SplineSet
43 292 m 0
 43 370 100 448 194 448 c 0
 301 448 373 365 373 238 c 0
 373 60 255 -3 160 -3 c 0
 89 -3 46 30 46 54 c 0
 46 62 50 65 56 65 c 0
 76 65 87 36 150 36 c 0
 264 36 308 144 308 207 c 0
 308 212 307 215 307 215 c 1
 307 215 268 152 176 152 c 0
 96 152 43 217 43 292 c 0
110 314 m 0
 110 285 126 197 220 197 c 0
 271 197 297 227 297 264 c 0
 297 342 250 419 190 419 c 0
 163 419 110 396 110 314 c 0
EndSplineSet
EndChar

StartChar: slash
Encoding: 47 47 137
Width: 442
VWidth: 488
Flags: HW
AnchorPoint: "l;bl" 0 15 basechar 0
AnchorPoint: "l;x" 60 376 basechar 0
AnchorPoint: "l;hi" 120 684 basechar 0
AnchorPoint: "l;o" 20 195 basechar 0
AnchorPoint: "l;lo" 0 -244 basechar 0
AnchorPoint: "r;bl" 342 15 basechar 0
AnchorPoint: "r;x" 382 376 basechar 0
AnchorPoint: "r;hi" 442 684 basechar 0
AnchorPoint: "r;o" 362 195 basechar 0
AnchorPoint: "r;lo" 322 -244 basechar 0
LayerCount: 3
Fore
SplineSet
17 -231 m 1
 358 706 l 1
 405 706 l 1
 64 -231 l 1
 17 -231 l 1
EndSplineSet
AlternateSubs2: "'aalt' Access All Alternates lookup 0 subtable" slash.uppercase fraction
AlternateSubs2: "'aalt' Access All Alternates in Latin lookup 0 subtable" slash.uppercase fraction
Substitution2: "case_substitutions subtable" slash.uppercase
Substitution2: "numerators subtable" fraction
EndChar

StartChar: fraction
Encoding: 8260 8260 138
Width: 512
VWidth: 488
Flags: HW
HStem: 670 20G<483.47 525.833>
AnchorPoint: "l;bl" 0 15 basechar 0
AnchorPoint: "l;x" 160 376 basechar 0
AnchorPoint: "l;hi" 360 684 basechar 0
AnchorPoint: "l;o" 40 195 basechar 0
AnchorPoint: "r;bl" 192 15 basechar 0
AnchorPoint: "r;x" 432 376 basechar 0
AnchorPoint: "r;hi" 512 684 basechar 0
AnchorPoint: "r;o" 322 195 basechar 0
LayerCount: 3
Fore
SplineSet
-19.5 -47 m 1
 497.5 690 l 1
 531.5 666 l 1
 14.5 -71 l 1
 -19.5 -47 l 1
EndSplineSet
EndChar

StartChar: bar
Encoding: 124 124 139
Width: 220
VWidth: 488
Flags: HW
VStem: 88 44<-231 706>
AnchorPoint: "r;lo" 220 -244 basechar 0
AnchorPoint: "r;o" 220 195 basechar 0
AnchorPoint: "r;hi" 220 684 basechar 0
AnchorPoint: "r;x" 220 376 basechar 0
AnchorPoint: "r;bl" 220 15 basechar 0
AnchorPoint: "l;lo" 0 -244 basechar 0
AnchorPoint: "l;o" 0 195 basechar 0
AnchorPoint: "l;hi" 0 684 basechar 0
AnchorPoint: "l;x" 0 376 basechar 0
AnchorPoint: "l;bl" 0 15 basechar 0
LayerCount: 3
Fore
SplineSet
88 -231 m 1
 88 706 l 1
 132 706 l 1
 132 -231 l 1
 88 -231 l 1
EndSplineSet
Position2: "case_positioning subtable" dx=0 dy=50 dh=0 dv=0
EndChar

StartChar: at
Encoding: 64 64 140
Width: 756
VWidth: 0
Flags: HW
HStem: -92 40<283.406 495.198> 58 53<305.183 387.202> 259 27<360.763 426> 450 36<259.428 390.953>
VStem: 64 68<95.0271 309.818> 225 71<120.638 201.121> 426 71<127.969 259 286 418.412> 658 39<106.759 321.197>
AnchorPoint: "l;bl" 20 15 basechar 0
AnchorPoint: "l;x" 20 376 basechar 0
AnchorPoint: "l;o" 0 195 basechar 0
AnchorPoint: "r;bl" 736 15 basechar 0
AnchorPoint: "r;x" 736 376 basechar 0
AnchorPoint: "r;o" 756 195 basechar 0
LayerCount: 3
Fore
SplineSet
64 197 m 0
 64 342 165 486 357 486 c 0
 440 486 497 420 497 340 c 2
 497 197 l 2
 497 154 503 122 561 106 c 0
 568 104 571 101 571 98 c 0
 571 95 568 91 561 87 c 0
 538 72 505 52 502 51 c 1
 467 76 456 96 435 122 c 1
 409 87 362 58 318 58 c 0
 276 58 225 79 225 133 c 0
 225 215 313 286 426 286 c 1
 426 365 l 2
 426 391 405 450 337 450 c 0
 208 450 132 327 132 203 c 0
 132 76 211 -52 393 -52 c 0
 526 -52 658 27 658 214 c 0
 658 399 522 450 522 469 c 0
 522 472 524 480 532 480 c 0
 553 480 697 412 697 214 c 0
 697 2 537 -92 376 -92 c 0
 165 -92 64 52 64 197 c 0
296 163 m 0
 296 136 311 111 355 111 c 0
 414 111 426 145 426 167 c 2
 426 259 l 1
 343 259 296 207 296 163 c 0
EndSplineSet
EndChar

StartChar: parenleft
Encoding: 40 40 141
Width: 313
VWidth: 0
Flags: HW
HStem: 666 20G<269.672 296>
VStem: 44 67<83.6821 385.185>
AnchorPoint: "l;bl" 0 15 basechar 0
AnchorPoint: "l;x" 0 376 basechar 0
AnchorPoint: "l;hi" 40 684 basechar 0
AnchorPoint: "l;o" 0 195 basechar 0
AnchorPoint: "l;lo" 40 -244 basechar 0
AnchorPoint: "r;bl" 273 15 basechar 0
AnchorPoint: "r;x" 253 376 basechar 0
AnchorPoint: "r;hi" 313 684 basechar 0
AnchorPoint: "r;o" 233 195 basechar 0
AnchorPoint: "r;lo" 313 -244 basechar 0
LayerCount: 3
Fore
SplineSet
44 229 m 0
 44 548 280 686 280 686 c 1
 296 667 l 1
 296 667 111 523 111 233 c 0
 111 -67 286 -200 286 -200 c 1
 268 -221 l 1
 268 -221 44 -45 44 229 c 0
EndSplineSet
AlternateSubs2: "'aalt' Access All Alternates lookup 0 subtable" parenleft.uppercase
AlternateSubs2: "'aalt' Access All Alternates in Latin lookup 0 subtable" parenleft.uppercase
Substitution2: "case_substitutions subtable" parenleft.uppercase
EndChar

StartChar: parenright
Encoding: 41 41 142
Width: 313
VWidth: 0
Flags: HW
HStem: 666 20G<17 43.3282>
VStem: 202 67<83.6821 385.185>
AnchorPoint: "l;bl" 40 15 basechar 0
AnchorPoint: "l;x" 60 376 basechar 0
AnchorPoint: "l;hi" 0 684 basechar 0
AnchorPoint: "l;o" 80 195 basechar 0
AnchorPoint: "l;lo" 0 -244 basechar 0
AnchorPoint: "r;bl" 313 15 basechar 0
AnchorPoint: "r;x" 313 376 basechar 0
AnchorPoint: "r;hi" 273 684 basechar 0
AnchorPoint: "r;o" 313 195 basechar 0
AnchorPoint: "r;lo" 273 -244 basechar 0
LayerCount: 3
Fore
SplineSet
17 667 m 1
 33 686 l 1
 33 686 269 548 269 229 c 0
 269 -45 45 -221 45 -221 c 1
 28 -200 l 1
 28 -200 202 -67 202 233 c 0
 202 523 17 667 17 667 c 1
EndSplineSet
AlternateSubs2: "'aalt' Access All Alternates lookup 0 subtable" parenright.uppercase
AlternateSubs2: "'aalt' Access All Alternates in Latin lookup 0 subtable" parenright.uppercase
Substitution2: "case_substitutions subtable" parenright.uppercase
EndChar

StartChar: asterisk
Encoding: 42 42 143
Width: 455
VWidth: 0
Flags: HW
HStem: 424 58<195.674 212 244.078 260.488>
VStem: 183 84<262.169 381.359 540.429 651.058> 195 67<439.557 462.078> 212 28<362.208 421.981 482.139 528.725>
AnchorPoint: "l;x" 0 376 basechar 0
AnchorPoint: "l;hi" 0 684 basechar 0
AnchorPoint: "l;o" 0 195 basechar 0
AnchorPoint: "r;x" 455 376 basechar 0
AnchorPoint: "r;hi" 455 684 basechar 0
AnchorPoint: "r;o" 455 195 basechar 0
LayerCount: 3
Fore
SplineSet
44 371 m 0x90
 44 424 195 434 195 451 c 0xa0
 195 477 45 464 45 530 c 0
 45 561 76 570 84 570 c 0
 118 570 192 482 212 482 c 0x90
 216 482 216 486 216 491 c 0
 216 517 185 594 185 610 c 0
 185 641 207 659 229 659 c 0
 249 659 273 647 273 604 c 0
 273 582 244 507 244 485 c 0
 244 480 245 478 249 478 c 0
 270 478 330 566 372 566 c 0
 395 566 411 552 411 534 c 0
 411 465 262 471 262 451 c 0xa0
 262 428 402 430 402 367 c 0
 402 349 392 331 370 331 c 0
 325 331 258 422 245 422 c 0
 244 422 240 421 240 411 c 0x90
 240 385 267 322 267 298 c 0
 267 273 247 256 226 256 c 0
 205 256 183 274 183 295 c 0xc0
 183 318 212 403 212 420 c 0
 212 422 212 424 210 424 c 0
 196 424 126 334 80 334 c 0
 55 334 44 357 44 371 c 0x90
EndSplineSet
EndChar

StartChar: bracketleft
Encoding: 91 91 144
Width: 326
VWidth: 0
Flags: HW
HStem: -231 29<150 309> 676 30<150 309>
VStem: 88 62<-202 676>
AnchorPoint: "l;bl" 0 15 basechar 0
AnchorPoint: "l;x" 0 376 basechar 0
AnchorPoint: "l;hi" 0 684 basechar 0
AnchorPoint: "l;o" 0 195 basechar 0
AnchorPoint: "l;lo" 0 -244 basechar 0
AnchorPoint: "r;bl" 266 15 basechar 0
AnchorPoint: "r;x" 266 376 basechar 0
AnchorPoint: "r;hi" 326 684 basechar 0
AnchorPoint: "r;o" 266 195 basechar 0
AnchorPoint: "r;lo" 326 -244 basechar 0
LayerCount: 3
Fore
SplineSet
88 -231 m 1
 88 706 l 1
 309 706 l 1
 309 676 l 1
 150 676 l 1
 150 -202 l 1
 309 -202 l 1
 309 -231 l 1
 88 -231 l 1
EndSplineSet
Position2: "case_positioning subtable" dx=0 dy=50 dh=0 dv=0
EndChar

StartChar: backslash
Encoding: 92 92 145
Width: 442
VWidth: 488
Flags: HW
AnchorPoint: "l;lo" 120 -244 basechar 0
AnchorPoint: "l;o" 80 195 basechar 0
AnchorPoint: "l;hi" 0 684 basechar 0
AnchorPoint: "l;x" 60 376 basechar 0
AnchorPoint: "l;bl" 100 15 basechar 0
AnchorPoint: "r;lo" 442 -244 basechar 0
AnchorPoint: "r;o" 422 195 basechar 0
AnchorPoint: "r;hi" 322 684 basechar 0
AnchorPoint: "r;x" 382 376 basechar 0
AnchorPoint: "r;bl" 442 15 basechar 0
LayerCount: 3
Fore
SplineSet
37 706 m 1
 84 706 l 1
 425 -231 l 1
 378 -231 l 1
 37 706 l 1
EndSplineSet
AlternateSubs2: "'aalt' Access All Alternates lookup 0 subtable" backslash.uppercase
AlternateSubs2: "'aalt' Access All Alternates in Latin lookup 0 subtable" backslash.uppercase
Substitution2: "case_substitutions subtable" backslash.uppercase
EndChar

StartChar: bracketright
Encoding: 93 93 146
Width: 326
VWidth: 0
Flags: HW
HStem: -231 29<17 176> 676 30<17 176>
VStem: 176 62<-202 676>
AnchorPoint: "l;bl" 60 15 basechar 0
AnchorPoint: "l;x" 60 376 basechar 0
AnchorPoint: "l;hi" 0 684 basechar 0
AnchorPoint: "l;o" 60 195 basechar 0
AnchorPoint: "l;lo" 0 -244 basechar 0
AnchorPoint: "r;bl" 326 15 basechar 0
AnchorPoint: "r;x" 326 376 basechar 0
AnchorPoint: "r;hi" 326 684 basechar 0
AnchorPoint: "r;o" 326 195 basechar 0
AnchorPoint: "r;lo" 326 -244 basechar 0
LayerCount: 3
Fore
SplineSet
17 -202 m 1
 176 -202 l 1
 176 676 l 1
 17 676 l 1
 17 706 l 1
 238 706 l 5
 238 -231 l 5
 17 -231 l 1
 17 -202 l 1
EndSplineSet
Position2: "case_positioning subtable" dx=0 dy=50 dh=0 dv=0
EndChar

StartChar: plus
Encoding: 43 43 147
Width: 763
VWidth: 0
Flags: HW
HStem: 206 58<80 357 406 683>
VStem: 352 59<-67 210 260 537>
AnchorPoint: "l;bl" 0 15 basechar 0
AnchorPoint: "l;x" 0 376 basechar 0
AnchorPoint: "l;hi" 0 684 basechar 0
AnchorPoint: "l;o" 0 195 basechar 0
AnchorPoint: "l;lo" 0 -244 basechar 0
AnchorPoint: "r;bl" 763 15 basechar 0
AnchorPoint: "r;x" 763 376 basechar 0
AnchorPoint: "r;hi" 763 684 basechar 0
AnchorPoint: "r;o" 763 195 basechar 0
AnchorPoint: "r;lo" 763 -244 basechar 0
LayerCount: 3
Fore
SplineSet
80 206 m 1
 80 264 l 1
 329 264 357 260 357 260 c 1
 357 260 352 273 352 537 c 1
 411 537 l 1
 411 273 406 260 406 260 c 1
 406 260 436 264 683 264 c 1
 683 206 l 1
 436 206 406 210 406 210 c 1
 406 210 411 180 411 -67 c 1
 352 -67 l 1
 352 180 357 210 357 210 c 1
 357 210 329 206 80 206 c 1
EndSplineSet
Position2: "case_positioning subtable" dx=0 dy=50 dh=0 dv=0
EndChar

StartChar: braceright
Encoding: 125 125 148
Width: 281
VWidth: 488
Flags: HW
HStem: -231 29<17 69.403> 230 19<225.281 264> 677 29<17 69.0692>
VStem: 116 65<-150.291 203.185 273.927 623.12>
AnchorPoint: "l;bl" 0 15 basechar 0
AnchorPoint: "l;x" 0 376 basechar 0
AnchorPoint: "l;hi" 0 684 basechar 0
AnchorPoint: "l;o" 0 195 basechar 0
AnchorPoint: "l;lo" 0 -244 basechar 0
AnchorPoint: "r;bl" 281 15 basechar 0
AnchorPoint: "r;x" 281 376 basechar 0
AnchorPoint: "r;hi" 281 684 basechar 0
AnchorPoint: "r;o" 281 195 basechar 0
AnchorPoint: "r;lo" 281 -244 basechar 0
LayerCount: 3
Fore
SplineSet
17 -202 m 1
 114 -202 121 -112 121 -29 c 0
 121 26 116 71 116 114 c 0
 116 178 133 221 183 240 c 1
 133 259 116 299 116 365 c 0
 116 409 120 454 120 509 c 0
 120 591 113 677 17 677 c 1
 17 706 l 1
 140 706 185 612 185 503 c 0
 185 458 181 417 181 381 c 0
 181 254 219 258 264 249 c 1
 264 230 l 1
 224 221 181 229 181 98 c 0
 181 61 185 20 185 -24 c 0
 185 -144 141 -231 17 -231 c 1
 17 -202 l 1
EndSplineSet
Position2: "case_positioning subtable" dx=0 dy=50 dh=0 dv=0
EndChar

StartChar: percent
Encoding: 37 37 149
Width: 781
VWidth: 0
Flags: HW
HStem: -11 41<434.259 538.936> 270 40<550.377 648.667> 306 41<116.693 220.958> 577 33<323.625 571.471> 586 40<233.377 382.102>
VStem: 65 43<355.512 458.085> 339 48<472.383 579.162> 382 43<39.3215 142.201> 657 47<155.777 262.161>
AnchorPoint: "l;bl" 0 15 basechar 0
AnchorPoint: "l;x" 0 376 basechar 0
AnchorPoint: "l;hi" 50 684 basechar 0
AnchorPoint: "l;o" 0 195 basechar 0
AnchorPoint: "r;bl" 781 15 basechar 0
AnchorPoint: "r;x" 781 376 basechar 0
AnchorPoint: "r;hi" 781 684 basechar 0
AnchorPoint: "r;o" 781 195 basechar 0
LayerCount: 3
Fore
SplineSet
44 -33 m 0x9680
 44 -30 46 -26 53 -18 c 2
 654 623 l 1
 632 612 554 577 440 577 c 0x9680
 418 577 393 580 368 583 c 1
 380 564 387 541 387 510 c 0
 387 398 285 306 182 306 c 0
 102 306 65 361 65 423 c 0
 65 543 190 626 276 626 c 0xae80
 321 626 323 610 438 610 c 0
 588 610 701 666 729 666 c 0
 733 666 737 665 737 661 c 0
 737 654 728 643 719 633 c 2
 92 -40 l 1
 61 -40 l 2
 51 -40 44 -39 44 -33 c 0x9680
108 397 m 0
 108 371 123 347 159 347 c 0
 250 347 339 474 339 542 c 0
 339 568 318 586 290 586 c 0xae80
 223 586 108 468 108 397 c 0
382 107 m 0xc580
 382 228 507 310 593 310 c 0
 654 310 704 275 704 193 c 0
 704 81 603 -11 500 -11 c 0
 420 -11 382 45 382 107 c 0xc580
425 81 m 0
 425 55 441 30 477 30 c 0
 568 30 657 158 657 226 c 0
 657 252 635 270 607 270 c 0
 540 270 425 152 425 81 c 0
EndSplineSet
EndChar

StartChar: sterling
Encoding: 163 163 150
Width: 435
VWidth: 0
Flags: HW
HStem: -15 40<293.031 363.073> 98 25<128 209.387> 245 39<27 134 203 322> 628 33<243.664 324.382>
VStem: 125 83<285.927 533.078> 338 80<529.329 619.376> 370 45<32.5897 107.84>
AnchorPoint: "l;bl" 0 15 basechar 0
AnchorPoint: "l;x" 0 376 basechar 0
AnchorPoint: "l;hi" 80 684 basechar 0
AnchorPoint: "l;o" 0 195 basechar 0
AnchorPoint: "r;bl" 435 15 basechar 0
AnchorPoint: "r;x" 435 376 basechar 0
AnchorPoint: "r;k;hi" 455 684 basechar 0
AnchorPoint: "r;o" 435 195 basechar 0
LayerCount: 3
Fore
SplineSet
17 23 m 0xfa
 17 74 92 94 120 113 c 1
 135 129 141 187 141 216 c 0
 141 218 139 229 138 245 c 1
 27 245 l 1
 27 284 l 1
 134 284 l 1
 130 325 125 373 125 394 c 0
 125 575 206 661 309 661 c 0
 365 661 418 621 418 570 c 0
 418 542 400 523 380 523 c 0
 362 523 345 535 338 572 c 0xfc
 332 600 328 628 286 628 c 0
 254 628 207 602 207 518 c 0
 207 491 208 446 208 359 c 0
 208 332 206 307 203 284 c 1
 322 284 l 1
 322 245 l 1
 197 245 l 1
 181 168 153 120 153 120 c 1
 153 120 158 123 165 123 c 0
 251 123 281 25 334 25 c 0
 355 25 370 48 370 69 c 0
 370 102 330 111 330 144 c 0
 330 161 342 181 361 181 c 0
 393 181 415 137 415 98 c 0
 415 38 367 -15 296 -15 c 0
 233 -15 217 26 185 67 c 0
 168 88 156 98 145 98 c 0
 111 98 111 -13 51 -13 c 0
 31 -13 17 4 17 23 c 0xfa
EndSplineSet
Layer: 2
SplineSet
382.8125 733.88671875 m 4
 445.3125 733.88671875 504.39453125 689.453125 504.39453125 632.8125 c 4
 504.39453125 602.05078125 484.375 581.0546875 461.9140625 581.0546875 c 4
 442.3828125 581.0546875 423.33984375 593.75 415.0390625 634.765625 c 4
 408.69140625 665.52734375 403.80859375 697.265625 357.421875 697.265625 c 4
 322.265625 697.265625 269.04296875 667.48046875 269.04296875 574.21875 c 4
 269.04296875 544.43359375 270.99609375 495.1171875 270.99609375 398.4375 c 4
 270.99609375 368.65234375 268.5546875 340.33203125 265.13671875 314.94140625 c 5
 396.97265625 314.94140625 l 5
 396.97265625 270.99609375 l 5
 257.8125 270.99609375 l 5
 239.74609375 186.03515625 209.47265625 132.8125 209.47265625 132.8125 c 5
 209.47265625 132.8125 215.33203125 136.23046875 223.14453125 136.23046875 c 4
 318.84765625 136.23046875 351.5625 27.34375 410.15625 27.34375 c 4
 434.08203125 27.34375 449.70703125 52.24609375 449.70703125 76.171875 c 4
 449.70703125 112.3046875 405.2734375 123.046875 405.2734375 159.1796875 c 4
 405.2734375 177.734375 419.43359375 200.1953125 440.4296875 200.1953125 c 4
 475.5859375 200.1953125 500.9765625 151.85546875 500.9765625 108.3984375 c 4
 500.9765625 42.48046875 446.77734375 -17.08984375 368.1640625 -17.08984375 c 4
 297.8515625 -17.08984375 280.2734375 28.3203125 244.62890625 73.73046875 c 4
 226.07421875 97.65625 211.9140625 108.3984375 200.1953125 108.3984375 c 4
 162.109375 108.3984375 162.109375 -15.625 95.703125 -15.625 c 4
 74.21875 -15.625 58.10546875 3.90625 58.10546875 24.90234375 c 4
 58.10546875 82.03125 142.08984375 104.00390625 172.8515625 124.51171875 c 5
 188.96484375 142.08984375 195.3125 206.54296875 195.3125 239.2578125 c 4
 195.3125 241.69921875 193.84765625 253.90625 192.3828125 270.99609375 c 5
 68.84765625 270.99609375 l 5
 68.84765625 314.94140625 l 5
 187.98828125 314.94140625 l 5
 183.59375 360.3515625 178.7109375 413.57421875 178.7109375 436.5234375 c 4
 178.7109375 637.20703125 268.5546875 733.88671875 382.8125 733.88671875 c 4
EndSplineSet
EndChar

StartChar: less
Encoding: 60 60 151
Width: 761
VWidth: 10
Flags: HW
AnchorPoint: "l;bl" 0 15 basechar 0
AnchorPoint: "l;x" 0 376 basechar 0
AnchorPoint: "l;hi" 0 684 basechar 0
AnchorPoint: "l;o" 0 195 basechar 0
AnchorPoint: "l;lo" 0 -244 basechar 0
AnchorPoint: "r;bl" 761 15 basechar 0
AnchorPoint: "r;x" 761 376 basechar 0
AnchorPoint: "r;hi" 761 684 basechar 0
AnchorPoint: "r;o" 761 195 basechar 0
AnchorPoint: "r;lo" 761 -244 basechar 0
LayerCount: 3
Fore
SplineSet
59 255 m 1
 702 563 l 1
 702 496 l 1
 163 244 l 1
 702 -8 l 1
 702 -75 l 1
 59 233 l 1
 59 255 l 1
EndSplineSet
Position2: "case_positioning subtable" dx=0 dy=50 dh=0 dv=0
EndChar

StartChar: equal
Encoding: 61 61 152
Width: 784
VWidth: 0
Flags: HW
HStem: 122 59<90 694> 289 59<90 694>
AnchorPoint: "l;bl" 0 15 basechar 0
AnchorPoint: "l;x" 0 376 basechar 0
AnchorPoint: "l;hi" 0 684 basechar 0
AnchorPoint: "l;o" 0 195 basechar 0
AnchorPoint: "l;lo" 0 -244 basechar 0
AnchorPoint: "r;bl" 784 15 basechar 0
AnchorPoint: "r;x" 784 376 basechar 0
AnchorPoint: "r;hi" 784 684 basechar 0
AnchorPoint: "r;o" 784 195 basechar 0
AnchorPoint: "r;lo" 784 -244 basechar 0
LayerCount: 3
Fore
SplineSet
90 122 m 1
 90 181 l 1
 694 181 l 1
 694 122 l 1
 90 122 l 1
90 289 m 1
 90 348 l 1
 694 348 l 1
 694 289 l 1
 90 289 l 1
EndSplineSet
Position2: "case_positioning subtable" dx=0 dy=50 dh=0 dv=0
EndChar

StartChar: greater
Encoding: 62 62 153
Width: 761
VWidth: 0
Flags: HW
AnchorPoint: "l;bl" 0 15 basechar 0
AnchorPoint: "l;x" 0 376 basechar 0
AnchorPoint: "l;hi" 0 684 basechar 0
AnchorPoint: "l;o" 0 195 basechar 0
AnchorPoint: "l;lo" 0 -244 basechar 0
AnchorPoint: "r;bl" 761 15 basechar 0
AnchorPoint: "r;x" 761 376 basechar 0
AnchorPoint: "r;hi" 761 684 basechar 0
AnchorPoint: "r;o" 761 195 basechar 0
AnchorPoint: "r;lo" 761 -244 basechar 0
LayerCount: 3
Fore
SplineSet
702 233 m 1
 59 -75 l 1
 59 -8 l 1
 598 244 l 1
 59 496 l 1
 59 563 l 1
 702 255 l 1
 702 233 l 1
EndSplineSet
Position2: "case_positioning subtable" dx=0 dy=50 dh=0 dv=0
EndChar

StartChar: uni2053
Encoding: 8275 8275 155
Width: 996
VWidth: 0
Flags: HW
HStem: 217 53<661.48 798.2> 389 60<199.812 332.709>
VStem: 60 32<221.469 270.929> 904 32<403.083 443.312>
AnchorPoint: "l;x" 0 376 basechar 0
AnchorPoint: "l;o" 0 195 basechar 0
AnchorPoint: "r;x" 996 376 basechar 0
AnchorPoint: "r;o" 956 195 basechar 0
LayerCount: 3
Fore
SplineSet
60 223 m 1
 60 223 101 449 291 449 c 0
 470 449 607 270 752 270 c 0
 861 270 904 448 904 448 c 1
 936 442 l 1
 931 431 895 217 708 217 c 0
 523 217 386 389 236 389 c 0
 118 389 92 216 92 216 c 1
 60 223 l 1
EndSplineSet
EndChar

StartChar: plusminus
Encoding: 177 177 156
Width: 725
VWidth: 0
Flags: HW
HStem: -23 59<80 645> 289 58<80 338 387 645>
VStem: 333 59<75 293 343 561>
AnchorPoint: "l;bl" 0 15 basechar 0
AnchorPoint: "l;x" 0 376 basechar 0
AnchorPoint: "l;hi" 0 684 basechar 0
AnchorPoint: "l;o" 0 195 basechar 0
AnchorPoint: "l;lo" 0 -244 basechar 0
AnchorPoint: "r;bl" 725 15 basechar 0
AnchorPoint: "r;x" 725 376 basechar 0
AnchorPoint: "r;hi" 725 684 basechar 0
AnchorPoint: "r;o" 725 195 basechar 0
AnchorPoint: "r;lo" 725 -244 basechar 0
LayerCount: 3
Fore
SplineSet
80 -23 m 1
 80 36 l 1
 645 36 l 1
 645 -23 l 1
 80 -23 l 1
80 289 m 1
 80 347 l 1
 298 347 338 343 338 343 c 1
 338 343 333 383 333 561 c 1
 392 561 l 1
 392 392 387 343 387 343 c 1
 387 343 437 347 645 347 c 1
 645 289 l 1
 426 289 387 293 387 293 c 1
 387 293 392 254 392 75 c 1
 333 75 l 1
 333 252 338 293 338 293 c 1
 338 293 298 289 80 289 c 1
EndSplineSet
Position2: "case_positioning subtable" dx=0 dy=50 dh=0 dv=0
EndChar

StartChar: minus
Encoding: 8722 8722 157
Width: 744
VWidth: 0
Flags: HW
HStem: 206 58<80 664>
AnchorPoint: "l;bl" 0 15 basechar 0
AnchorPoint: "l;x" 0 376 basechar 0
AnchorPoint: "l;hi" 0 684 basechar 0
AnchorPoint: "l;o" 0 195 basechar 0
AnchorPoint: "l;lo" 0 -244 basechar 0
AnchorPoint: "r;bl" 744 15 basechar 0
AnchorPoint: "r;x" 744 376 basechar 0
AnchorPoint: "r;hi" 744 684 basechar 0
AnchorPoint: "r;o" 744 195 basechar 0
AnchorPoint: "r;lo" 744 -244 basechar 0
LayerCount: 3
Fore
SplineSet
80 206 m 1
 80 264 l 1
 664 264 l 1
 664 206 l 1
 80 206 l 1
EndSplineSet
Position2: "case_positioning subtable" dx=0 dy=50 dh=0 dv=0
EndChar

StartChar: multiply
Encoding: 215 215 158
Width: 589
VWidth: 0
Flags: HW
AnchorPoint: "l;bl" 0 15 basechar 0
AnchorPoint: "l;x" 0 376 basechar 0
AnchorPoint: "l;hi" 0 684 basechar 0
AnchorPoint: "l;o" 0 195 basechar 0
AnchorPoint: "l;lo" 0 -244 basechar 0
AnchorPoint: "r;bl" 589 15 basechar 0
AnchorPoint: "r;x" 589 376 basechar 0
AnchorPoint: "r;hi" 589 684 basechar 0
AnchorPoint: "r;o" 589 195 basechar 0
AnchorPoint: "r;lo" 589 -244 basechar 0
LayerCount: 3
Fore
SplineSet
60 42 m 1
 236 218 259 235 259 235 c 1
 259 235 247 241 60 428 c 1
 102 469 l 1
 289 282 294 270 294 270 c 1
 294 270 312 294 487 469 c 1
 529 428 l 1
 354 253 330 235 330 235 c 1
 330 235 354 217 529 42 c 1
 487 1 l 1
 312 176 294 200 294 200 c 1
 294 200 278 177 102 1 c 1
 60 42 l 1
EndSplineSet
Position2: "case_positioning subtable" dx=0 dy=50 dh=0 dv=0
EndChar

StartChar: divide
Encoding: 247 247 159
Width: 724
VWidth: 0
Flags: HW
HStem: 18 121<316.107 407.323> 206 58<70 654> 331 121<316.107 407.323>
VStem: 301 121<32.6773 123.893 346.107 437.323>
CounterMasks: 1 e0
AnchorPoint: "l;bl" 0 15 basechar 0
AnchorPoint: "l;x" 0 376 basechar 0
AnchorPoint: "l;hi" 0 684 basechar 0
AnchorPoint: "l;o" 0 195 basechar 0
AnchorPoint: "l;lo" 0 -244 basechar 0
AnchorPoint: "r;bl" 724 15 basechar 0
AnchorPoint: "r;x" 724 376 basechar 0
AnchorPoint: "r;hi" 724 684 basechar 0
AnchorPoint: "r;o" 724 195 basechar 0
AnchorPoint: "r;lo" 724 -244 basechar 0
LayerCount: 3
Fore
SplineSet
70 206 m 1
 70 264 l 1
 654 264 l 1
 654 206 l 1
 70 206 l 1
301 78 m 0
 301 111 329 139 362 139 c 0
 395 139 422 111 422 78 c 0
 422 45 395 18 362 18 c 0
 329 18 301 45 301 78 c 0
301 392 m 0
 301 425 329 452 362 452 c 0
 395 452 422 425 422 392 c 0
 422 359 395 331 362 331 c 0
 329 331 301 359 301 392 c 0
EndSplineSet
Position2: "case_positioning subtable" dx=0 dy=50 dh=0 dv=0
EndChar

StartChar: underscore
Encoding: 95 95 160
Width: 186
VWidth: 488
Flags: HW
HStem: -102 43<0 186>
VStem: 0 186<-102 -59>
AnchorPoint: "l;bl" 0 15 basechar 0
AnchorPoint: "l;x" 0 376 basechar 0
AnchorPoint: "l;hi" 0 684 basechar 0
AnchorPoint: "l;o" 0 195 basechar 0
AnchorPoint: "l;lo" 0 -244 basechar 0
AnchorPoint: "r;bl" 186 15 basechar 0
AnchorPoint: "r;x" 186 376 basechar 0
AnchorPoint: "r;hi" 186 684 basechar 0
AnchorPoint: "r;o" 186 195 basechar 0
AnchorPoint: "r;lo" 186 -244 basechar 0
LayerCount: 3
Fore
SplineSet
0 -59 m 1
 186 -59 l 1
 186 -102 l 1
 0 -102 l 1
 0 -59 l 1
EndSplineSet
EndChar

StartChar: asciicircum
Encoding: 94 94 161
Width: 402
VWidth: 0
Flags: W
HStem: 331 320
VStem: 40 326
LayerCount: 3
Fore
SplineSet
40 331 m 1
 197 651 l 1
 209 651 l 1
 366 331 l 1
 303 331 l 1
 203 543 l 1
 103 331 l 1
 40 331 l 1
EndSplineSet
Validated: 1
EndChar

StartChar: numbersign
Encoding: 35 35 162
Width: 427
VWidth: 0
Flags: HW
HStem: 257 34<24 113 163 236 286 402> 366 34<25 143 193 266 316 403> 667 20G<226.495 273 350.425 396>
AnchorPoint: "l;k;bl" 0 15 basechar 0
AnchorPoint: "l;x" 0 376 basechar 0
AnchorPoint: "l;hi" 60 684 basechar 0
AnchorPoint: "l;o" 0 195 basechar 0
AnchorPoint: "r;bl" 247 15 basechar 0
AnchorPoint: "r;x" 427 376 basechar 0
AnchorPoint: "r;k;hi" 457 684 basechar 0
AnchorPoint: "r;o" 397 195 basechar 0
LayerCount: 3
Fore
SplineSet
24 257 m 1
 24 291 l 1
 122 291 l 1
 143 366 l 1
 25 366 l 1
 25 400 l 1
 153 400 l 1
 232 687 l 1
 273 687 l 1
 193 400 l 1
 276 400 l 1
 356 687 l 1
 396 687 l 1
 316 400 l 1
 403 400 l 1
 403 366 l 1
 307 366 l 1
 286 291 l 1
 402 291 l 1
 402 257 l 1
 276 257 l 1
 190 -49 l 1
 150 -49 l 1
 236 257 l 1
 153 257 l 1
 69 -49 l 1
 28 -49 l 1
 113 257 l 1
 24 257 l 1
163 291 m 1
 245 291 l 1
 266 366 l 1
 184 366 l 1
 163 291 l 1
EndSplineSet
EndChar

StartChar: currency
Encoding: 164 164 163
Width: 521
Flags: HW
HStem: 65 55<185.884 333.297> 404 53<186.862 332.383>
VStem: 64 57<185.877 337.198> 400 58<187.408 335.118>
AnchorPoint: "l;bl" 0 15 basechar 0
AnchorPoint: "l;x" 0 376 basechar 0
AnchorPoint: "l;hi" 0 684 basechar 0
AnchorPoint: "l;o" 0 195 basechar 0
AnchorPoint: "r;bl" 521 15 basechar 0
AnchorPoint: "r;x" 521 376 basechar 0
AnchorPoint: "r;hi" 521 684 basechar 0
AnchorPoint: "r;o" 521 195 basechar 0
LayerCount: 3
Fore
SplineSet
17 44 m 0
 17 56 26 65 35 74 c 2
 103 143 l 1
 78 176 64 217 64 262 c 0
 64 305 78 347 102 379 c 1
 35 448 l 2
 33 450 17 463 17 478 c 0
 17 494 30 505 43 505 c 0
 55 505 65 496 74 487 c 2
 143 418 l 1
 175 442 217 457 260 457 c 0
 307 457 347 441 378 418 c 1
 447 487 l 2
 449 489 462 504 477 504 c 0
 493 504 504 491 504 478 c 0
 504 466 495 457 486 448 c 2
 417 378 l 1
 441 345 458 304 458 260 c 0
 458 217 441 176 417 144 c 1
 486 74 l 2
 488 72 504 59 504 44 c 0
 504 28 490 17 477 17 c 0
 465 17 456 26 447 35 c 2
 378 104 l 1
 346 80 304 65 260 65 c 0
 217 65 175 79 143 103 c 1
 74 35 l 2
 72 33 58 18 43 18 c 0
 27 18 17 31 17 44 c 0
121 260 m 0
 121 181 184 120 260 120 c 0
 336 120 400 183 400 261 c 0
 400 338 337 404 260 404 c 0
 182 404 121 338 121 260 c 0
EndSplineSet
EndChar

